M48
; DRILL file KiCad 10.0.1 date 2026-04-24T15:30:38
; FORMAT={-:-/ absolute / metric / decimal}
; #@! TF.CreationDate,2026-04-24T15:30:38-04:00
; #@! TF.GenerationSoftware,Kicad,Pcbnew,10.0.1
; #@! TF.FileFunction,Plated,1,2,PTH
FMAT,2
METRIC
; #@! TA.AperFunction,Plated,PTH,ViaDrill
T1C0.300
; #@! TA.AperFunction,Plated,PTH,ComponentDrill
T2C0.600
; #@! TA.AperFunction,Plated,PTH,ComponentDrill
T3C1.000
%
G90
G05
T1
X184.0Y-100.5
X185.75Y-106.25
X186.0Y-83.0
X186.0Y-84.6
X187.2Y-91.6
X187.25Y-90.5
X187.825Y-104.825
X188.5Y-88.75
X189.5Y-88.5
X189.965Y-90.164
X190.0Y-89.25
X190.287Y-90.95
X190.541Y-73.15
X190.688Y-95.5
X191.003Y-91.308
X191.673Y-103.129
X192.472Y-103.957
X192.8Y-83.0
X192.8Y-97.725
X193.8Y-105.6
X194.4Y-113.01
X195.0Y-89.25
X195.2Y-83.0
X196.4Y-75.4
T3
X181.5Y-71.375
X181.5Y-73.915
X181.5Y-76.455
X181.5Y-78.995
X181.5Y-81.535
X181.5Y-84.075
X181.5Y-86.615
X181.5Y-89.155
X181.5Y-91.695
X181.5Y-94.235
X181.5Y-96.775
X181.5Y-99.315
X181.5Y-101.855
X181.5Y-104.395
X181.5Y-106.935
X181.5Y-109.475
X181.5Y-112.015
X181.5Y-114.555
X181.5Y-117.095
X181.5Y-119.635
X187.96Y-119.635
X190.5Y-119.635
X193.04Y-119.635
X199.5Y-71.375
X199.5Y-73.915
X199.5Y-76.455
X199.5Y-78.995
X199.5Y-81.535
X199.5Y-84.075
X199.5Y-86.615
X199.5Y-89.155
X199.5Y-91.695
X199.5Y-94.235
X199.5Y-96.775
X199.5Y-99.315
X199.5Y-101.855
X199.5Y-104.395
X199.5Y-106.935
X199.5Y-109.475
X199.5Y-112.015
X199.5Y-114.555
X199.5Y-117.095
X199.5Y-119.635
T2
G00X186.18Y-72.03
M15
G01X186.18Y-71.23
M16
G05
G00X186.18Y-76.36
M15
G01X186.18Y-75.26
M16
G05
G00X194.82Y-72.03
M15
G01X194.82Y-71.23
M16
G05
G00X194.82Y-76.36
M15
G01X194.82Y-75.26
M16
G05
M30
