%TF.GenerationSoftware,KiCad,Pcbnew,10.0.1*%
%TF.CreationDate,2026-04-24T15:30:28-04:00*%
%TF.ProjectId,CTR-0,4354522d-302e-46b6-9963-61645f706362,rev?*%
%TF.SameCoordinates,Original*%
%TF.FileFunction,Paste,Top*%
%TF.FilePolarity,Positive*%
%FSLAX46Y46*%
G04 Gerber Fmt 4.6, Leading zero omitted, Abs format (unit mm)*
G04 Created by KiCad (PCBNEW 10.0.1) date 2026-04-24 15:30:28*
%MOMM*%
%LPD*%
G01*
G04 APERTURE LIST*
G04 Aperture macros list*
%AMRoundRect*
0 Rectangle with rounded corners*
0 $1 Rounding radius*
0 $2 $3 $4 $5 $6 $7 $8 $9 X,Y pos of 4 corners*
0 Add a 4 corners polygon primitive as box body*
4,1,4,$2,$3,$4,$5,$6,$7,$8,$9,$2,$3,0*
0 Add four circle primitives for the rounded corners*
1,1,$1+$1,$2,$3*
1,1,$1+$1,$4,$5*
1,1,$1+$1,$6,$7*
1,1,$1+$1,$8,$9*
0 Add four rect primitives between the rounded corners*
20,1,$1+$1,$2,$3,$4,$5,0*
20,1,$1+$1,$4,$5,$6,$7,0*
20,1,$1+$1,$6,$7,$8,$9,0*
20,1,$1+$1,$8,$9,$2,$3,0*%
G04 Aperture macros list end*
%ADD10RoundRect,0.150000X0.150000X0.425000X-0.150000X0.425000X-0.150000X-0.425000X0.150000X-0.425000X0*%
%ADD11RoundRect,0.075000X0.075000X0.500000X-0.075000X0.500000X-0.075000X-0.500000X0.075000X-0.500000X0*%
%ADD12O,1.000000X2.100000*%
%ADD13O,1.000000X1.800000*%
%ADD14RoundRect,0.200000X0.800000X-0.200000X0.800000X0.200000X-0.800000X0.200000X-0.800000X-0.200000X0*%
%ADD15RoundRect,0.135000X-0.185000X0.135000X-0.185000X-0.135000X0.185000X-0.135000X0.185000X0.135000X0*%
%ADD16RoundRect,0.140000X0.170000X-0.140000X0.170000X0.140000X-0.170000X0.140000X-0.170000X-0.140000X0*%
%ADD17RoundRect,0.135000X-0.135000X-0.185000X0.135000X-0.185000X0.135000X0.185000X-0.135000X0.185000X0*%
%ADD18RoundRect,0.250000X0.450000X0.350000X-0.450000X0.350000X-0.450000X-0.350000X0.450000X-0.350000X0*%
%ADD19RoundRect,0.375000X0.625000X0.375000X-0.625000X0.375000X-0.625000X-0.375000X0.625000X-0.375000X0*%
%ADD20RoundRect,0.500000X0.500000X1.400000X-0.500000X1.400000X-0.500000X-1.400000X0.500000X-1.400000X0*%
%ADD21RoundRect,0.225000X0.225000X0.250000X-0.225000X0.250000X-0.225000X-0.250000X0.225000X-0.250000X0*%
%ADD22RoundRect,0.140000X-0.140000X-0.170000X0.140000X-0.170000X0.140000X0.170000X-0.140000X0.170000X0*%
%ADD23RoundRect,0.135000X0.185000X-0.135000X0.185000X0.135000X-0.185000X0.135000X-0.185000X-0.135000X0*%
%ADD24RoundRect,0.249999X-0.395001X-0.395001X0.395001X-0.395001X0.395001X0.395001X-0.395001X0.395001X0*%
%ADD25RoundRect,0.050000X-0.387500X-0.050000X0.387500X-0.050000X0.387500X0.050000X-0.387500X0.050000X0*%
%ADD26RoundRect,0.050000X-0.050000X-0.387500X0.050000X-0.387500X0.050000X0.387500X-0.050000X0.387500X0*%
%ADD27RoundRect,0.140000X0.140000X0.170000X-0.140000X0.170000X-0.140000X-0.170000X0.140000X-0.170000X0*%
%ADD28RoundRect,0.160000X0.245000X0.160000X-0.245000X0.160000X-0.245000X-0.160000X0.245000X-0.160000X0*%
%ADD29RoundRect,0.093750X0.093750X0.106250X-0.093750X0.106250X-0.093750X-0.106250X0.093750X-0.106250X0*%
G04 APERTURE END LIST*
D10*
%TO.C,J1*%
X193700000Y-76385000D03*
X192900000Y-76385000D03*
D11*
X191750000Y-76385000D03*
X190750000Y-76385000D03*
X190250000Y-76385000D03*
X189250000Y-76385000D03*
D10*
X188100000Y-76385000D03*
X187300000Y-76385000D03*
X187300000Y-76385000D03*
X188100000Y-76385000D03*
D11*
X188750000Y-76385000D03*
X189750000Y-76385000D03*
X191250000Y-76385000D03*
X192250000Y-76385000D03*
D10*
X192900000Y-76385000D03*
X193700000Y-76385000D03*
D12*
X194820000Y-75810000D03*
D13*
X194820000Y-71630000D03*
D12*
X186180000Y-75810000D03*
D13*
X186180000Y-71630000D03*
%TD*%
D14*
%TO.C,SW2*%
X194400000Y-115110000D03*
X194400000Y-110910000D03*
%TD*%
D15*
%TO.C,R5*%
X191000000Y-78490000D03*
X191000000Y-79510000D03*
%TD*%
D16*
%TO.C,C4*%
X192800000Y-105680000D03*
X192800000Y-104720000D03*
%TD*%
D15*
%TO.C,R9*%
X194400000Y-108690000D03*
X194400000Y-109710000D03*
%TD*%
%TO.C,R1*%
X192000000Y-78480000D03*
X192000000Y-79500000D03*
%TD*%
D17*
%TO.C,R8*%
X193290000Y-107600000D03*
X194310000Y-107600000D03*
%TD*%
D18*
%TO.C,Y1*%
X191200000Y-104250000D03*
X189000000Y-104250000D03*
X189000000Y-105950000D03*
X191200000Y-105950000D03*
%TD*%
D19*
%TO.C,U2*%
X194000000Y-86500000D03*
X194000000Y-84200000D03*
D20*
X187700000Y-84200000D03*
D19*
X194000000Y-81900000D03*
%TD*%
D15*
%TO.C,R2*%
X189000000Y-78480000D03*
X189000000Y-79500000D03*
%TD*%
D21*
%TO.C,C2*%
X187775000Y-79800000D03*
X186225000Y-79800000D03*
%TD*%
D22*
%TO.C,C3*%
X189000000Y-102800000D03*
X189960000Y-102800000D03*
%TD*%
D15*
%TO.C,R7*%
X186600000Y-108690000D03*
X186600000Y-109710000D03*
%TD*%
D23*
%TO.C,R3*%
X191000000Y-102510000D03*
X191000000Y-101490000D03*
%TD*%
D24*
%TO.C,U1*%
X189887500Y-94700000D03*
X189887500Y-96300000D03*
X191487500Y-94700000D03*
X191487500Y-96300000D03*
D25*
X187250000Y-92900000D03*
X187250000Y-93300000D03*
X187250000Y-93700000D03*
X187250000Y-94100000D03*
X187250000Y-94500000D03*
X187250000Y-94900000D03*
X187250000Y-95300000D03*
X187250000Y-95700000D03*
X187250000Y-96100000D03*
X187250000Y-96500000D03*
X187250000Y-96900000D03*
X187250000Y-97300000D03*
X187250000Y-97700000D03*
X187250000Y-98100000D03*
D26*
X188087500Y-98937500D03*
X188487500Y-98937500D03*
X188887500Y-98937500D03*
X189287500Y-98937500D03*
X189687500Y-98937500D03*
X190087500Y-98937500D03*
X190487500Y-98937500D03*
X190887500Y-98937500D03*
X191287500Y-98937500D03*
X191687500Y-98937500D03*
X192087500Y-98937500D03*
X192487500Y-98937500D03*
X192887500Y-98937500D03*
X193287500Y-98937500D03*
D25*
X194125000Y-98100000D03*
X194125000Y-97700000D03*
X194125000Y-97300000D03*
X194125000Y-96900000D03*
X194125000Y-96500000D03*
X194125000Y-96100000D03*
X194125000Y-95700000D03*
X194125000Y-95300000D03*
X194125000Y-94900000D03*
X194125000Y-94500000D03*
X194125000Y-94100000D03*
X194125000Y-93700000D03*
X194125000Y-93300000D03*
X194125000Y-92900000D03*
D26*
X193287500Y-92062500D03*
X192887500Y-92062500D03*
X192487500Y-92062500D03*
X192087500Y-92062500D03*
X191687500Y-92062500D03*
X191287500Y-92062500D03*
X190887500Y-92062500D03*
X190487500Y-92062500D03*
X190087500Y-92062500D03*
X189687500Y-92062500D03*
X189287500Y-92062500D03*
X188887500Y-92062500D03*
X188487500Y-92062500D03*
X188087500Y-92062500D03*
%TD*%
D14*
%TO.C,SW1*%
X186680000Y-115110000D03*
X186680000Y-110910000D03*
%TD*%
D27*
%TO.C,C5*%
X187680000Y-116400000D03*
X186720000Y-116400000D03*
%TD*%
D15*
%TO.C,R4*%
X190000000Y-78490000D03*
X190000000Y-79510000D03*
%TD*%
D28*
%TO.C,U4*%
X193912500Y-79750000D03*
X193912500Y-78950000D03*
D29*
X194800000Y-80000000D03*
X194800000Y-79350000D03*
X194800000Y-78700000D03*
X193025000Y-78700000D03*
X193025000Y-79350000D03*
X193025000Y-80000000D03*
%TD*%
M02*
