%TF.GenerationSoftware,KiCad,Pcbnew,10.0.1*%
%TF.CreationDate,2026-04-24T14:58:23-04:00*%
%TF.ProjectId,CTR-0,4354522d-302e-46b6-9963-61645f706362,rev?*%
%TF.SameCoordinates,Original*%
%TF.FileFunction,Copper,L1,Top*%
%TF.FilePolarity,Positive*%
%FSLAX46Y46*%
G04 Gerber Fmt 4.6, Leading zero omitted, Abs format (unit mm)*
G04 Created by KiCad (PCBNEW 10.0.1) date 2026-04-24 14:58:23*
%MOMM*%
%LPD*%
G01*
G04 APERTURE LIST*
G04 Aperture macros list*
%AMRoundRect*
0 Rectangle with rounded corners*
0 $1 Rounding radius*
0 $2 $3 $4 $5 $6 $7 $8 $9 X,Y pos of 4 corners*
0 Add a 4 corners polygon primitive as box body*
4,1,4,$2,$3,$4,$5,$6,$7,$8,$9,$2,$3,0*
0 Add four circle primitives for the rounded corners*
1,1,$1+$1,$2,$3*
1,1,$1+$1,$4,$5*
1,1,$1+$1,$6,$7*
1,1,$1+$1,$8,$9*
0 Add four rect primitives between the rounded corners*
20,1,$1+$1,$2,$3,$4,$5,0*
20,1,$1+$1,$4,$5,$6,$7,0*
20,1,$1+$1,$6,$7,$8,$9,0*
20,1,$1+$1,$8,$9,$2,$3,0*%
G04 Aperture macros list end*
%TA.AperFunction,SMDPad,CuDef*%
%ADD10RoundRect,0.150000X0.150000X0.425000X-0.150000X0.425000X-0.150000X-0.425000X0.150000X-0.425000X0*%
%TD*%
%TA.AperFunction,SMDPad,CuDef*%
%ADD11RoundRect,0.075000X0.075000X0.500000X-0.075000X0.500000X-0.075000X-0.500000X0.075000X-0.500000X0*%
%TD*%
%TA.AperFunction,ComponentPad*%
%ADD12O,1.000000X2.100000*%
%TD*%
%TA.AperFunction,ComponentPad*%
%ADD13O,1.000000X1.800000*%
%TD*%
%TA.AperFunction,SMDPad,CuDef*%
%ADD14RoundRect,0.200000X0.800000X-0.200000X0.800000X0.200000X-0.800000X0.200000X-0.800000X-0.200000X0*%
%TD*%
%TA.AperFunction,SMDPad,CuDef*%
%ADD15RoundRect,0.135000X-0.185000X0.135000X-0.185000X-0.135000X0.185000X-0.135000X0.185000X0.135000X0*%
%TD*%
%TA.AperFunction,SMDPad,CuDef*%
%ADD16RoundRect,0.140000X0.170000X-0.140000X0.170000X0.140000X-0.170000X0.140000X-0.170000X-0.140000X0*%
%TD*%
%TA.AperFunction,SMDPad,CuDef*%
%ADD17RoundRect,0.135000X-0.135000X-0.185000X0.135000X-0.185000X0.135000X0.185000X-0.135000X0.185000X0*%
%TD*%
%TA.AperFunction,SMDPad,CuDef*%
%ADD18RoundRect,0.250000X0.450000X0.350000X-0.450000X0.350000X-0.450000X-0.350000X0.450000X-0.350000X0*%
%TD*%
%TA.AperFunction,SMDPad,CuDef*%
%ADD19RoundRect,0.375000X0.625000X0.375000X-0.625000X0.375000X-0.625000X-0.375000X0.625000X-0.375000X0*%
%TD*%
%TA.AperFunction,SMDPad,CuDef*%
%ADD20RoundRect,0.500000X0.500000X1.400000X-0.500000X1.400000X-0.500000X-1.400000X0.500000X-1.400000X0*%
%TD*%
%TA.AperFunction,SMDPad,CuDef*%
%ADD21RoundRect,0.225000X0.225000X0.250000X-0.225000X0.250000X-0.225000X-0.250000X0.225000X-0.250000X0*%
%TD*%
%TA.AperFunction,SMDPad,CuDef*%
%ADD22RoundRect,0.140000X-0.140000X-0.170000X0.140000X-0.170000X0.140000X0.170000X-0.140000X0.170000X0*%
%TD*%
%TA.AperFunction,ComponentPad*%
%ADD23R,1.700000X1.700000*%
%TD*%
%TA.AperFunction,ComponentPad*%
%ADD24C,1.700000*%
%TD*%
%TA.AperFunction,SMDPad,CuDef*%
%ADD25RoundRect,0.135000X0.185000X-0.135000X0.185000X0.135000X-0.185000X0.135000X-0.185000X-0.135000X0*%
%TD*%
%TA.AperFunction,SMDPad,CuDef*%
%ADD26RoundRect,0.050000X-0.387500X-0.050000X0.387500X-0.050000X0.387500X0.050000X-0.387500X0.050000X0*%
%TD*%
%TA.AperFunction,SMDPad,CuDef*%
%ADD27RoundRect,0.050000X-0.050000X-0.387500X0.050000X-0.387500X0.050000X0.387500X-0.050000X0.387500X0*%
%TD*%
%TA.AperFunction,HeatsinkPad*%
%ADD28R,3.200000X3.200000*%
%TD*%
%TA.AperFunction,SMDPad,CuDef*%
%ADD29RoundRect,0.140000X0.140000X0.170000X-0.140000X0.170000X-0.140000X-0.170000X0.140000X-0.170000X0*%
%TD*%
%TA.AperFunction,SMDPad,CuDef*%
%ADD30RoundRect,0.093750X0.093750X0.106250X-0.093750X0.106250X-0.093750X-0.106250X0.093750X-0.106250X0*%
%TD*%
%TA.AperFunction,HeatsinkPad*%
%ADD31R,1.000000X1.600000*%
%TD*%
%TA.AperFunction,ViaPad*%
%ADD32C,0.600000*%
%TD*%
%TA.AperFunction,Conductor*%
%ADD33C,0.200000*%
%TD*%
G04 APERTURE END LIST*
D10*
%TO.P,J1,A1,GND_A1*%
%TO.N,GND*%
X193700000Y-76385000D03*
%TO.P,J1,A4,VBUS_A4*%
%TO.N,+5V*%
X192900000Y-76385000D03*
D11*
%TO.P,J1,A5,CC1_A5*%
%TO.N,Net-(J1-CC1)*%
X191750000Y-76385000D03*
%TO.P,J1,A6,D+_A6*%
%TO.N,/D+*%
X190750000Y-76385000D03*
%TO.P,J1,A7,D-_A7*%
%TO.N,/D-*%
X190250000Y-76385000D03*
%TO.P,J1,A8*%
%TO.N,N/C*%
X189250000Y-76385000D03*
D10*
%TO.P,J1,A9,VBUS_A9*%
%TO.N,+5V*%
X188100000Y-76385000D03*
%TO.P,J1,A12,GND_A12*%
%TO.N,GND*%
X187300000Y-76385000D03*
%TO.P,J1,B1,GND_B1*%
X187300000Y-76385000D03*
%TO.P,J1,B4,VBUS_B4*%
%TO.N,+5V*%
X188100000Y-76385000D03*
D11*
%TO.P,J1,B5,CC2_B5*%
%TO.N,Net-(J1-CC2)*%
X188750000Y-76385000D03*
%TO.P,J1,B6,D+_B6*%
%TO.N,/D+*%
X189750000Y-76385000D03*
%TO.P,J1,B7,D-_B7*%
%TO.N,/D-*%
X191250000Y-76385000D03*
%TO.P,J1,B8*%
%TO.N,N/C*%
X192250000Y-76385000D03*
D10*
%TO.P,J1,B9,VBUS_B9*%
%TO.N,+5V*%
X192900000Y-76385000D03*
%TO.P,J1,B12,GND_B12*%
%TO.N,GND*%
X193700000Y-76385000D03*
D12*
%TO.P,J1,SH*%
%TO.N,N/C*%
X194820000Y-75810000D03*
D13*
X194820000Y-71630000D03*
D12*
X186180000Y-75810000D03*
D13*
X186180000Y-71630000D03*
%TD*%
D14*
%TO.P,SW2,1,1_1*%
%TO.N,GND*%
X194400000Y-115110000D03*
%TO.P,SW2,2,2_2*%
%TO.N,Net-(R9-Pad2)*%
X194400000Y-110910000D03*
%TD*%
D15*
%TO.P,R5,1*%
%TO.N,/D-*%
X191000000Y-78490000D03*
%TO.P,R5,2*%
%TO.N,Net-(U1-USB_DM)*%
X191000000Y-79510000D03*
%TD*%
D16*
%TO.P,C4,1*%
%TO.N,GND*%
X192800000Y-105680000D03*
%TO.P,C4,2*%
%TO.N,Net-(C4-Pad2)*%
X192800000Y-104720000D03*
%TD*%
D15*
%TO.P,R9,1*%
%TO.N,/RUN*%
X194400000Y-108690000D03*
%TO.P,R9,2*%
%TO.N,Net-(R9-Pad2)*%
X194400000Y-109710000D03*
%TD*%
%TO.P,R1,1*%
%TO.N,Net-(J1-CC1)*%
X192000000Y-78480000D03*
%TO.P,R1,2*%
%TO.N,GND*%
X192000000Y-79500000D03*
%TD*%
D17*
%TO.P,R8,1*%
%TO.N,+3V3*%
X193290000Y-107600000D03*
%TO.P,R8,2*%
%TO.N,/RUN*%
X194310000Y-107600000D03*
%TD*%
D18*
%TO.P,Y1,1,1_1*%
%TO.N,Net-(C4-Pad2)*%
X191200000Y-104250000D03*
%TO.P,Y1,2,2_2*%
%TO.N,GND*%
X189000000Y-104250000D03*
%TO.P,Y1,3,3_3*%
%TO.N,/XIN*%
X189000000Y-105950000D03*
%TO.P,Y1,4,4_4*%
%TO.N,GND*%
X191200000Y-105950000D03*
%TD*%
D19*
%TO.P,U2,1,GND_1*%
%TO.N,GND*%
X194000000Y-86500000D03*
%TO.P,U2,2,VO_2*%
%TO.N,+3V3*%
X194000000Y-84200000D03*
D20*
X187700000Y-84200000D03*
D19*
%TO.P,U2,3,VI_3*%
%TO.N,+5V*%
X194000000Y-81900000D03*
%TD*%
D15*
%TO.P,R2,1*%
%TO.N,Net-(J1-CC2)*%
X189000000Y-78480000D03*
%TO.P,R2,2*%
%TO.N,GND*%
X189000000Y-79500000D03*
%TD*%
D21*
%TO.P,C2,1*%
%TO.N,+3V3*%
X187775000Y-79800000D03*
%TO.P,C2,2*%
%TO.N,GND*%
X186225000Y-79800000D03*
%TD*%
D22*
%TO.P,C3,1*%
%TO.N,GND*%
X189000000Y-102800000D03*
%TO.P,C3,2*%
%TO.N,/XIN*%
X189960000Y-102800000D03*
%TD*%
D15*
%TO.P,R7,1*%
%TO.N,/QSPI_SS*%
X186600000Y-108690000D03*
%TO.P,R7,2*%
%TO.N,Net-(R7-Pad2)*%
X186600000Y-109710000D03*
%TD*%
D23*
%TO.P,J4,1,Pin_1_1*%
%TO.N,/SWCLK*%
X187960000Y-119635000D03*
D24*
%TO.P,J4,2,Pin_2_2*%
%TO.N,GND*%
X190500000Y-119635000D03*
%TO.P,J4,3,Pin_3_3*%
%TO.N,/SWD*%
X193040000Y-119635000D03*
%TD*%
D25*
%TO.P,R3,1*%
%TO.N,Net-(C4-Pad2)*%
X191000000Y-102510000D03*
%TO.P,R3,2*%
%TO.N,/XOUT*%
X191000000Y-101490000D03*
%TD*%
D26*
%TO.P,U1,1,IOVDD_1*%
%TO.N,+3V3*%
X187250000Y-92900000D03*
%TO.P,U1,2,GPIO0_2*%
%TO.N,/GPIO0*%
X187250000Y-93300000D03*
%TO.P,U1,3,GPIO1_3*%
%TO.N,/GPIO1*%
X187250000Y-93700000D03*
%TO.P,U1,4,GPIO2_4*%
%TO.N,/GPIO2*%
X187250000Y-94100000D03*
%TO.P,U1,5,GPIO3_5*%
%TO.N,/GPIO3*%
X187250000Y-94500000D03*
%TO.P,U1,6,GPIO4_6*%
%TO.N,/GPIO4*%
X187250000Y-94900000D03*
%TO.P,U1,7,GPIO5_7*%
%TO.N,/GPIO5*%
X187250000Y-95300000D03*
%TO.P,U1,8,GPIO6_8*%
%TO.N,/GPIO6*%
X187250000Y-95700000D03*
%TO.P,U1,9,GPIO7_9*%
%TO.N,/GPIO7*%
X187250000Y-96100000D03*
%TO.P,U1,10,IOVDD_10*%
%TO.N,+3V3*%
X187250000Y-96500000D03*
%TO.P,U1,11,GPIO8_11*%
%TO.N,/GPIO8*%
X187250000Y-96900000D03*
%TO.P,U1,12,GPIO9_12*%
%TO.N,/GPIO9*%
X187250000Y-97300000D03*
%TO.P,U1,13,GPIO10_13*%
%TO.N,/GPIO10*%
X187250000Y-97700000D03*
%TO.P,U1,14,GPIO11_14*%
%TO.N,/GPIO11*%
X187250000Y-98100000D03*
D27*
%TO.P,U1,15,GPIO12_15*%
%TO.N,/GPIO12*%
X188087500Y-98937500D03*
%TO.P,U1,16,GPIO13_16*%
%TO.N,/GPIO13*%
X188487500Y-98937500D03*
%TO.P,U1,17,GPIO14_17*%
%TO.N,/GPIO14*%
X188887500Y-98937500D03*
%TO.P,U1,18,GPIO15_18*%
%TO.N,/GPIO15*%
X189287500Y-98937500D03*
%TO.P,U1,19,TESTEN_19*%
%TO.N,GND*%
X189687500Y-98937500D03*
%TO.P,U1,20,XIN_20*%
%TO.N,/XIN*%
X190087500Y-98937500D03*
%TO.P,U1,21,XOUT_21*%
%TO.N,/XOUT*%
X190487500Y-98937500D03*
%TO.P,U1,22,IOVDD_22*%
%TO.N,+3V3*%
X190887500Y-98937500D03*
%TO.P,U1,23,DVDD_23*%
%TO.N,+1V1*%
X191287500Y-98937500D03*
%TO.P,U1,24,SWCLK_24*%
%TO.N,/SWCLK*%
X191687500Y-98937500D03*
%TO.P,U1,25,SWD_25*%
%TO.N,/SWD*%
X192087500Y-98937500D03*
%TO.P,U1,26,RUN_26*%
%TO.N,/RUN*%
X192487500Y-98937500D03*
%TO.P,U1,27,GPIO16_27*%
%TO.N,/GPIO16*%
X192887500Y-98937500D03*
%TO.P,U1,28,GPIO17_28*%
%TO.N,/GPIO17*%
X193287500Y-98937500D03*
D26*
%TO.P,U1,29,GPIO18_29*%
%TO.N,/GPIO18*%
X194125000Y-98100000D03*
%TO.P,U1,30,GPIO19_30*%
%TO.N,/GPIO19*%
X194125000Y-97700000D03*
%TO.P,U1,31,GPIO20_31*%
%TO.N,/GPIO20*%
X194125000Y-97300000D03*
%TO.P,U1,32,GPIO21_32*%
%TO.N,/GPIO21*%
X194125000Y-96900000D03*
%TO.P,U1,33,IOVDD_33*%
%TO.N,+3V3*%
X194125000Y-96500000D03*
%TO.P,U1,34,GPIO22_34*%
%TO.N,/GPIO22*%
X194125000Y-96100000D03*
%TO.P,U1,35,GPIO23_35*%
%TO.N,/GPIO23*%
X194125000Y-95700000D03*
%TO.P,U1,36,GPIO24_36*%
%TO.N,/GPIO24*%
X194125000Y-95300000D03*
%TO.P,U1,37,GPIO25_37*%
%TO.N,/GPIO25*%
X194125000Y-94900000D03*
%TO.P,U1,38,GPIO26_ADC0_38*%
%TO.N,/GPIO26_ADC0*%
X194125000Y-94500000D03*
%TO.P,U1,39,GPIO27_ADC1_39*%
%TO.N,/GPIO27_ADC1*%
X194125000Y-94100000D03*
%TO.P,U1,40,GPIO28_ADC2_40*%
%TO.N,/GPIO28_ADC2*%
X194125000Y-93700000D03*
%TO.P,U1,41,GPIO29_ADC3_41*%
%TO.N,/GPIO29_ADC3*%
X194125000Y-93300000D03*
%TO.P,U1,42,IOVDD_42*%
%TO.N,+3V3*%
X194125000Y-92900000D03*
D27*
%TO.P,U1,43,ADC_AVDD_43*%
X193287500Y-92062500D03*
%TO.P,U1,44,VREG_IN_44*%
X192887500Y-92062500D03*
%TO.P,U1,45,VREG_VOUT_45*%
%TO.N,+1V1*%
X192487500Y-92062500D03*
%TO.P,U1,46,USB_DM_46*%
%TO.N,Net-(U1-USB_DM)*%
X192087500Y-92062500D03*
%TO.P,U1,47,USB_DP_47*%
%TO.N,Net-(U1-USB_DP)*%
X191687500Y-92062500D03*
%TO.P,U1,48,USB_VDD_48*%
%TO.N,+3V3*%
X191287500Y-92062500D03*
%TO.P,U1,49,IOVDD_49*%
X190887500Y-92062500D03*
%TO.P,U1,50,DVDD_50*%
%TO.N,+1V1*%
X190487500Y-92062500D03*
%TO.P,U1,51,QSPI_SD3_51*%
%TO.N,/QSPI_SD3*%
X190087500Y-92062500D03*
%TO.P,U1,52,QSPI_SCLK_52*%
%TO.N,/QSPI_SCLK*%
X189687500Y-92062500D03*
%TO.P,U1,53,QSPI_SD0_53*%
%TO.N,/QSPI_SD0*%
X189287500Y-92062500D03*
%TO.P,U1,54,QSPI_SD2_54*%
%TO.N,/QSPI_SD2*%
X188887500Y-92062500D03*
%TO.P,U1,55,QSPI_SD1_55*%
%TO.N,/QSPI_SD1*%
X188487500Y-92062500D03*
%TO.P,U1,56,QSPI_SS_56*%
%TO.N,/QSPI_SS*%
X188087500Y-92062500D03*
D28*
%TO.P,U1,57,GND_57*%
%TO.N,GND*%
X190687500Y-95500000D03*
%TD*%
D14*
%TO.P,SW1,1,1_1*%
%TO.N,Net-(C5-Pad2)*%
X186680000Y-115110000D03*
%TO.P,SW1,2,2_2*%
%TO.N,Net-(R7-Pad2)*%
X186680000Y-110910000D03*
%TD*%
D29*
%TO.P,C5,1*%
%TO.N,GND*%
X187680000Y-116400000D03*
%TO.P,C5,2*%
%TO.N,Net-(C5-Pad2)*%
X186720000Y-116400000D03*
%TD*%
D15*
%TO.P,R4,1*%
%TO.N,/D+*%
X190000000Y-78490000D03*
%TO.P,R4,2*%
%TO.N,Net-(U1-USB_DP)*%
X190000000Y-79510000D03*
%TD*%
D30*
%TO.P,U4,1,GND_1*%
%TO.N,GND*%
X194800000Y-80000000D03*
%TO.P,U4,2,GND_2*%
X194800000Y-79350000D03*
%TO.P,U4,3,GND_3*%
X194800000Y-78700000D03*
%TO.P,U4,4,IN_4*%
%TO.N,+5V*%
X193025000Y-78700000D03*
%TO.P,U4,5,IN_5*%
X193025000Y-79350000D03*
%TO.P,U4,6,IN_6*%
X193025000Y-80000000D03*
D31*
%TO.P,U4,7,GND_7*%
%TO.N,GND*%
X193912500Y-79350000D03*
%TD*%
D23*
%TO.P,J2,1,Pin_1_1*%
%TO.N,/GPIO0*%
X181500000Y-71375000D03*
D24*
%TO.P,J2,2,Pin_2_2*%
%TO.N,/GPIO1*%
X181500000Y-73915000D03*
%TO.P,J2,3,Pin_3_3*%
%TO.N,GND*%
X181500000Y-76455000D03*
%TO.P,J2,4,Pin_4_4*%
%TO.N,/GPIO2*%
X181500000Y-78995000D03*
%TO.P,J2,5,Pin_5_5*%
%TO.N,/GPIO3*%
X181500000Y-81535000D03*
%TO.P,J2,6,Pin_6_6*%
%TO.N,/GPIO4*%
X181500000Y-84075000D03*
%TO.P,J2,7,Pin_7_7*%
%TO.N,/GPIO5*%
X181500000Y-86615000D03*
%TO.P,J2,8,Pin_8_8*%
%TO.N,GND*%
X181500000Y-89155000D03*
%TO.P,J2,9,Pin_9_9*%
%TO.N,/GPIO6*%
X181500000Y-91695000D03*
%TO.P,J2,10,Pin_10_10*%
%TO.N,/GPIO7*%
X181500000Y-94235000D03*
%TO.P,J2,11,Pin_11_11*%
%TO.N,/GPIO8*%
X181500000Y-96775000D03*
%TO.P,J2,12,Pin_12_12*%
%TO.N,/GPIO9*%
X181500000Y-99315000D03*
%TO.P,J2,13,Pin_13_13*%
%TO.N,GND*%
X181500000Y-101855000D03*
%TO.P,J2,14,Pin_14_14*%
%TO.N,/GPIO10*%
X181500000Y-104395000D03*
%TO.P,J2,15,Pin_15_15*%
%TO.N,/GPIO11*%
X181500000Y-106935000D03*
%TO.P,J2,16,Pin_16_16*%
%TO.N,/GPIO12*%
X181500000Y-109475000D03*
%TO.P,J2,17,Pin_17_17*%
%TO.N,/GPIO13*%
X181500000Y-112015000D03*
%TO.P,J2,18,Pin_18_18*%
%TO.N,GND*%
X181500000Y-114555000D03*
%TO.P,J2,19,Pin_19_19*%
%TO.N,/GPIO14*%
X181500000Y-117095000D03*
%TO.P,J2,20,Pin_20_20*%
%TO.N,/GPIO15*%
X181500000Y-119635000D03*
%TD*%
D23*
%TO.P,J3,1,Pin_1_1*%
%TO.N,+5V*%
X199500000Y-71375000D03*
D24*
%TO.P,J3,2,Pin_2_2*%
%TO.N,/GPIO29_ADC3*%
X199500000Y-73915000D03*
%TO.P,J3,3,Pin_3_3*%
%TO.N,GND*%
X199500000Y-76455000D03*
%TO.P,J3,4,Pin_4_4*%
%TO.N,/GPIO28_ADC2*%
X199500000Y-78995000D03*
%TO.P,J3,5,Pin_5_5*%
%TO.N,+3V3*%
X199500000Y-81535000D03*
%TO.P,J3,6,Pin_6_6*%
%TO.N,/GPIO27_ADC1*%
X199500000Y-84075000D03*
%TO.P,J3,7,Pin_7_7*%
%TO.N,/GPIO26_ADC0*%
X199500000Y-86615000D03*
%TO.P,J3,8,Pin_8_8*%
%TO.N,GND*%
X199500000Y-89155000D03*
%TO.P,J3,9,Pin_9_9*%
%TO.N,/GPIO25*%
X199500000Y-91695000D03*
%TO.P,J3,10,Pin_10_10*%
%TO.N,/GPIO24*%
X199500000Y-94235000D03*
%TO.P,J3,11,Pin_11_11*%
%TO.N,/GPIO23*%
X199500000Y-96775000D03*
%TO.P,J3,12,Pin_12_12*%
%TO.N,/GPIO22*%
X199500000Y-99315000D03*
%TO.P,J3,13,Pin_13_13*%
%TO.N,GND*%
X199500000Y-101855000D03*
%TO.P,J3,14,Pin_14_14*%
%TO.N,/GPIO21*%
X199500000Y-104395000D03*
%TO.P,J3,15,Pin_15_15*%
%TO.N,/GPIO20*%
X199500000Y-106935000D03*
%TO.P,J3,16,Pin_16_16*%
%TO.N,/GPIO19*%
X199500000Y-109475000D03*
%TO.P,J3,17,Pin_17_17*%
%TO.N,/GPIO18*%
X199500000Y-112015000D03*
%TO.P,J3,18,Pin_18_18*%
%TO.N,GND*%
X199500000Y-114555000D03*
%TO.P,J3,19,Pin_19_19*%
%TO.N,/GPIO17*%
X199500000Y-117095000D03*
%TO.P,J3,20,Pin_20_20*%
%TO.N,/GPIO16*%
X199500000Y-119635000D03*
%TD*%
D32*
%TO.N,GND*%
X184000000Y-100500000D03*
X186000000Y-83000000D03*
X194400000Y-113010000D03*
X185750000Y-106250000D03*
X190540689Y-73150000D03*
X195000000Y-89250000D03*
X190687500Y-95500000D03*
X196400000Y-75400000D03*
X192800000Y-83000000D03*
%TO.N,+3V3*%
X191003123Y-91307615D03*
X186000000Y-84600000D03*
X187200000Y-91600000D03*
X195200000Y-83000000D03*
X193800000Y-105600000D03*
%TO.N,/QSPI_SS*%
X187250000Y-90500000D03*
X187825306Y-104825306D03*
%TO.N,/SWCLK*%
X191673001Y-103129470D03*
%TO.N,/SWD*%
X192472053Y-103956978D03*
%TO.N,+1V1*%
X192800000Y-97724671D03*
%TO.N,/QSPI_SD3*%
X190287500Y-90950000D03*
%TO.N,/QSPI_SCLK*%
X189964568Y-90163731D03*
%TO.N,/QSPI_SD0*%
X190000000Y-89250000D03*
%TO.N,/QSPI_SD2*%
X189500000Y-88500000D03*
%TO.N,/QSPI_SD1*%
X188500000Y-88750000D03*
%TD*%
%TO.N,GND*%
D33*
X192800000Y-83000000D02*
X192600000Y-83000000D01*
%TO.N,+5V*%
X193025000Y-78700000D02*
X193025000Y-80000000D01*
X192082410Y-75110000D02*
X192900000Y-75927590D01*
X192732410Y-74460000D02*
X196415000Y-74460000D01*
X188100000Y-75810001D02*
X188800001Y-75110000D01*
X192900000Y-75927590D02*
X192900000Y-76385002D01*
X196415000Y-74460000D02*
X199500000Y-71375000D01*
X193025000Y-80000000D02*
X193025000Y-80925000D01*
X193025000Y-80925000D02*
X194000000Y-81900000D01*
X193025000Y-76510002D02*
X193025000Y-78700000D01*
X192082410Y-75110000D02*
X192732410Y-74460000D01*
X192900000Y-76385002D02*
X193025000Y-76510002D01*
X192900000Y-76385000D02*
X192900000Y-76385002D01*
X188100000Y-76385000D02*
X188100000Y-75810001D01*
X188800001Y-75110000D02*
X192082410Y-75110000D01*
%TO.N,Net-(J1-CC1)*%
X191750000Y-76385000D02*
X191750000Y-78230000D01*
X191750000Y-78230000D02*
X192000000Y-78480000D01*
%TO.N,/D+*%
X189750000Y-77247501D02*
X189775000Y-77272501D01*
X189750000Y-75777590D02*
X190017590Y-75510000D01*
X189775000Y-77901397D02*
X190000000Y-78126397D01*
X190750000Y-75777590D02*
X190750000Y-76385000D01*
X190000000Y-78126397D02*
X190000000Y-78490000D01*
X190017590Y-75510000D02*
X190482410Y-75510000D01*
X190482410Y-75510000D02*
X190750000Y-75777590D01*
X189775000Y-77272501D02*
X189775000Y-77901397D01*
X189750000Y-76385000D02*
X189750000Y-75777590D01*
X189750000Y-76385000D02*
X189750000Y-77247501D01*
%TO.N,/D-*%
X190982410Y-77260000D02*
X191250000Y-76992410D01*
X190250000Y-77247501D02*
X190225000Y-77272501D01*
X190225000Y-77272501D02*
X190225000Y-77715000D01*
X190517590Y-77260000D02*
X190982410Y-77260000D01*
X190250000Y-76385000D02*
X190250000Y-77247501D01*
X191250000Y-76992410D02*
X191250000Y-76385000D01*
X190250000Y-76385000D02*
X190250000Y-76992410D01*
X190250000Y-76992410D02*
X190517590Y-77260000D01*
X190225000Y-77715000D02*
X191000000Y-78490000D01*
%TO.N,Net-(J1-CC2)*%
X188750000Y-76385000D02*
X188750000Y-77000000D01*
X188750000Y-77000000D02*
X189000000Y-77250000D01*
X189000000Y-77250000D02*
X189000000Y-78480000D01*
%TO.N,Net-(R9-Pad2)*%
X194400000Y-109710000D02*
X194400000Y-110910000D01*
%TO.N,Net-(U1-USB_DM)*%
X192087500Y-80597500D02*
X191000000Y-79510000D01*
X192087500Y-92062500D02*
X192087500Y-80597500D01*
%TO.N,Net-(C4-Pad2)*%
X191000000Y-104050000D02*
X191200000Y-104250000D01*
X191670000Y-104720000D02*
X191200000Y-104250000D01*
X191000000Y-102510000D02*
X191000000Y-104050000D01*
X192800000Y-104720000D02*
X191670000Y-104720000D01*
%TO.N,/RUN*%
X192487500Y-102453186D02*
X194400000Y-104365685D01*
X194400000Y-104365685D02*
X194400000Y-108690000D01*
X192487500Y-98937500D02*
X192487500Y-102453186D01*
%TO.N,+3V3*%
X191287500Y-91591992D02*
X191003123Y-91307615D01*
X187900000Y-92900000D02*
X188000000Y-93000000D01*
X192887500Y-92062500D02*
X193287500Y-92062500D01*
X190001000Y-97401000D02*
X188686274Y-97401000D01*
X190887500Y-98937500D02*
X190887500Y-98287500D01*
X188000000Y-93000000D02*
X188000000Y-96285274D01*
X187250000Y-92900000D02*
X187900000Y-92900000D01*
X187250000Y-91650000D02*
X187200000Y-91600000D01*
X193287500Y-92062500D02*
X194125000Y-92900000D01*
X193287500Y-96287500D02*
X193287500Y-93202226D01*
X187785274Y-96500000D02*
X187250000Y-96500000D01*
X194125000Y-96500000D02*
X193500000Y-96500000D01*
X187775000Y-84125000D02*
X187700000Y-84200000D01*
X193290000Y-107600000D02*
X193800000Y-107090000D01*
X194000000Y-84200000D02*
X192699000Y-85501000D01*
X190887500Y-92062500D02*
X190887500Y-87387500D01*
X193590726Y-92899000D02*
X193958900Y-92899000D01*
X187775000Y-79800000D02*
X187775000Y-84125000D01*
X192699000Y-85501000D02*
X192699000Y-89226943D01*
X188000000Y-96285274D02*
X187785274Y-96500000D01*
X190887500Y-87387500D02*
X187700000Y-84200000D01*
X193287500Y-89815443D02*
X193287500Y-92062500D01*
X191287500Y-92062500D02*
X191287500Y-91591992D01*
X193500000Y-96500000D02*
X193287500Y-96287500D01*
X187250000Y-92900000D02*
X187250000Y-91650000D01*
X188686274Y-97401000D02*
X187785274Y-96500000D01*
X192699000Y-89226943D02*
X193287500Y-89815443D01*
X193287500Y-93202226D02*
X193590726Y-92899000D01*
X194000000Y-84200000D02*
X195200000Y-83000000D01*
X187300000Y-84600000D02*
X187700000Y-84200000D01*
X193800000Y-107090000D02*
X193800000Y-105600000D01*
X190887500Y-98287500D02*
X190001000Y-97401000D01*
X186000000Y-84600000D02*
X187300000Y-84600000D01*
X191287500Y-92062500D02*
X190887500Y-92062500D01*
%TO.N,/XIN*%
X190087500Y-98937500D02*
X190087500Y-104862500D01*
X190087500Y-104862500D02*
X189000000Y-105950000D01*
%TO.N,/QSPI_SS*%
X188087500Y-92062500D02*
X188087500Y-91337500D01*
X186600000Y-108690000D02*
X186600000Y-106050612D01*
X188087500Y-91337500D02*
X187250000Y-90500000D01*
X186600000Y-106050612D02*
X187825306Y-104825306D01*
%TO.N,Net-(R7-Pad2)*%
X186600000Y-109710000D02*
X186600000Y-110830000D01*
X186600000Y-110830000D02*
X186680000Y-110910000D01*
%TO.N,/SWCLK*%
X191687500Y-103114971D02*
X191673001Y-103129470D01*
X191687500Y-98937500D02*
X191687500Y-103114971D01*
%TO.N,/SWD*%
X192472053Y-103003425D02*
X192472053Y-103956978D01*
X192087500Y-98937500D02*
X192087500Y-102618872D01*
X192087500Y-102618872D02*
X192472053Y-103003425D01*
%TO.N,/XOUT*%
X190487500Y-99487500D02*
X191000000Y-100000000D01*
X190487500Y-98937500D02*
X190487500Y-99487500D01*
X191000000Y-100000000D02*
X191000000Y-101490000D01*
%TO.N,/GPIO0*%
X187250000Y-93300000D02*
X186665686Y-93300000D01*
X185200000Y-75075000D02*
X181500000Y-71375000D01*
X185200000Y-91834314D02*
X185200000Y-75075000D01*
X186665686Y-93300000D02*
X185200000Y-91834314D01*
%TO.N,/GPIO1*%
X184800000Y-77215000D02*
X181500000Y-73915000D01*
X186500000Y-93700000D02*
X184800000Y-92000000D01*
X187250000Y-93700000D02*
X186500000Y-93700000D01*
X184800000Y-92000000D02*
X184800000Y-77215000D01*
%TO.N,/GPIO2*%
X186334314Y-94100000D02*
X184400000Y-92165686D01*
X187250000Y-94100000D02*
X186334314Y-94100000D01*
X184400000Y-81895000D02*
X181500000Y-78995000D01*
X184400000Y-92165686D02*
X184400000Y-81895000D01*
%TO.N,/GPIO3*%
X184000000Y-92400000D02*
X186100000Y-94500000D01*
X186100000Y-94500000D02*
X187250000Y-94500000D01*
X181500000Y-81535000D02*
X184000000Y-84035000D01*
X184000000Y-84035000D02*
X184000000Y-92400000D01*
%TO.N,/GPIO4*%
X183600000Y-86175000D02*
X181500000Y-84075000D01*
X185934314Y-94900000D02*
X183600000Y-92565685D01*
X183600000Y-92565685D02*
X183600000Y-86175000D01*
X187250000Y-94900000D02*
X185934314Y-94900000D01*
%TO.N,/GPIO5*%
X183200000Y-88315000D02*
X181500000Y-86615000D01*
X185768628Y-95300000D02*
X183200000Y-92731370D01*
X187250000Y-95300000D02*
X185768628Y-95300000D01*
X183200000Y-92731370D02*
X183200000Y-88315000D01*
%TO.N,/GPIO6*%
X185505000Y-95700000D02*
X181500000Y-91695000D01*
X187250000Y-95700000D02*
X185505000Y-95700000D01*
%TO.N,/GPIO7*%
X187250000Y-96100000D02*
X183365000Y-96100000D01*
X183365000Y-96100000D02*
X181500000Y-94235000D01*
%TO.N,/GPIO8*%
X187250000Y-96900000D02*
X181625000Y-96900000D01*
X181625000Y-96900000D02*
X181500000Y-96775000D01*
%TO.N,/GPIO9*%
X187250000Y-97300000D02*
X186265686Y-97300000D01*
X186265686Y-97300000D02*
X184250686Y-99315000D01*
X184250686Y-99315000D02*
X181500000Y-99315000D01*
%TO.N,/GPIO10*%
X181605000Y-104395000D02*
X186511500Y-99488500D01*
X186700000Y-97700000D02*
X187250000Y-97700000D01*
X186511500Y-99488500D02*
X186511500Y-97888500D01*
X181500000Y-104395000D02*
X181605000Y-104395000D01*
X186511500Y-97888500D02*
X186700000Y-97700000D01*
%TO.N,/GPIO11*%
X181500000Y-106935000D02*
X187250000Y-101185000D01*
X187250000Y-101185000D02*
X187250000Y-98100000D01*
%TO.N,/GPIO12*%
X181500000Y-109475000D02*
X183400000Y-107575000D01*
X183400000Y-107575000D02*
X183400000Y-105600000D01*
X183400000Y-105600000D02*
X188087500Y-100912500D01*
X188087500Y-100912500D02*
X188087500Y-98937500D01*
%TO.N,/GPIO13*%
X188487500Y-98937500D02*
X188487500Y-101078186D01*
X183800000Y-109715000D02*
X181500000Y-112015000D01*
X183800000Y-105765686D02*
X183800000Y-109715000D01*
X188487500Y-101078186D02*
X183800000Y-105765686D01*
%TO.N,/GPIO14*%
X184200000Y-114395000D02*
X181500000Y-117095000D01*
X188887500Y-101409265D02*
X184200000Y-106096765D01*
X184200000Y-106096765D02*
X184200000Y-114395000D01*
X188887500Y-98937500D02*
X188887500Y-101409265D01*
%TO.N,/GPIO15*%
X189287500Y-101574950D02*
X184600000Y-106262450D01*
X184600000Y-106262450D02*
X184600000Y-116535000D01*
X189287500Y-98937500D02*
X189287500Y-101574950D01*
X184600000Y-116535000D02*
X181500000Y-119635000D01*
%TO.N,+1V1*%
X192284274Y-92801000D02*
X192487500Y-92597774D01*
X191287500Y-98312500D02*
X192199000Y-97401000D01*
X192487500Y-92597774D02*
X192487500Y-92062500D01*
X190690726Y-92801000D02*
X192284274Y-92801000D01*
X192199000Y-97401000D02*
X192588500Y-97401000D01*
X192588500Y-97401000D02*
X192800000Y-97612500D01*
X192800000Y-97612500D02*
X192800000Y-97724671D01*
X192588500Y-97401000D02*
X192588500Y-93105226D01*
X191287500Y-98937500D02*
X191287500Y-98312500D01*
X190487500Y-92062500D02*
X190487500Y-92595774D01*
X192588500Y-93105226D02*
X192284274Y-92801000D01*
X190487500Y-92595774D02*
X190486500Y-92596774D01*
X190486500Y-92596774D02*
X190690726Y-92801000D01*
%TO.N,/GPIO16*%
X196200000Y-105600000D02*
X196200000Y-116335000D01*
X192887500Y-102287500D02*
X196200000Y-105600000D01*
X196200000Y-116335000D02*
X199500000Y-119635000D01*
X192887500Y-98937500D02*
X192887500Y-102287500D01*
%TO.N,/GPIO17*%
X196600000Y-114195000D02*
X196600000Y-102250000D01*
X199500000Y-117095000D02*
X196600000Y-114195000D01*
X196600000Y-102250000D02*
X193287500Y-98937500D01*
%TO.N,/GPIO18*%
X194125000Y-98100000D02*
X197000000Y-100975000D01*
X197000000Y-109515000D02*
X199500000Y-112015000D01*
X197000000Y-100975000D02*
X197000000Y-109515000D01*
%TO.N,/GPIO19*%
X197400000Y-107375000D02*
X199500000Y-109475000D01*
X194125000Y-97700000D02*
X196100000Y-97700000D01*
X197400000Y-99000000D02*
X197400000Y-107375000D01*
X196100000Y-97700000D02*
X197400000Y-99000000D01*
%TO.N,/GPIO20*%
X196300000Y-97300000D02*
X197800000Y-98800000D01*
X194125000Y-97300000D02*
X196300000Y-97300000D01*
X197800000Y-98800000D02*
X197800000Y-105235000D01*
X197800000Y-105235000D02*
X199500000Y-106935000D01*
%TO.N,/GPIO21*%
X198200000Y-103095000D02*
X198200000Y-98600000D01*
X196500000Y-96900000D02*
X194125000Y-96900000D01*
X199500000Y-104395000D02*
X198200000Y-103095000D01*
X198200000Y-98600000D02*
X196500000Y-96900000D01*
%TO.N,/GPIO22*%
X196285000Y-96100000D02*
X199500000Y-99315000D01*
X194125000Y-96100000D02*
X196285000Y-96100000D01*
%TO.N,/GPIO23*%
X199500000Y-96775000D02*
X198425000Y-95700000D01*
X198425000Y-95700000D02*
X194125000Y-95700000D01*
%TO.N,/GPIO24*%
X194125000Y-95300000D02*
X198435000Y-95300000D01*
X198435000Y-95300000D02*
X199500000Y-94235000D01*
%TO.N,/GPIO25*%
X196295000Y-94900000D02*
X199500000Y-91695000D01*
X194125000Y-94900000D02*
X196295000Y-94900000D01*
%TO.N,/GPIO26_ADC0*%
X197200000Y-92600000D02*
X197200000Y-88915000D01*
X194125000Y-94500000D02*
X195300000Y-94500000D01*
X197200000Y-88915000D02*
X199500000Y-86615000D01*
X195300000Y-94500000D02*
X197200000Y-92600000D01*
%TO.N,/GPIO27_ADC1*%
X195101414Y-94100000D02*
X194125000Y-94100000D01*
X199500000Y-84075000D02*
X196601000Y-86974000D01*
X196601000Y-92600414D02*
X195101414Y-94100000D01*
X196601000Y-86974000D02*
X196601000Y-92600414D01*
%TO.N,/GPIO28_ADC2*%
X194935728Y-93700000D02*
X194125000Y-93700000D01*
X196200000Y-92435728D02*
X194935728Y-93700000D01*
X199500000Y-78995000D02*
X196200000Y-82295000D01*
X196200000Y-82295000D02*
X196200000Y-92435728D01*
%TO.N,/GPIO29_ADC3*%
X194125000Y-93300000D02*
X194700000Y-93300000D01*
X194700000Y-93300000D02*
X195800000Y-92200000D01*
X195800000Y-77615000D02*
X199500000Y-73915000D01*
X195800000Y-92200000D02*
X195800000Y-77615000D01*
%TO.N,Net-(U1-USB_DP)*%
X191687500Y-92062500D02*
X191687500Y-81197500D01*
X191687500Y-81197500D02*
X190000000Y-79510000D01*
%TO.N,/QSPI_SD3*%
X190087500Y-91150000D02*
X190287500Y-90950000D01*
X190087500Y-92062500D02*
X190087500Y-91150000D01*
%TO.N,/QSPI_SCLK*%
X189687500Y-90440799D02*
X189964568Y-90163731D01*
X189687500Y-92062500D02*
X189687500Y-90440799D01*
%TO.N,/QSPI_SD0*%
X189287500Y-92062500D02*
X189287500Y-89962500D01*
X189287500Y-89962500D02*
X190000000Y-89250000D01*
%TO.N,/QSPI_SD2*%
X189500000Y-88830761D02*
X189500000Y-88500000D01*
X188887500Y-92062500D02*
X188887500Y-89443261D01*
X188887500Y-89443261D02*
X189500000Y-88830761D01*
%TO.N,/QSPI_SD1*%
X188487500Y-92062500D02*
X188487500Y-88762500D01*
X188487500Y-88762500D02*
X188500000Y-88750000D01*
%TO.N,Net-(C5-Pad2)*%
X186680000Y-116360000D02*
X186720000Y-116400000D01*
X186680000Y-115110000D02*
X186680000Y-116360000D01*
%TD*%
%TA.AperFunction,Conductor*%
%TO.N,GND*%
G36*
X188057004Y-97196701D02*
G01*
X188445814Y-97585511D01*
X188445813Y-97585511D01*
X188501763Y-97641460D01*
X188570281Y-97681019D01*
X188570285Y-97681021D01*
X188646709Y-97701499D01*
X188646711Y-97701500D01*
X188646712Y-97701500D01*
X188725836Y-97701500D01*
X189835521Y-97701500D01*
X189893712Y-97720407D01*
X189905525Y-97730496D01*
X190321316Y-98146287D01*
X190349093Y-98200804D01*
X190339522Y-98261236D01*
X190296257Y-98304501D01*
X190235825Y-98314072D01*
X190231998Y-98313389D01*
X190162176Y-98299500D01*
X190162174Y-98299500D01*
X190012826Y-98299500D01*
X190012825Y-98299500D01*
X190012815Y-98299501D01*
X189939763Y-98314033D01*
X189939757Y-98314035D01*
X189856900Y-98369397D01*
X189856897Y-98369400D01*
X189801535Y-98452257D01*
X189801533Y-98452263D01*
X189787001Y-98525315D01*
X189787000Y-98525327D01*
X189787000Y-102206617D01*
X189768093Y-102264808D01*
X189729840Y-102296341D01*
X189621686Y-102346774D01*
X189536774Y-102431686D01*
X189486029Y-102540510D01*
X189486028Y-102540511D01*
X189479500Y-102590100D01*
X189479500Y-103009896D01*
X189479501Y-103009907D01*
X189486027Y-103059486D01*
X189486027Y-103059488D01*
X189536774Y-103168313D01*
X189536775Y-103168314D01*
X189536776Y-103168316D01*
X189621684Y-103253224D01*
X189729842Y-103303659D01*
X189774587Y-103345384D01*
X189787000Y-103393381D01*
X189787000Y-104697021D01*
X189768093Y-104755212D01*
X189758004Y-104767025D01*
X189404525Y-105120504D01*
X189350008Y-105148281D01*
X189334521Y-105149500D01*
X188495725Y-105149500D01*
X188465305Y-105152353D01*
X188465301Y-105152354D01*
X188402736Y-105174246D01*
X188341566Y-105175618D01*
X188291272Y-105140773D01*
X188271064Y-105083021D01*
X188284304Y-105031299D01*
X188289558Y-105022198D01*
X188291698Y-105018492D01*
X188325806Y-104891198D01*
X188325806Y-104759414D01*
X188291698Y-104632120D01*
X188291696Y-104632117D01*
X188291696Y-104632115D01*
X188225809Y-104517996D01*
X188225807Y-104517994D01*
X188225806Y-104517992D01*
X188132620Y-104424806D01*
X188132617Y-104424804D01*
X188132615Y-104424802D01*
X188018495Y-104358915D01*
X188018497Y-104358915D01*
X187969105Y-104345681D01*
X187891198Y-104324806D01*
X187759414Y-104324806D01*
X187681506Y-104345681D01*
X187632115Y-104358915D01*
X187517996Y-104424802D01*
X187424802Y-104517996D01*
X187358915Y-104632115D01*
X187324806Y-104759415D01*
X187324806Y-104859826D01*
X187305899Y-104918017D01*
X187295810Y-104929830D01*
X186415489Y-105810152D01*
X186415488Y-105810151D01*
X186359539Y-105866101D01*
X186319980Y-105934619D01*
X186319978Y-105934623D01*
X186299500Y-106011047D01*
X186299500Y-108175604D01*
X186280593Y-108233795D01*
X186242341Y-108265328D01*
X186219598Y-108275933D01*
X186135933Y-108359598D01*
X186085932Y-108466824D01*
X186085932Y-108466825D01*
X186079500Y-108515685D01*
X186079500Y-108864314D01*
X186085932Y-108913174D01*
X186085932Y-108913175D01*
X186135933Y-109020401D01*
X186135934Y-109020402D01*
X186135935Y-109020404D01*
X186219596Y-109104065D01*
X186219597Y-109104065D01*
X186219598Y-109104066D01*
X186232915Y-109110276D01*
X186277663Y-109152005D01*
X186289337Y-109212066D01*
X186263478Y-109267518D01*
X186232915Y-109289724D01*
X186219598Y-109295933D01*
X186135933Y-109379598D01*
X186085932Y-109486824D01*
X186085932Y-109486825D01*
X186079500Y-109535685D01*
X186079500Y-109884314D01*
X186085932Y-109933174D01*
X186085932Y-109933175D01*
X186135933Y-110040401D01*
X186135934Y-110040402D01*
X186135935Y-110040404D01*
X186219596Y-110124065D01*
X186219597Y-110124065D01*
X186219599Y-110124067D01*
X186226691Y-110129033D01*
X186224598Y-110132022D01*
X186257281Y-110162488D01*
X186268967Y-110222547D01*
X186243120Y-110278004D01*
X186189611Y-110307678D01*
X186170703Y-110309500D01*
X185848479Y-110309500D01*
X185848476Y-110309501D01*
X185754700Y-110324352D01*
X185754695Y-110324354D01*
X185641659Y-110381949D01*
X185551949Y-110471659D01*
X185494354Y-110584695D01*
X185479500Y-110678477D01*
X185479500Y-111141520D01*
X185479501Y-111141523D01*
X185494352Y-111235299D01*
X185494354Y-111235304D01*
X185551950Y-111348342D01*
X185641658Y-111438050D01*
X185754696Y-111495646D01*
X185848481Y-111510500D01*
X187511518Y-111510499D01*
X187511521Y-111510499D01*
X187511522Y-111510498D01*
X187558411Y-111503072D01*
X187605299Y-111495647D01*
X187605299Y-111495646D01*
X187605304Y-111495646D01*
X187718342Y-111438050D01*
X187808050Y-111348342D01*
X187865646Y-111235304D01*
X187880500Y-111141519D01*
X187880499Y-110678482D01*
X187865646Y-110584696D01*
X187808050Y-110471658D01*
X187718342Y-110381950D01*
X187605304Y-110324354D01*
X187605305Y-110324354D01*
X187511522Y-110309500D01*
X187511519Y-110309500D01*
X187029297Y-110309500D01*
X186971106Y-110290593D01*
X186935142Y-110241093D01*
X186935142Y-110179907D01*
X186971106Y-110130407D01*
X186973347Y-110129087D01*
X186973309Y-110129033D01*
X186980400Y-110124067D01*
X186980400Y-110124066D01*
X186980404Y-110124065D01*
X187064065Y-110040404D01*
X187114068Y-109933173D01*
X187120500Y-109884316D01*
X187120500Y-109535684D01*
X187114068Y-109486827D01*
X187082684Y-109419525D01*
X187064066Y-109379598D01*
X187064065Y-109379597D01*
X187064065Y-109379596D01*
X186980404Y-109295935D01*
X186967085Y-109289724D01*
X186922337Y-109247997D01*
X186910662Y-109187936D01*
X186936519Y-109132483D01*
X186967084Y-109110275D01*
X186980404Y-109104065D01*
X187064065Y-109020404D01*
X187114068Y-108913173D01*
X187120500Y-108864316D01*
X187120500Y-108515684D01*
X187114068Y-108466827D01*
X187113155Y-108464870D01*
X187064066Y-108359598D01*
X187064065Y-108359597D01*
X187064065Y-108359596D01*
X186980404Y-108275935D01*
X186980402Y-108275934D01*
X186980401Y-108275933D01*
X186957659Y-108265328D01*
X186912912Y-108223598D01*
X186900500Y-108175604D01*
X186900500Y-106216090D01*
X186919407Y-106157899D01*
X186929490Y-106146092D01*
X187720780Y-105354801D01*
X187775297Y-105327025D01*
X187790784Y-105325806D01*
X187891196Y-105325806D01*
X187891198Y-105325806D01*
X188016435Y-105292249D01*
X188077535Y-105295452D01*
X188125084Y-105333957D01*
X188140920Y-105393057D01*
X188135500Y-105420574D01*
X188102355Y-105515296D01*
X188102353Y-105515305D01*
X188099500Y-105545725D01*
X188099500Y-106354274D01*
X188102353Y-106384694D01*
X188102355Y-106384703D01*
X188147207Y-106512883D01*
X188227845Y-106622144D01*
X188227847Y-106622146D01*
X188227850Y-106622150D01*
X188227853Y-106622152D01*
X188227855Y-106622154D01*
X188337116Y-106702792D01*
X188337117Y-106702792D01*
X188337118Y-106702793D01*
X188465301Y-106747646D01*
X188495725Y-106750499D01*
X188495727Y-106750500D01*
X188495734Y-106750500D01*
X189504273Y-106750500D01*
X189504273Y-106750499D01*
X189534699Y-106747646D01*
X189662882Y-106702793D01*
X189772150Y-106622150D01*
X189852793Y-106512882D01*
X189897646Y-106384699D01*
X189900499Y-106354273D01*
X189900500Y-106354273D01*
X189900500Y-105545727D01*
X189900499Y-105545725D01*
X189898736Y-105526919D01*
X189912126Y-105467217D01*
X189927300Y-105447670D01*
X190100441Y-105274529D01*
X190327960Y-105047011D01*
X190352965Y-105003699D01*
X190398434Y-104962760D01*
X190459284Y-104956364D01*
X190497489Y-104973546D01*
X190537116Y-105002792D01*
X190537117Y-105002792D01*
X190537118Y-105002793D01*
X190665301Y-105047646D01*
X190695725Y-105050499D01*
X190695727Y-105050500D01*
X190695734Y-105050500D01*
X191704273Y-105050500D01*
X191704273Y-105050499D01*
X191734699Y-105047646D01*
X191796400Y-105026056D01*
X191829098Y-105020500D01*
X192268761Y-105020500D01*
X192326952Y-105039407D01*
X192340078Y-105052764D01*
X192340652Y-105052191D01*
X192346775Y-105058314D01*
X192346776Y-105058316D01*
X192431684Y-105143224D01*
X192540513Y-105193972D01*
X192590099Y-105200500D01*
X193009900Y-105200499D01*
X193059487Y-105193972D01*
X193059488Y-105193972D01*
X193118137Y-105166622D01*
X193168316Y-105143224D01*
X193253224Y-105058316D01*
X193303972Y-104949487D01*
X193310500Y-104899901D01*
X193310499Y-104540100D01*
X193303972Y-104490513D01*
X193303972Y-104490511D01*
X193253225Y-104381686D01*
X193253224Y-104381685D01*
X193253224Y-104381684D01*
X193168316Y-104296776D01*
X193168314Y-104296775D01*
X193168313Y-104296774D01*
X193059489Y-104246029D01*
X193059488Y-104246028D01*
X193048486Y-104244579D01*
X193029678Y-104242103D01*
X192974454Y-104215763D01*
X192945259Y-104161992D01*
X192946973Y-104118334D01*
X192972553Y-104022870D01*
X192972553Y-103891086D01*
X192938445Y-103763792D01*
X192938443Y-103763789D01*
X192938443Y-103763787D01*
X192872556Y-103649668D01*
X192872554Y-103649666D01*
X192872553Y-103649664D01*
X192801547Y-103578658D01*
X192797922Y-103571543D01*
X192791460Y-103566848D01*
X192784296Y-103544799D01*
X192773772Y-103524144D01*
X192772553Y-103508657D01*
X192772553Y-103402217D01*
X192791460Y-103344026D01*
X192840960Y-103308062D01*
X192902146Y-103308062D01*
X192941557Y-103332213D01*
X194070504Y-104461160D01*
X194098281Y-104515677D01*
X194099500Y-104531164D01*
X194099500Y-105033075D01*
X194080593Y-105091266D01*
X194031093Y-105127230D01*
X193974878Y-105128702D01*
X193907053Y-105110529D01*
X193865892Y-105099500D01*
X193734108Y-105099500D01*
X193656200Y-105120375D01*
X193606809Y-105133609D01*
X193492690Y-105199496D01*
X193399496Y-105292690D01*
X193333609Y-105406809D01*
X193333608Y-105406814D01*
X193299500Y-105534108D01*
X193299500Y-105665892D01*
X193307427Y-105695475D01*
X193333609Y-105793190D01*
X193399496Y-105907309D01*
X193399498Y-105907311D01*
X193399500Y-105907314D01*
X193470505Y-105978319D01*
X193498281Y-106032834D01*
X193499500Y-106048321D01*
X193499500Y-106924521D01*
X193497031Y-106932118D01*
X193498281Y-106940008D01*
X193487756Y-106960663D01*
X193480593Y-106982712D01*
X193470504Y-106994525D01*
X193414525Y-107050504D01*
X193360008Y-107078281D01*
X193344521Y-107079500D01*
X193115684Y-107079500D01*
X193099398Y-107081644D01*
X193066825Y-107085932D01*
X193066824Y-107085932D01*
X192959598Y-107135933D01*
X192875933Y-107219598D01*
X192825932Y-107326824D01*
X192825932Y-107326825D01*
X192819500Y-107375685D01*
X192819500Y-107824314D01*
X192825932Y-107873174D01*
X192825932Y-107873175D01*
X192875933Y-107980401D01*
X192875934Y-107980402D01*
X192875935Y-107980404D01*
X192959596Y-108064065D01*
X192959597Y-108064065D01*
X192959598Y-108064066D01*
X193066824Y-108114067D01*
X193066825Y-108114067D01*
X193066827Y-108114068D01*
X193115684Y-108120500D01*
X193115685Y-108120500D01*
X193464314Y-108120500D01*
X193464316Y-108120500D01*
X193513173Y-108114068D01*
X193620404Y-108064065D01*
X193704065Y-107980404D01*
X193710275Y-107967085D01*
X193752003Y-107922337D01*
X193812064Y-107910662D01*
X193867517Y-107936519D01*
X193889724Y-107967084D01*
X193895935Y-107980404D01*
X193979596Y-108064065D01*
X193979597Y-108064065D01*
X193979598Y-108064066D01*
X194034359Y-108089602D01*
X194079107Y-108131330D01*
X194090781Y-108191392D01*
X194064923Y-108246844D01*
X194034359Y-108269050D01*
X194019599Y-108275932D01*
X193935933Y-108359598D01*
X193885932Y-108466824D01*
X193885932Y-108466825D01*
X193879500Y-108515685D01*
X193879500Y-108864314D01*
X193885932Y-108913174D01*
X193885932Y-108913175D01*
X193935933Y-109020401D01*
X193935934Y-109020402D01*
X193935935Y-109020404D01*
X194019596Y-109104065D01*
X194019597Y-109104065D01*
X194019598Y-109104066D01*
X194032915Y-109110276D01*
X194077663Y-109152005D01*
X194089337Y-109212066D01*
X194063478Y-109267518D01*
X194032915Y-109289724D01*
X194019598Y-109295933D01*
X193935933Y-109379598D01*
X193885932Y-109486824D01*
X193885932Y-109486825D01*
X193879500Y-109535685D01*
X193879500Y-109884314D01*
X193885932Y-109933174D01*
X193885932Y-109933175D01*
X193935933Y-110040401D01*
X193935934Y-110040402D01*
X193935935Y-110040404D01*
X194019596Y-110124065D01*
X194019597Y-110124065D01*
X194019599Y-110124067D01*
X194026691Y-110129033D01*
X194024598Y-110132022D01*
X194057281Y-110162488D01*
X194068967Y-110222547D01*
X194043120Y-110278004D01*
X193989611Y-110307678D01*
X193970703Y-110309500D01*
X193568479Y-110309500D01*
X193568476Y-110309501D01*
X193474700Y-110324352D01*
X193474695Y-110324354D01*
X193361659Y-110381949D01*
X193271949Y-110471659D01*
X193214354Y-110584695D01*
X193199500Y-110678477D01*
X193199500Y-111141520D01*
X193199501Y-111141523D01*
X193214352Y-111235299D01*
X193214354Y-111235304D01*
X193271950Y-111348342D01*
X193361658Y-111438050D01*
X193474696Y-111495646D01*
X193568481Y-111510500D01*
X195231518Y-111510499D01*
X195231521Y-111510499D01*
X195231522Y-111510498D01*
X195278411Y-111503072D01*
X195325299Y-111495647D01*
X195325299Y-111495646D01*
X195325304Y-111495646D01*
X195438342Y-111438050D01*
X195528050Y-111348342D01*
X195585646Y-111235304D01*
X195600500Y-111141519D01*
X195600499Y-110678482D01*
X195585646Y-110584696D01*
X195528050Y-110471658D01*
X195438342Y-110381950D01*
X195325304Y-110324354D01*
X195325305Y-110324354D01*
X195231522Y-110309500D01*
X195231519Y-110309500D01*
X194829297Y-110309500D01*
X194771106Y-110290593D01*
X194735142Y-110241093D01*
X194735142Y-110179907D01*
X194771106Y-110130407D01*
X194773347Y-110129087D01*
X194773309Y-110129033D01*
X194780400Y-110124067D01*
X194780400Y-110124066D01*
X194780404Y-110124065D01*
X194864065Y-110040404D01*
X194914068Y-109933173D01*
X194920500Y-109884316D01*
X194920500Y-109535684D01*
X194914068Y-109486827D01*
X194882684Y-109419525D01*
X194864066Y-109379598D01*
X194864065Y-109379597D01*
X194864065Y-109379596D01*
X194780404Y-109295935D01*
X194767085Y-109289724D01*
X194722337Y-109247997D01*
X194710662Y-109187936D01*
X194736519Y-109132483D01*
X194767084Y-109110275D01*
X194780404Y-109104065D01*
X194864065Y-109020404D01*
X194914068Y-108913173D01*
X194920500Y-108864316D01*
X194920500Y-108515684D01*
X194914068Y-108466827D01*
X194913155Y-108464870D01*
X194864066Y-108359598D01*
X194864065Y-108359597D01*
X194864065Y-108359596D01*
X194780404Y-108275935D01*
X194780402Y-108275934D01*
X194780401Y-108275933D01*
X194757659Y-108265328D01*
X194739500Y-108248393D01*
X194719407Y-108233795D01*
X194717477Y-108227855D01*
X194712912Y-108223598D01*
X194700500Y-108175604D01*
X194700500Y-108044976D01*
X194719160Y-107987543D01*
X194719097Y-107987499D01*
X194719242Y-107987291D01*
X194719407Y-107986785D01*
X194720461Y-107985550D01*
X194724061Y-107980407D01*
X194724065Y-107980404D01*
X194774068Y-107873173D01*
X194780500Y-107824316D01*
X194780500Y-107375684D01*
X194774068Y-107326827D01*
X194738489Y-107250529D01*
X194724066Y-107219598D01*
X194719097Y-107212501D01*
X194722049Y-107210433D01*
X194701708Y-107170440D01*
X194700500Y-107155023D01*
X194700500Y-104764479D01*
X194719407Y-104706288D01*
X194768907Y-104670324D01*
X194830093Y-104670324D01*
X194869504Y-104694475D01*
X195870504Y-105695475D01*
X195898281Y-105749992D01*
X195899500Y-105765479D01*
X195899500Y-116374564D01*
X195919977Y-116450985D01*
X195919978Y-116450987D01*
X195919979Y-116450989D01*
X195934412Y-116475988D01*
X195959540Y-116519511D01*
X197252494Y-117812465D01*
X198524736Y-119084707D01*
X198552513Y-119139224D01*
X198546196Y-119192596D01*
X198489870Y-119328578D01*
X198489870Y-119328580D01*
X198449500Y-119531532D01*
X198449500Y-119738467D01*
X198489869Y-119941418D01*
X198569058Y-120132597D01*
X198569059Y-120132598D01*
X198684023Y-120304655D01*
X198709866Y-120330498D01*
X198737642Y-120385013D01*
X198728071Y-120445445D01*
X198684806Y-120488710D01*
X198639861Y-120499500D01*
X193900139Y-120499500D01*
X193841948Y-120480593D01*
X193805984Y-120431093D01*
X193805984Y-120369907D01*
X193830133Y-120330498D01*
X193855977Y-120304655D01*
X193970941Y-120132598D01*
X194050130Y-119941420D01*
X194090500Y-119738465D01*
X194090500Y-119531535D01*
X194050130Y-119328580D01*
X193970941Y-119137402D01*
X193855977Y-118965345D01*
X193709655Y-118819023D01*
X193629182Y-118765253D01*
X193537597Y-118704058D01*
X193346418Y-118624869D01*
X193143467Y-118584500D01*
X193143465Y-118584500D01*
X192936535Y-118584500D01*
X192936532Y-118584500D01*
X192733581Y-118624869D01*
X192542402Y-118704058D01*
X192370348Y-118819020D01*
X192224020Y-118965348D01*
X192109058Y-119137402D01*
X192029869Y-119328581D01*
X191989500Y-119531532D01*
X191989500Y-119738467D01*
X192029869Y-119941418D01*
X192109058Y-120132597D01*
X192109059Y-120132598D01*
X192224023Y-120304655D01*
X192249866Y-120330498D01*
X192277642Y-120385013D01*
X192268071Y-120445445D01*
X192224806Y-120488710D01*
X192179861Y-120499500D01*
X191264085Y-120499500D01*
X191205894Y-120480593D01*
X191194081Y-120470504D01*
X190776366Y-120052789D01*
X190807007Y-120035099D01*
X190900099Y-119942007D01*
X190917789Y-119911366D01*
X191307923Y-120301500D01*
X191317484Y-120301500D01*
X191430495Y-120132366D01*
X191430498Y-120132360D01*
X191509650Y-119941272D01*
X191549999Y-119738418D01*
X191550000Y-119738413D01*
X191550000Y-119531586D01*
X191549999Y-119531581D01*
X191509650Y-119328727D01*
X191430498Y-119137639D01*
X191430491Y-119137625D01*
X191315594Y-118965670D01*
X191313173Y-118963249D01*
X190917788Y-119358632D01*
X190900099Y-119327993D01*
X190807007Y-119234901D01*
X190776365Y-119217210D01*
X191171750Y-118821826D01*
X191169329Y-118819405D01*
X190997374Y-118704508D01*
X190997360Y-118704501D01*
X190806272Y-118625349D01*
X190603418Y-118585000D01*
X190396581Y-118585000D01*
X190193727Y-118625349D01*
X190002639Y-118704501D01*
X190002630Y-118704505D01*
X189830665Y-118819410D01*
X189828248Y-118821825D01*
X190223633Y-119217210D01*
X190192993Y-119234901D01*
X190099901Y-119327993D01*
X190082210Y-119358633D01*
X189686825Y-118963248D01*
X189684410Y-118965665D01*
X189569505Y-119137630D01*
X189569501Y-119137639D01*
X189490349Y-119328727D01*
X189450000Y-119531581D01*
X189450000Y-119738418D01*
X189490349Y-119941272D01*
X189569501Y-120132360D01*
X189569508Y-120132374D01*
X189684405Y-120304329D01*
X189686826Y-120306750D01*
X190082210Y-119911365D01*
X190099901Y-119942007D01*
X190192993Y-120035099D01*
X190223632Y-120052788D01*
X189805918Y-120470504D01*
X189798800Y-120474130D01*
X189794105Y-120480593D01*
X189772056Y-120487756D01*
X189751401Y-120498281D01*
X189735914Y-120499500D01*
X189733084Y-120499500D01*
X189689035Y-120485187D01*
X189685513Y-120488710D01*
X189640568Y-120499500D01*
X189109500Y-120499500D01*
X189051309Y-120480593D01*
X189015345Y-120431093D01*
X189010500Y-120400500D01*
X189010500Y-118765253D01*
X189010498Y-118765241D01*
X189007711Y-118751231D01*
X188998867Y-118706769D01*
X188954552Y-118640448D01*
X188954548Y-118640445D01*
X188888233Y-118596134D01*
X188888231Y-118596133D01*
X188888228Y-118596132D01*
X188888227Y-118596132D01*
X188829758Y-118584501D01*
X188829748Y-118584500D01*
X187090252Y-118584500D01*
X187090251Y-118584500D01*
X187090241Y-118584501D01*
X187031772Y-118596132D01*
X187031766Y-118596134D01*
X186965451Y-118640445D01*
X186965445Y-118640451D01*
X186921134Y-118706766D01*
X186921132Y-118706772D01*
X186909501Y-118765241D01*
X186909500Y-118765253D01*
X186909500Y-120400500D01*
X186890593Y-120458691D01*
X186841093Y-120494655D01*
X186810500Y-120499500D01*
X182360139Y-120499500D01*
X182301948Y-120480593D01*
X182265984Y-120431093D01*
X182265984Y-120369907D01*
X182290133Y-120330498D01*
X182315977Y-120304655D01*
X182430941Y-120132598D01*
X182510130Y-119941420D01*
X182550500Y-119738465D01*
X182550500Y-119531535D01*
X182510130Y-119328580D01*
X182453802Y-119192595D01*
X182449002Y-119131599D01*
X182475261Y-119084708D01*
X184840460Y-116719511D01*
X184863259Y-116680022D01*
X184880021Y-116650989D01*
X184900500Y-116574562D01*
X184900500Y-114878477D01*
X185479500Y-114878477D01*
X185479500Y-115341520D01*
X185479501Y-115341523D01*
X185494352Y-115435299D01*
X185494354Y-115435304D01*
X185551950Y-115548342D01*
X185641658Y-115638050D01*
X185754696Y-115695646D01*
X185848481Y-115710500D01*
X186280500Y-115710499D01*
X186295412Y-115715344D01*
X186311093Y-115715344D01*
X186323778Y-115724560D01*
X186338691Y-115729406D01*
X186347907Y-115742091D01*
X186360593Y-115751308D01*
X186365438Y-115766220D01*
X186374655Y-115778906D01*
X186379500Y-115809499D01*
X186379500Y-115907952D01*
X186360593Y-115966143D01*
X186350504Y-115977955D01*
X186296776Y-116031683D01*
X186296774Y-116031686D01*
X186246029Y-116140510D01*
X186246028Y-116140511D01*
X186239500Y-116190100D01*
X186239500Y-116609896D01*
X186239501Y-116609907D01*
X186246027Y-116659486D01*
X186246027Y-116659488D01*
X186296774Y-116768313D01*
X186296775Y-116768314D01*
X186296776Y-116768316D01*
X186381684Y-116853224D01*
X186490513Y-116903972D01*
X186540099Y-116910500D01*
X186899900Y-116910499D01*
X186949487Y-116903972D01*
X186949488Y-116903972D01*
X187008137Y-116876622D01*
X187058316Y-116853224D01*
X187143224Y-116768316D01*
X187193972Y-116659487D01*
X187200500Y-116609901D01*
X187200499Y-116190100D01*
X187193972Y-116140513D01*
X187193972Y-116140511D01*
X187143225Y-116031686D01*
X187143224Y-116031685D01*
X187143224Y-116031684D01*
X187058316Y-115946776D01*
X187058314Y-115946775D01*
X187058312Y-115946773D01*
X187037660Y-115937143D01*
X187019501Y-115920209D01*
X186999407Y-115905610D01*
X186997477Y-115899671D01*
X186992912Y-115895414D01*
X186980500Y-115847419D01*
X186980500Y-115809499D01*
X186999407Y-115751308D01*
X187048907Y-115715344D01*
X187079500Y-115710499D01*
X187511521Y-115710499D01*
X187511522Y-115710498D01*
X187558411Y-115703072D01*
X187605299Y-115695647D01*
X187605299Y-115695646D01*
X187605304Y-115695646D01*
X187718342Y-115638050D01*
X187808050Y-115548342D01*
X187865646Y-115435304D01*
X187880500Y-115341519D01*
X187880499Y-114878482D01*
X187865646Y-114784696D01*
X187808050Y-114671658D01*
X187718342Y-114581950D01*
X187605304Y-114524354D01*
X187605305Y-114524354D01*
X187511521Y-114509500D01*
X185848478Y-114509500D01*
X185848476Y-114509501D01*
X185754700Y-114524352D01*
X185754695Y-114524354D01*
X185641659Y-114581949D01*
X185551949Y-114671659D01*
X185494354Y-114784695D01*
X185479500Y-114878477D01*
X184900500Y-114878477D01*
X184900500Y-106427928D01*
X184919407Y-106369737D01*
X184929490Y-106357930D01*
X189527960Y-101759461D01*
X189567521Y-101690939D01*
X189588000Y-101614512D01*
X189588000Y-98897938D01*
X189588000Y-98525326D01*
X189573466Y-98452260D01*
X189529171Y-98385966D01*
X189518102Y-98369400D01*
X189518099Y-98369397D01*
X189435242Y-98314035D01*
X189435240Y-98314034D01*
X189435237Y-98314033D01*
X189435236Y-98314033D01*
X189362184Y-98299501D01*
X189362174Y-98299500D01*
X189212826Y-98299500D01*
X189212825Y-98299500D01*
X189212815Y-98299501D01*
X189139763Y-98314033D01*
X189139761Y-98314033D01*
X189139760Y-98314034D01*
X189139759Y-98314034D01*
X189130751Y-98317766D01*
X189129916Y-98315751D01*
X189083612Y-98328811D01*
X189044886Y-98316227D01*
X189044249Y-98317766D01*
X189035242Y-98314035D01*
X189035240Y-98314034D01*
X189035236Y-98314033D01*
X188962184Y-98299501D01*
X188962174Y-98299500D01*
X188812826Y-98299500D01*
X188812825Y-98299500D01*
X188812815Y-98299501D01*
X188739763Y-98314033D01*
X188739761Y-98314033D01*
X188739760Y-98314034D01*
X188739759Y-98314034D01*
X188730751Y-98317766D01*
X188729916Y-98315751D01*
X188683612Y-98328811D01*
X188644886Y-98316227D01*
X188644249Y-98317766D01*
X188635242Y-98314035D01*
X188635240Y-98314034D01*
X188635236Y-98314033D01*
X188562184Y-98299501D01*
X188562174Y-98299500D01*
X188412826Y-98299500D01*
X188412825Y-98299500D01*
X188412815Y-98299501D01*
X188339763Y-98314033D01*
X188339761Y-98314033D01*
X188339760Y-98314034D01*
X188339759Y-98314034D01*
X188330751Y-98317766D01*
X188329916Y-98315751D01*
X188283612Y-98328811D01*
X188244886Y-98316227D01*
X188244249Y-98317766D01*
X188235242Y-98314035D01*
X188235240Y-98314034D01*
X188235236Y-98314033D01*
X188162184Y-98299501D01*
X188162174Y-98299500D01*
X188012826Y-98299500D01*
X188012820Y-98299500D01*
X188002321Y-98301589D01*
X187941560Y-98294397D01*
X187896630Y-98252863D01*
X187884694Y-98192854D01*
X187885907Y-98185195D01*
X187888000Y-98174674D01*
X187888000Y-98025326D01*
X187873466Y-97952260D01*
X187873462Y-97952255D01*
X187869733Y-97943248D01*
X187871748Y-97942413D01*
X187858689Y-97896120D01*
X187871273Y-97857389D01*
X187869733Y-97856752D01*
X187873461Y-97847746D01*
X187873466Y-97847740D01*
X187888000Y-97774674D01*
X187888000Y-97625326D01*
X187873466Y-97552260D01*
X187873462Y-97552255D01*
X187869733Y-97543248D01*
X187871748Y-97542413D01*
X187858689Y-97496120D01*
X187871273Y-97457389D01*
X187869733Y-97456752D01*
X187873461Y-97447746D01*
X187873466Y-97447740D01*
X187888000Y-97374674D01*
X187888000Y-97266705D01*
X187906907Y-97208514D01*
X187956407Y-97172550D01*
X188017593Y-97172550D01*
X188057004Y-97196701D01*
G37*
%TD.AperFunction*%
%TA.AperFunction,Conductor*%
G36*
X183845445Y-110191268D02*
G01*
X183888710Y-110234533D01*
X183899500Y-110279478D01*
X183899500Y-114229520D01*
X183880593Y-114287711D01*
X183870504Y-114299524D01*
X182050292Y-116119736D01*
X181995775Y-116147513D01*
X181942402Y-116141196D01*
X181806418Y-116084869D01*
X181603467Y-116044500D01*
X181603465Y-116044500D01*
X181396535Y-116044500D01*
X181396532Y-116044500D01*
X181193581Y-116084869D01*
X181002402Y-116164058D01*
X180830348Y-116279020D01*
X180684020Y-116425348D01*
X180681813Y-116428652D01*
X180633761Y-116466529D01*
X180572622Y-116468928D01*
X180521750Y-116434932D01*
X180500576Y-116377528D01*
X180500500Y-116373646D01*
X180500500Y-115275453D01*
X180519407Y-115217262D01*
X180568907Y-115181298D01*
X180630093Y-115181298D01*
X180679593Y-115217262D01*
X180681817Y-115220454D01*
X180684408Y-115224332D01*
X180686826Y-115226750D01*
X181082210Y-114831365D01*
X181099901Y-114862007D01*
X181192993Y-114955099D01*
X181223632Y-114972788D01*
X180828249Y-115368173D01*
X180830670Y-115370594D01*
X181002625Y-115485491D01*
X181002639Y-115485498D01*
X181193727Y-115564650D01*
X181396581Y-115604999D01*
X181396586Y-115605000D01*
X181603414Y-115605000D01*
X181603418Y-115604999D01*
X181806272Y-115564650D01*
X181997360Y-115485498D01*
X181997366Y-115485495D01*
X182169333Y-115370591D01*
X182171750Y-115368173D01*
X181776366Y-114972789D01*
X181807007Y-114955099D01*
X181900099Y-114862007D01*
X181917789Y-114831366D01*
X182313173Y-115226750D01*
X182315591Y-115224333D01*
X182430495Y-115052366D01*
X182430498Y-115052360D01*
X182509650Y-114861272D01*
X182549999Y-114658418D01*
X182550000Y-114658413D01*
X182550000Y-114451586D01*
X182549999Y-114451581D01*
X182509650Y-114248727D01*
X182430498Y-114057639D01*
X182430491Y-114057625D01*
X182315594Y-113885670D01*
X182313173Y-113883249D01*
X181917788Y-114278632D01*
X181900099Y-114247993D01*
X181807007Y-114154901D01*
X181776365Y-114137210D01*
X182171750Y-113741826D01*
X182169329Y-113739405D01*
X181997374Y-113624508D01*
X181997360Y-113624501D01*
X181806272Y-113545349D01*
X181603418Y-113505000D01*
X181396581Y-113505000D01*
X181193727Y-113545349D01*
X181002639Y-113624501D01*
X181002630Y-113624505D01*
X180830665Y-113739410D01*
X180828248Y-113741825D01*
X181223633Y-114137210D01*
X181192993Y-114154901D01*
X181099901Y-114247993D01*
X181082210Y-114278633D01*
X180686825Y-113883248D01*
X180684410Y-113885664D01*
X180681814Y-113889551D01*
X180680220Y-113890807D01*
X180679593Y-113892738D01*
X180656331Y-113909638D01*
X180633763Y-113927429D01*
X180631735Y-113927508D01*
X180630093Y-113928702D01*
X180601334Y-113928702D01*
X180572624Y-113929829D01*
X180570937Y-113928702D01*
X180568907Y-113928702D01*
X180545642Y-113911798D01*
X180521752Y-113895835D01*
X180521049Y-113893931D01*
X180519407Y-113892738D01*
X180510523Y-113865396D01*
X180500576Y-113838431D01*
X180500500Y-113834547D01*
X180500500Y-112736353D01*
X180519407Y-112678162D01*
X180568907Y-112642198D01*
X180630093Y-112642198D01*
X180679593Y-112678162D01*
X180681816Y-112681352D01*
X180684023Y-112684655D01*
X180830345Y-112830977D01*
X181002402Y-112945941D01*
X181193580Y-113025130D01*
X181396535Y-113065500D01*
X181396536Y-113065500D01*
X181603464Y-113065500D01*
X181603465Y-113065500D01*
X181806420Y-113025130D01*
X181997598Y-112945941D01*
X182169655Y-112830977D01*
X182315977Y-112684655D01*
X182430941Y-112512598D01*
X182510130Y-112321420D01*
X182550500Y-112118465D01*
X182550500Y-111911535D01*
X182510130Y-111708580D01*
X182453802Y-111572595D01*
X182449002Y-111511599D01*
X182475261Y-111464708D01*
X183730497Y-110209473D01*
X183785013Y-110181697D01*
X183845445Y-110191268D01*
G37*
%TD.AperFunction*%
%TA.AperFunction,Conductor*%
G36*
X197069504Y-110009475D02*
G01*
X198524736Y-111464707D01*
X198552513Y-111519224D01*
X198546196Y-111572596D01*
X198489870Y-111708578D01*
X198489870Y-111708580D01*
X198449500Y-111911532D01*
X198449500Y-112118467D01*
X198489869Y-112321418D01*
X198569058Y-112512597D01*
X198681816Y-112681352D01*
X198684023Y-112684655D01*
X198830345Y-112830977D01*
X199002402Y-112945941D01*
X199193580Y-113025130D01*
X199396535Y-113065500D01*
X199396536Y-113065500D01*
X199603464Y-113065500D01*
X199603465Y-113065500D01*
X199806420Y-113025130D01*
X199997598Y-112945941D01*
X200169655Y-112830977D01*
X200315977Y-112684655D01*
X200318184Y-112681352D01*
X200366233Y-112643472D01*
X200427372Y-112641070D01*
X200478246Y-112675062D01*
X200499424Y-112732465D01*
X200499500Y-112736353D01*
X200499500Y-113834546D01*
X200480593Y-113892737D01*
X200431093Y-113928701D01*
X200369907Y-113928701D01*
X200320407Y-113892737D01*
X200318186Y-113889550D01*
X200315591Y-113885667D01*
X200313173Y-113883249D01*
X199917788Y-114278632D01*
X199900099Y-114247993D01*
X199807007Y-114154901D01*
X199776365Y-114137210D01*
X200171750Y-113741826D01*
X200169329Y-113739405D01*
X199997374Y-113624508D01*
X199997360Y-113624501D01*
X199806272Y-113545349D01*
X199603418Y-113505000D01*
X199396581Y-113505000D01*
X199193727Y-113545349D01*
X199002639Y-113624501D01*
X199002630Y-113624505D01*
X198830665Y-113739410D01*
X198828248Y-113741825D01*
X199223633Y-114137210D01*
X199192993Y-114154901D01*
X199099901Y-114247993D01*
X199082210Y-114278633D01*
X198686825Y-113883248D01*
X198684410Y-113885665D01*
X198569505Y-114057630D01*
X198569501Y-114057639D01*
X198490349Y-114248727D01*
X198450000Y-114451581D01*
X198450000Y-114658418D01*
X198490349Y-114861272D01*
X198569501Y-115052360D01*
X198569508Y-115052374D01*
X198684405Y-115224329D01*
X198686826Y-115226750D01*
X199082210Y-114831365D01*
X199099901Y-114862007D01*
X199192993Y-114955099D01*
X199223632Y-114972788D01*
X198828249Y-115368173D01*
X198830670Y-115370594D01*
X199002625Y-115485491D01*
X199002639Y-115485498D01*
X199193727Y-115564650D01*
X199396581Y-115604999D01*
X199396586Y-115605000D01*
X199603414Y-115605000D01*
X199603418Y-115604999D01*
X199806272Y-115564650D01*
X199997360Y-115485498D01*
X199997366Y-115485495D01*
X200169333Y-115370591D01*
X200171750Y-115368173D01*
X199776366Y-114972789D01*
X199807007Y-114955099D01*
X199900099Y-114862007D01*
X199917789Y-114831366D01*
X200313173Y-115226750D01*
X200315589Y-115224335D01*
X200318181Y-115220456D01*
X200366229Y-115182574D01*
X200427367Y-115180168D01*
X200478243Y-115214158D01*
X200499423Y-115271561D01*
X200499500Y-115275453D01*
X200499500Y-116373646D01*
X200480593Y-116431837D01*
X200431093Y-116467801D01*
X200369907Y-116467801D01*
X200320407Y-116431837D01*
X200318187Y-116428652D01*
X200315979Y-116425348D01*
X200315977Y-116425345D01*
X200169655Y-116279023D01*
X200036576Y-116190103D01*
X199997597Y-116164058D01*
X199806418Y-116084869D01*
X199603467Y-116044500D01*
X199603465Y-116044500D01*
X199396535Y-116044500D01*
X199396532Y-116044500D01*
X199193580Y-116084870D01*
X199193578Y-116084870D01*
X199057596Y-116141196D01*
X198996600Y-116145997D01*
X198949707Y-116119736D01*
X196929496Y-114099525D01*
X196901719Y-114045008D01*
X196900500Y-114029521D01*
X196900500Y-110079479D01*
X196919407Y-110021288D01*
X196968907Y-109985324D01*
X197030093Y-109985324D01*
X197069504Y-110009475D01*
G37*
%TD.AperFunction*%
%TA.AperFunction,Conductor*%
G36*
X186156945Y-97930454D02*
G01*
X186200210Y-97973719D01*
X186211000Y-98018664D01*
X186211000Y-99323020D01*
X186192093Y-99381211D01*
X186182004Y-99393024D01*
X182123009Y-103452018D01*
X182068492Y-103479795D01*
X182008060Y-103470224D01*
X181998000Y-103464327D01*
X181997603Y-103464062D01*
X181997596Y-103464058D01*
X181806418Y-103384869D01*
X181603467Y-103344500D01*
X181603465Y-103344500D01*
X181396535Y-103344500D01*
X181396532Y-103344500D01*
X181193581Y-103384869D01*
X181002402Y-103464058D01*
X180830348Y-103579020D01*
X180684020Y-103725348D01*
X180681813Y-103728652D01*
X180633761Y-103766529D01*
X180572622Y-103768928D01*
X180521750Y-103734932D01*
X180500576Y-103677528D01*
X180500500Y-103673646D01*
X180500500Y-102575453D01*
X180519407Y-102517262D01*
X180568907Y-102481298D01*
X180630093Y-102481298D01*
X180679593Y-102517262D01*
X180681817Y-102520454D01*
X180684408Y-102524332D01*
X180686826Y-102526750D01*
X181082210Y-102131365D01*
X181099901Y-102162007D01*
X181192993Y-102255099D01*
X181223632Y-102272788D01*
X180828249Y-102668173D01*
X180830670Y-102670594D01*
X181002625Y-102785491D01*
X181002639Y-102785498D01*
X181193727Y-102864650D01*
X181396581Y-102904999D01*
X181396586Y-102905000D01*
X181603414Y-102905000D01*
X181603418Y-102904999D01*
X181806272Y-102864650D01*
X181997360Y-102785498D01*
X181997366Y-102785495D01*
X182169333Y-102670591D01*
X182171750Y-102668173D01*
X181776366Y-102272789D01*
X181807007Y-102255099D01*
X181900099Y-102162007D01*
X181917789Y-102131366D01*
X182313173Y-102526750D01*
X182315591Y-102524333D01*
X182430495Y-102352366D01*
X182430498Y-102352360D01*
X182509650Y-102161272D01*
X182549999Y-101958418D01*
X182550000Y-101958413D01*
X182550000Y-101751586D01*
X182549999Y-101751581D01*
X182509650Y-101548727D01*
X182430498Y-101357639D01*
X182430491Y-101357625D01*
X182315594Y-101185670D01*
X182313173Y-101183249D01*
X181917788Y-101578632D01*
X181900099Y-101547993D01*
X181807007Y-101454901D01*
X181776365Y-101437210D01*
X182171750Y-101041826D01*
X182169329Y-101039405D01*
X181997374Y-100924508D01*
X181997360Y-100924501D01*
X181806272Y-100845349D01*
X181603418Y-100805000D01*
X181396581Y-100805000D01*
X181193727Y-100845349D01*
X181002639Y-100924501D01*
X181002630Y-100924505D01*
X180830665Y-101039410D01*
X180828248Y-101041825D01*
X181223633Y-101437210D01*
X181192993Y-101454901D01*
X181099901Y-101547993D01*
X181082210Y-101578633D01*
X180686825Y-101183248D01*
X180684410Y-101185664D01*
X180681814Y-101189551D01*
X180680220Y-101190807D01*
X180679593Y-101192738D01*
X180656331Y-101209638D01*
X180633763Y-101227429D01*
X180631735Y-101227508D01*
X180630093Y-101228702D01*
X180601334Y-101228702D01*
X180572624Y-101229829D01*
X180570937Y-101228702D01*
X180568907Y-101228702D01*
X180545642Y-101211798D01*
X180521752Y-101195835D01*
X180521049Y-101193931D01*
X180519407Y-101192738D01*
X180510523Y-101165396D01*
X180500576Y-101138431D01*
X180500500Y-101134547D01*
X180500500Y-100036353D01*
X180519407Y-99978162D01*
X180568907Y-99942198D01*
X180630093Y-99942198D01*
X180679593Y-99978162D01*
X180681816Y-99981352D01*
X180684023Y-99984655D01*
X180830345Y-100130977D01*
X181002402Y-100245941D01*
X181193580Y-100325130D01*
X181396535Y-100365500D01*
X181396536Y-100365500D01*
X181603464Y-100365500D01*
X181603465Y-100365500D01*
X181806420Y-100325130D01*
X181997598Y-100245941D01*
X182169655Y-100130977D01*
X182315977Y-99984655D01*
X182430941Y-99812598D01*
X182487268Y-99676614D01*
X182527005Y-99630088D01*
X182578732Y-99615500D01*
X184290249Y-99615500D01*
X184290249Y-99615499D01*
X184366675Y-99595021D01*
X184435197Y-99555460D01*
X184491146Y-99499511D01*
X186041996Y-97948659D01*
X186096513Y-97920883D01*
X186156945Y-97930454D01*
G37*
%TD.AperFunction*%
%TA.AperFunction,Conductor*%
G36*
X199099901Y-102162007D02*
G01*
X199192993Y-102255099D01*
X199223632Y-102272788D01*
X198828249Y-102668173D01*
X198830670Y-102670594D01*
X199002625Y-102785491D01*
X199002639Y-102785498D01*
X199193727Y-102864650D01*
X199396581Y-102904999D01*
X199396586Y-102905000D01*
X199603414Y-102905000D01*
X199603418Y-102904999D01*
X199806272Y-102864650D01*
X199997360Y-102785498D01*
X199997366Y-102785495D01*
X200169333Y-102670591D01*
X200171750Y-102668173D01*
X199776366Y-102272789D01*
X199807007Y-102255099D01*
X199900099Y-102162007D01*
X199917789Y-102131366D01*
X200313173Y-102526750D01*
X200315589Y-102524335D01*
X200318181Y-102520456D01*
X200366229Y-102482574D01*
X200427367Y-102480168D01*
X200478243Y-102514158D01*
X200499423Y-102571561D01*
X200499500Y-102575453D01*
X200499500Y-103673646D01*
X200480593Y-103731837D01*
X200431093Y-103767801D01*
X200369907Y-103767801D01*
X200320407Y-103731837D01*
X200318187Y-103728652D01*
X200315979Y-103725348D01*
X200315977Y-103725345D01*
X200169655Y-103579023D01*
X200169651Y-103579020D01*
X199997597Y-103464058D01*
X199806418Y-103384869D01*
X199603467Y-103344500D01*
X199603465Y-103344500D01*
X199396535Y-103344500D01*
X199396532Y-103344500D01*
X199193580Y-103384870D01*
X199193578Y-103384870D01*
X199057596Y-103441196D01*
X198996600Y-103445997D01*
X198949707Y-103419736D01*
X198529496Y-102999525D01*
X198501719Y-102945008D01*
X198500500Y-102929521D01*
X198500500Y-102575453D01*
X198519407Y-102517262D01*
X198568907Y-102481298D01*
X198630093Y-102481298D01*
X198679593Y-102517262D01*
X198681817Y-102520454D01*
X198684408Y-102524332D01*
X198686826Y-102526750D01*
X199082210Y-102131365D01*
X199099901Y-102162007D01*
G37*
%TD.AperFunction*%
%TA.AperFunction,Conductor*%
G36*
X200478246Y-99975062D02*
G01*
X200499424Y-100032465D01*
X200499500Y-100036353D01*
X200499500Y-101134546D01*
X200480593Y-101192737D01*
X200431093Y-101228701D01*
X200369907Y-101228701D01*
X200320407Y-101192737D01*
X200318186Y-101189550D01*
X200315591Y-101185667D01*
X200313173Y-101183249D01*
X199917788Y-101578632D01*
X199900099Y-101547993D01*
X199807007Y-101454901D01*
X199776365Y-101437210D01*
X200171750Y-101041826D01*
X200169329Y-101039405D01*
X199997374Y-100924508D01*
X199997360Y-100924501D01*
X199806272Y-100845349D01*
X199603418Y-100805000D01*
X199396581Y-100805000D01*
X199193727Y-100845349D01*
X199002639Y-100924501D01*
X199002630Y-100924505D01*
X198830665Y-101039410D01*
X198828248Y-101041825D01*
X199223633Y-101437210D01*
X199192993Y-101454901D01*
X199099901Y-101547993D01*
X199082210Y-101578633D01*
X198686825Y-101183248D01*
X198684410Y-101185664D01*
X198681814Y-101189551D01*
X198680220Y-101190807D01*
X198679593Y-101192738D01*
X198656331Y-101209638D01*
X198633763Y-101227429D01*
X198631735Y-101227508D01*
X198630093Y-101228702D01*
X198601334Y-101228702D01*
X198572624Y-101229829D01*
X198570937Y-101228702D01*
X198568907Y-101228702D01*
X198545642Y-101211798D01*
X198521752Y-101195835D01*
X198521049Y-101193931D01*
X198519407Y-101192738D01*
X198510523Y-101165396D01*
X198500576Y-101138431D01*
X198500500Y-101134547D01*
X198500500Y-100036353D01*
X198519407Y-99978162D01*
X198568907Y-99942198D01*
X198630093Y-99942198D01*
X198679593Y-99978162D01*
X198681816Y-99981352D01*
X198684023Y-99984655D01*
X198830345Y-100130977D01*
X199002402Y-100245941D01*
X199193580Y-100325130D01*
X199396535Y-100365500D01*
X199396536Y-100365500D01*
X199603464Y-100365500D01*
X199603465Y-100365500D01*
X199806420Y-100325130D01*
X199997598Y-100245941D01*
X200169655Y-100130977D01*
X200315977Y-99984655D01*
X200318184Y-99981352D01*
X200366233Y-99943472D01*
X200427372Y-99941070D01*
X200478246Y-99975062D01*
G37*
%TD.AperFunction*%
%TA.AperFunction,Conductor*%
G36*
X189930110Y-92683773D02*
G01*
X189930748Y-92682233D01*
X189939755Y-92685962D01*
X189939760Y-92685966D01*
X189992697Y-92696496D01*
X190012815Y-92700498D01*
X190012820Y-92700498D01*
X190012826Y-92700500D01*
X190012827Y-92700500D01*
X190142241Y-92700500D01*
X190200432Y-92719407D01*
X190227977Y-92749999D01*
X190246040Y-92781285D01*
X190450265Y-92985511D01*
X190506215Y-93041460D01*
X190574733Y-93081019D01*
X190574737Y-93081021D01*
X190651161Y-93101499D01*
X190651163Y-93101500D01*
X190651164Y-93101500D01*
X190730288Y-93101500D01*
X192118795Y-93101500D01*
X192126392Y-93103968D01*
X192134282Y-93102719D01*
X192154937Y-93113243D01*
X192176986Y-93120407D01*
X192188799Y-93130496D01*
X192259004Y-93200701D01*
X192286781Y-93255218D01*
X192288000Y-93270705D01*
X192288000Y-97001500D01*
X192269093Y-97059691D01*
X192219593Y-97095655D01*
X192189000Y-97100500D01*
X192159438Y-97100500D01*
X192112661Y-97113033D01*
X192083007Y-97120979D01*
X192014493Y-97160536D01*
X191170004Y-98005025D01*
X191115487Y-98032802D01*
X191055055Y-98023231D01*
X191029996Y-98005025D01*
X190610482Y-97585511D01*
X190185511Y-97160540D01*
X190185508Y-97160538D01*
X190116992Y-97120980D01*
X190116988Y-97120978D01*
X190040564Y-97100500D01*
X190040562Y-97100500D01*
X188851753Y-97100500D01*
X188793562Y-97081593D01*
X188781749Y-97071504D01*
X188272056Y-96561811D01*
X188244279Y-96507294D01*
X188253850Y-96446862D01*
X188256315Y-96442321D01*
X188269489Y-96419505D01*
X188280021Y-96401263D01*
X188300500Y-96324836D01*
X188300500Y-92960438D01*
X188280021Y-92884011D01*
X188252342Y-92836070D01*
X188239621Y-92776224D01*
X188264507Y-92720328D01*
X188317495Y-92689735D01*
X188357394Y-92689474D01*
X188412815Y-92700498D01*
X188412820Y-92700498D01*
X188412826Y-92700500D01*
X188412827Y-92700500D01*
X188562173Y-92700500D01*
X188562174Y-92700500D01*
X188635240Y-92685966D01*
X188635246Y-92685961D01*
X188644252Y-92682233D01*
X188645086Y-92684248D01*
X188691380Y-92671189D01*
X188730110Y-92683773D01*
X188730748Y-92682233D01*
X188739755Y-92685962D01*
X188739760Y-92685966D01*
X188792697Y-92696496D01*
X188812815Y-92700498D01*
X188812820Y-92700498D01*
X188812826Y-92700500D01*
X188812827Y-92700500D01*
X188962173Y-92700500D01*
X188962174Y-92700500D01*
X189035240Y-92685966D01*
X189035246Y-92685961D01*
X189044252Y-92682233D01*
X189045086Y-92684248D01*
X189091380Y-92671189D01*
X189130110Y-92683773D01*
X189130748Y-92682233D01*
X189139755Y-92685962D01*
X189139760Y-92685966D01*
X189192697Y-92696496D01*
X189212815Y-92700498D01*
X189212820Y-92700498D01*
X189212826Y-92700500D01*
X189212827Y-92700500D01*
X189362173Y-92700500D01*
X189362174Y-92700500D01*
X189435240Y-92685966D01*
X189435246Y-92685961D01*
X189444252Y-92682233D01*
X189445086Y-92684248D01*
X189491380Y-92671189D01*
X189530110Y-92683773D01*
X189530748Y-92682233D01*
X189539755Y-92685962D01*
X189539760Y-92685966D01*
X189592697Y-92696496D01*
X189612815Y-92700498D01*
X189612820Y-92700498D01*
X189612826Y-92700500D01*
X189612827Y-92700500D01*
X189762173Y-92700500D01*
X189762174Y-92700500D01*
X189835240Y-92685966D01*
X189835246Y-92685961D01*
X189844252Y-92682233D01*
X189845086Y-92684248D01*
X189858381Y-92680497D01*
X189883620Y-92671189D01*
X189887500Y-92672283D01*
X189891380Y-92671189D01*
X189930110Y-92683773D01*
G37*
%TD.AperFunction*%
%TA.AperFunction,Conductor*%
G36*
X200478246Y-87275062D02*
G01*
X200499424Y-87332465D01*
X200499500Y-87336353D01*
X200499500Y-88434546D01*
X200480593Y-88492737D01*
X200431093Y-88528701D01*
X200369907Y-88528701D01*
X200320407Y-88492737D01*
X200318186Y-88489550D01*
X200315591Y-88485667D01*
X200313173Y-88483249D01*
X199917788Y-88878632D01*
X199900099Y-88847993D01*
X199807007Y-88754901D01*
X199776365Y-88737210D01*
X200171750Y-88341826D01*
X200169329Y-88339405D01*
X199997374Y-88224508D01*
X199997360Y-88224501D01*
X199806272Y-88145349D01*
X199603418Y-88105000D01*
X199396581Y-88105000D01*
X199193727Y-88145349D01*
X199002639Y-88224501D01*
X199002630Y-88224505D01*
X198830665Y-88339410D01*
X198828248Y-88341825D01*
X199223633Y-88737210D01*
X199192993Y-88754901D01*
X199099901Y-88847993D01*
X199082210Y-88878633D01*
X198686825Y-88483248D01*
X198684410Y-88485665D01*
X198569505Y-88657630D01*
X198569501Y-88657639D01*
X198490349Y-88848727D01*
X198450000Y-89051581D01*
X198450000Y-89258418D01*
X198490349Y-89461272D01*
X198569501Y-89652360D01*
X198569508Y-89652374D01*
X198684405Y-89824329D01*
X198686826Y-89826750D01*
X199082210Y-89431365D01*
X199099901Y-89462007D01*
X199192993Y-89555099D01*
X199223632Y-89572788D01*
X198828249Y-89968173D01*
X198830670Y-89970594D01*
X199002625Y-90085491D01*
X199002639Y-90085498D01*
X199193727Y-90164650D01*
X199396581Y-90204999D01*
X199396586Y-90205000D01*
X199603414Y-90205000D01*
X199603418Y-90204999D01*
X199806272Y-90164650D01*
X199997360Y-90085498D01*
X199997366Y-90085495D01*
X200169333Y-89970591D01*
X200171750Y-89968173D01*
X199776366Y-89572789D01*
X199807007Y-89555099D01*
X199900099Y-89462007D01*
X199917789Y-89431366D01*
X200313173Y-89826750D01*
X200315589Y-89824335D01*
X200318181Y-89820456D01*
X200366229Y-89782574D01*
X200427367Y-89780168D01*
X200478243Y-89814158D01*
X200499423Y-89871561D01*
X200499500Y-89875453D01*
X200499500Y-90973646D01*
X200480593Y-91031837D01*
X200431093Y-91067801D01*
X200369907Y-91067801D01*
X200320407Y-91031837D01*
X200318187Y-91028652D01*
X200315979Y-91025348D01*
X200315977Y-91025345D01*
X200169655Y-90879023D01*
X200168573Y-90878300D01*
X199997597Y-90764058D01*
X199806418Y-90684869D01*
X199603467Y-90644500D01*
X199603465Y-90644500D01*
X199396535Y-90644500D01*
X199396532Y-90644500D01*
X199193581Y-90684869D01*
X199002402Y-90764058D01*
X198830348Y-90879020D01*
X198684020Y-91025348D01*
X198569058Y-91197402D01*
X198489869Y-91388581D01*
X198449500Y-91591532D01*
X198449500Y-91798467D01*
X198489869Y-92001418D01*
X198489870Y-92001420D01*
X198532577Y-92104524D01*
X198546196Y-92137401D01*
X198550997Y-92198398D01*
X198524736Y-92245291D01*
X196199525Y-94570504D01*
X196145008Y-94598281D01*
X196129521Y-94599500D01*
X195864479Y-94599500D01*
X195806288Y-94580593D01*
X195770324Y-94531093D01*
X195770324Y-94469907D01*
X195794475Y-94430496D01*
X196093439Y-94131532D01*
X197440460Y-92784511D01*
X197459080Y-92752260D01*
X197480020Y-92715992D01*
X197480020Y-92715990D01*
X197480022Y-92715988D01*
X197500500Y-92639562D01*
X197500500Y-92560438D01*
X197500500Y-89080478D01*
X197502968Y-89072880D01*
X197501719Y-89064991D01*
X197512243Y-89044335D01*
X197519407Y-89022287D01*
X197529490Y-89010480D01*
X198949708Y-87590261D01*
X199004223Y-87562486D01*
X199057595Y-87568802D01*
X199193580Y-87625130D01*
X199396535Y-87665500D01*
X199396536Y-87665500D01*
X199603464Y-87665500D01*
X199603465Y-87665500D01*
X199806420Y-87625130D01*
X199997598Y-87545941D01*
X200169655Y-87430977D01*
X200315977Y-87284655D01*
X200318184Y-87281352D01*
X200366233Y-87243472D01*
X200427372Y-87241070D01*
X200478246Y-87275062D01*
G37*
%TD.AperFunction*%
%TA.AperFunction,Conductor*%
G36*
X195435978Y-83474500D02*
G01*
X195483528Y-83513005D01*
X195499500Y-83566924D01*
X195499500Y-92034520D01*
X195480593Y-92092711D01*
X195470504Y-92104524D01*
X194863527Y-92711500D01*
X194809010Y-92739277D01*
X194748578Y-92729706D01*
X194711207Y-92696496D01*
X194693104Y-92669402D01*
X194693099Y-92669397D01*
X194610242Y-92614035D01*
X194610240Y-92614034D01*
X194610237Y-92614033D01*
X194610236Y-92614033D01*
X194537184Y-92599501D01*
X194537174Y-92599500D01*
X194537173Y-92599500D01*
X194290479Y-92599500D01*
X194232288Y-92580593D01*
X194220475Y-92570504D01*
X193616996Y-91967025D01*
X193589219Y-91912508D01*
X193588000Y-91897021D01*
X193588000Y-89775880D01*
X193581199Y-89750501D01*
X193581198Y-89750498D01*
X193567522Y-89699455D01*
X193567520Y-89699452D01*
X193567520Y-89699450D01*
X193527963Y-89630936D01*
X193527962Y-89630935D01*
X193527961Y-89630934D01*
X193527960Y-89630932D01*
X193028496Y-89131468D01*
X193000719Y-89076951D01*
X192999500Y-89061464D01*
X192999500Y-85666479D01*
X193018407Y-85608288D01*
X193028496Y-85596475D01*
X193445475Y-85179496D01*
X193499992Y-85151719D01*
X193515479Y-85150500D01*
X194662719Y-85150500D01*
X194662720Y-85150500D01*
X194775236Y-85135687D01*
X194915233Y-85077698D01*
X195035451Y-84985451D01*
X195127698Y-84865233D01*
X195185687Y-84725236D01*
X195200500Y-84612720D01*
X195200500Y-83787280D01*
X195185687Y-83674764D01*
X195170203Y-83637384D01*
X195165403Y-83576390D01*
X195197372Y-83524220D01*
X195253900Y-83500805D01*
X195261668Y-83500500D01*
X195265890Y-83500500D01*
X195265892Y-83500500D01*
X195374879Y-83471297D01*
X195435978Y-83474500D01*
G37*
%TD.AperFunction*%
%TA.AperFunction,Conductor*%
G36*
X180679593Y-87278162D02*
G01*
X180681816Y-87281352D01*
X180684023Y-87284655D01*
X180830345Y-87430977D01*
X181002402Y-87545941D01*
X181193580Y-87625130D01*
X181396535Y-87665500D01*
X181396536Y-87665500D01*
X181603464Y-87665500D01*
X181603465Y-87665500D01*
X181806420Y-87625130D01*
X181942405Y-87568802D01*
X182003399Y-87564002D01*
X182050292Y-87590263D01*
X182870504Y-88410475D01*
X182898281Y-88464992D01*
X182899500Y-88480479D01*
X182899500Y-92430521D01*
X182880593Y-92488712D01*
X182831093Y-92524676D01*
X182769907Y-92524676D01*
X182730496Y-92500525D01*
X182475263Y-92245292D01*
X182447486Y-92190775D01*
X182453802Y-92137405D01*
X182510130Y-92001420D01*
X182550500Y-91798465D01*
X182550500Y-91591535D01*
X182510130Y-91388580D01*
X182430941Y-91197402D01*
X182315977Y-91025345D01*
X182169655Y-90879023D01*
X182168573Y-90878300D01*
X181997597Y-90764058D01*
X181806418Y-90684869D01*
X181603467Y-90644500D01*
X181603465Y-90644500D01*
X181396535Y-90644500D01*
X181396532Y-90644500D01*
X181193581Y-90684869D01*
X181002402Y-90764058D01*
X180830348Y-90879020D01*
X180684020Y-91025348D01*
X180681813Y-91028652D01*
X180633761Y-91066529D01*
X180572622Y-91068928D01*
X180521750Y-91034932D01*
X180500576Y-90977528D01*
X180500500Y-90973646D01*
X180500500Y-89875453D01*
X180519407Y-89817262D01*
X180568907Y-89781298D01*
X180630093Y-89781298D01*
X180679593Y-89817262D01*
X180681817Y-89820454D01*
X180684408Y-89824332D01*
X180686826Y-89826750D01*
X181082210Y-89431365D01*
X181099901Y-89462007D01*
X181192993Y-89555099D01*
X181223632Y-89572788D01*
X180828249Y-89968173D01*
X180830670Y-89970594D01*
X181002625Y-90085491D01*
X181002639Y-90085498D01*
X181193727Y-90164650D01*
X181396581Y-90204999D01*
X181396586Y-90205000D01*
X181603414Y-90205000D01*
X181603418Y-90204999D01*
X181806272Y-90164650D01*
X181997360Y-90085498D01*
X181997366Y-90085495D01*
X182169333Y-89970591D01*
X182171750Y-89968173D01*
X181776366Y-89572789D01*
X181807007Y-89555099D01*
X181900099Y-89462007D01*
X181917789Y-89431366D01*
X182313173Y-89826750D01*
X182315591Y-89824333D01*
X182430495Y-89652366D01*
X182430498Y-89652360D01*
X182509650Y-89461272D01*
X182549999Y-89258418D01*
X182550000Y-89258413D01*
X182550000Y-89051586D01*
X182549999Y-89051581D01*
X182509650Y-88848727D01*
X182430498Y-88657639D01*
X182430491Y-88657625D01*
X182315594Y-88485670D01*
X182313173Y-88483249D01*
X181917788Y-88878632D01*
X181900099Y-88847993D01*
X181807007Y-88754901D01*
X181776365Y-88737210D01*
X182171750Y-88341826D01*
X182169329Y-88339405D01*
X181997374Y-88224508D01*
X181997360Y-88224501D01*
X181806272Y-88145349D01*
X181603418Y-88105000D01*
X181396581Y-88105000D01*
X181193727Y-88145349D01*
X181002639Y-88224501D01*
X181002630Y-88224505D01*
X180830665Y-88339410D01*
X180828248Y-88341825D01*
X181223633Y-88737210D01*
X181192993Y-88754901D01*
X181099901Y-88847993D01*
X181082210Y-88878633D01*
X180686825Y-88483248D01*
X180684410Y-88485664D01*
X180681814Y-88489551D01*
X180680220Y-88490807D01*
X180679593Y-88492738D01*
X180656331Y-88509638D01*
X180633763Y-88527429D01*
X180631735Y-88527508D01*
X180630093Y-88528702D01*
X180601334Y-88528702D01*
X180572624Y-88529829D01*
X180570937Y-88528702D01*
X180568907Y-88528702D01*
X180545642Y-88511798D01*
X180521752Y-88495835D01*
X180521049Y-88493931D01*
X180519407Y-88492738D01*
X180510523Y-88465396D01*
X180500576Y-88438431D01*
X180500500Y-88434547D01*
X180500500Y-87336353D01*
X180519407Y-87278162D01*
X180568907Y-87242198D01*
X180630093Y-87242198D01*
X180679593Y-87278162D01*
G37*
%TD.AperFunction*%
%TA.AperFunction,Conductor*%
G36*
X186996960Y-75468855D02*
G01*
X187010093Y-75468855D01*
X187024824Y-75479558D01*
X187041819Y-75486086D01*
X187048967Y-75497099D01*
X187059593Y-75504819D01*
X187070004Y-75526653D01*
X187071237Y-75526143D01*
X187073720Y-75532138D01*
X187149481Y-75663360D01*
X187149483Y-75663362D01*
X187149485Y-75663365D01*
X187256635Y-75770515D01*
X187256637Y-75770516D01*
X187256639Y-75770518D01*
X187387861Y-75846279D01*
X187387859Y-75846279D01*
X187387863Y-75846280D01*
X187387865Y-75846281D01*
X187526124Y-75883327D01*
X187577437Y-75916650D01*
X187599364Y-75973771D01*
X187599500Y-75978953D01*
X187599500Y-76843260D01*
X187601225Y-76855099D01*
X187609427Y-76911395D01*
X187660801Y-77016481D01*
X187660802Y-77016483D01*
X187743517Y-77099198D01*
X187777864Y-77115989D01*
X187848604Y-77150572D01*
X187848605Y-77150572D01*
X187848607Y-77150573D01*
X187916740Y-77160500D01*
X187916743Y-77160500D01*
X188283257Y-77160500D01*
X188283260Y-77160500D01*
X188351393Y-77150573D01*
X188376433Y-77138331D01*
X188437012Y-77129760D01*
X188491063Y-77158434D01*
X188505650Y-77177774D01*
X188509535Y-77184503D01*
X188509540Y-77184511D01*
X188670505Y-77345476D01*
X188698281Y-77399991D01*
X188699500Y-77415478D01*
X188699500Y-77965604D01*
X188680593Y-78023795D01*
X188642341Y-78055328D01*
X188619598Y-78065933D01*
X188535933Y-78149598D01*
X188485932Y-78256824D01*
X188485932Y-78256825D01*
X188485932Y-78256827D01*
X188479500Y-78305684D01*
X188479500Y-78654316D01*
X188483788Y-78686887D01*
X188485932Y-78703174D01*
X188485932Y-78703175D01*
X188535933Y-78810401D01*
X188535934Y-78810402D01*
X188535935Y-78810404D01*
X188619596Y-78894065D01*
X188619597Y-78894065D01*
X188619598Y-78894066D01*
X188726824Y-78944067D01*
X188726825Y-78944067D01*
X188726827Y-78944068D01*
X188775684Y-78950500D01*
X188775685Y-78950500D01*
X189224314Y-78950500D01*
X189224316Y-78950500D01*
X189273173Y-78944068D01*
X189380404Y-78894065D01*
X189424998Y-78849470D01*
X189435163Y-78844291D01*
X189442491Y-78835549D01*
X189461788Y-78830725D01*
X189479513Y-78821695D01*
X189490780Y-78823479D01*
X189501850Y-78820713D01*
X189517067Y-78827642D01*
X189539945Y-78831266D01*
X189558593Y-78843602D01*
X189561929Y-78846398D01*
X189619596Y-78904065D01*
X189644699Y-78915771D01*
X189654668Y-78924126D01*
X189664334Y-78939575D01*
X189677663Y-78952005D01*
X189680164Y-78964877D01*
X189687121Y-78975995D01*
X189685859Y-78994176D01*
X189689337Y-79012066D01*
X189683794Y-79023951D01*
X189682887Y-79037034D01*
X189671180Y-79051001D01*
X189663478Y-79067518D01*
X189647773Y-79078928D01*
X189643584Y-79083927D01*
X189639482Y-79084952D01*
X189632915Y-79089724D01*
X189619598Y-79095933D01*
X189535933Y-79179598D01*
X189485932Y-79286824D01*
X189485932Y-79286825D01*
X189485932Y-79286827D01*
X189480633Y-79327082D01*
X189479500Y-79335685D01*
X189479500Y-79684314D01*
X189485932Y-79733174D01*
X189485932Y-79733175D01*
X189535933Y-79840401D01*
X189535934Y-79840402D01*
X189535935Y-79840404D01*
X189619596Y-79924065D01*
X189619597Y-79924065D01*
X189619598Y-79924066D01*
X189726824Y-79974067D01*
X189726825Y-79974067D01*
X189726827Y-79974068D01*
X189775684Y-79980500D01*
X190004521Y-79980500D01*
X190062712Y-79999407D01*
X190074525Y-80009496D01*
X191358004Y-81292975D01*
X191385781Y-81347492D01*
X191387000Y-81362979D01*
X191387000Y-90779845D01*
X191383734Y-90789894D01*
X191384842Y-90800403D01*
X191374492Y-90818339D01*
X191368093Y-90838036D01*
X191359543Y-90844247D01*
X191354263Y-90853399D01*
X191335348Y-90861826D01*
X191318593Y-90874000D01*
X191308025Y-90874000D01*
X191298374Y-90878300D01*
X191278117Y-90874000D01*
X191257407Y-90874000D01*
X191238523Y-90865595D01*
X191237523Y-90865018D01*
X191196570Y-90819559D01*
X191188000Y-90779268D01*
X191188000Y-87347939D01*
X191183854Y-87332465D01*
X191167522Y-87271512D01*
X191167520Y-87271509D01*
X191167520Y-87271507D01*
X191127963Y-87202993D01*
X191127962Y-87202992D01*
X191127961Y-87202991D01*
X191127960Y-87202989D01*
X188929496Y-85004525D01*
X188901719Y-84950008D01*
X188900500Y-84934521D01*
X188900500Y-82743388D01*
X188900500Y-82743384D01*
X188894086Y-82672804D01*
X188843478Y-82510394D01*
X188755472Y-82364815D01*
X188635185Y-82244528D01*
X188597777Y-82221914D01*
X188489607Y-82156522D01*
X188489605Y-82156521D01*
X188327194Y-82105913D01*
X188256620Y-82099500D01*
X188256616Y-82099500D01*
X188174500Y-82099500D01*
X188116309Y-82080593D01*
X188080345Y-82031093D01*
X188075500Y-82000500D01*
X188075500Y-80549747D01*
X188094407Y-80491556D01*
X188129555Y-80461537D01*
X188133121Y-80459719D01*
X188133126Y-80459719D01*
X188253220Y-80398528D01*
X188348528Y-80303220D01*
X188409719Y-80183126D01*
X188425500Y-80083488D01*
X188425500Y-79516512D01*
X188409719Y-79416874D01*
X188409716Y-79416869D01*
X188409716Y-79416867D01*
X188348529Y-79296782D01*
X188348528Y-79296780D01*
X188253220Y-79201472D01*
X188253217Y-79201470D01*
X188133132Y-79140283D01*
X188133127Y-79140281D01*
X188133126Y-79140281D01*
X188099913Y-79135020D01*
X188033490Y-79124500D01*
X188033488Y-79124500D01*
X187516512Y-79124500D01*
X187516510Y-79124500D01*
X187416874Y-79140281D01*
X187416867Y-79140283D01*
X187296782Y-79201470D01*
X187201470Y-79296782D01*
X187140283Y-79416867D01*
X187140281Y-79416874D01*
X187124500Y-79516510D01*
X187124500Y-80083489D01*
X187140281Y-80183125D01*
X187140283Y-80183132D01*
X187199041Y-80298449D01*
X187201472Y-80303220D01*
X187296780Y-80398528D01*
X187416874Y-80459719D01*
X187416878Y-80459719D01*
X187420445Y-80461537D01*
X187463709Y-80504802D01*
X187474500Y-80549747D01*
X187474500Y-82000500D01*
X187455593Y-82058691D01*
X187406093Y-82094655D01*
X187375500Y-82099500D01*
X187143379Y-82099500D01*
X187072805Y-82105913D01*
X186910394Y-82156521D01*
X186910392Y-82156522D01*
X186764816Y-82244527D01*
X186644527Y-82364816D01*
X186556522Y-82510392D01*
X186556521Y-82510394D01*
X186505913Y-82672805D01*
X186499500Y-82743379D01*
X186499500Y-84152679D01*
X186480593Y-84210870D01*
X186431093Y-84246834D01*
X186369907Y-84246834D01*
X186330498Y-84222684D01*
X186307314Y-84199500D01*
X186307311Y-84199498D01*
X186307309Y-84199496D01*
X186193189Y-84133609D01*
X186193191Y-84133609D01*
X186143799Y-84120375D01*
X186065892Y-84099500D01*
X185934108Y-84099500D01*
X185856200Y-84120375D01*
X185806809Y-84133609D01*
X185692690Y-84199496D01*
X185692689Y-84199497D01*
X185692686Y-84199499D01*
X185692686Y-84199500D01*
X185669501Y-84222684D01*
X185614987Y-84250460D01*
X185554555Y-84240889D01*
X185511290Y-84197624D01*
X185500500Y-84152679D01*
X185500500Y-76910164D01*
X185519407Y-76851973D01*
X185568907Y-76816009D01*
X185630093Y-76816009D01*
X185669504Y-76840160D01*
X185733458Y-76904114D01*
X185848182Y-76980771D01*
X185848193Y-76980777D01*
X185895283Y-77000282D01*
X185975672Y-77033580D01*
X186111007Y-77060500D01*
X186111008Y-77060500D01*
X186248992Y-77060500D01*
X186248993Y-77060500D01*
X186384328Y-77033580D01*
X186511811Y-76980775D01*
X186626542Y-76904114D01*
X186724114Y-76806542D01*
X186800775Y-76691811D01*
X186853580Y-76564328D01*
X186880500Y-76428993D01*
X186880500Y-75563010D01*
X186886126Y-75545693D01*
X186887083Y-75527512D01*
X186895348Y-75517309D01*
X186899407Y-75504819D01*
X186914139Y-75494115D01*
X186925599Y-75479970D01*
X186938281Y-75476574D01*
X186948907Y-75468855D01*
X186967117Y-75468855D01*
X186984703Y-75464147D01*
X186996960Y-75468855D01*
G37*
%TD.AperFunction*%
%TA.AperFunction,Conductor*%
G36*
X192542114Y-78779321D02*
G01*
X192559678Y-78777285D01*
X192571584Y-78783989D01*
X192585083Y-78786127D01*
X192597586Y-78798630D01*
X192612992Y-78807305D01*
X192618684Y-78819728D01*
X192628347Y-78829391D01*
X192638479Y-78862930D01*
X192639854Y-78874786D01*
X192684289Y-78975422D01*
X192684290Y-78975423D01*
X192687995Y-78983814D01*
X192684705Y-78985266D01*
X192697211Y-79027780D01*
X192685141Y-79064925D01*
X192687995Y-79066186D01*
X192684289Y-79074577D01*
X192684289Y-79074578D01*
X192647914Y-79156957D01*
X192639853Y-79175216D01*
X192637000Y-79199808D01*
X192637000Y-79500180D01*
X192637000Y-79500182D01*
X192637001Y-79500184D01*
X192639854Y-79524786D01*
X192684289Y-79625422D01*
X192684290Y-79625423D01*
X192687995Y-79633814D01*
X192684705Y-79635266D01*
X192697211Y-79677780D01*
X192685141Y-79714925D01*
X192687995Y-79716186D01*
X192684289Y-79724577D01*
X192684289Y-79724578D01*
X192647914Y-79806957D01*
X192639853Y-79825216D01*
X192637000Y-79849808D01*
X192637000Y-80150180D01*
X192637000Y-80150182D01*
X192637001Y-80150184D01*
X192639854Y-80174786D01*
X192684289Y-80275422D01*
X192695505Y-80286638D01*
X192723281Y-80341153D01*
X192724500Y-80356640D01*
X192724500Y-80964564D01*
X192744978Y-81040988D01*
X192744979Y-81040989D01*
X192768375Y-81081512D01*
X192784540Y-81109511D01*
X192839658Y-81164629D01*
X192842507Y-81168042D01*
X192852318Y-81192507D01*
X192864286Y-81215996D01*
X192863705Y-81220901D01*
X192865281Y-81224831D01*
X192861433Y-81240093D01*
X192857969Y-81269368D01*
X192814314Y-81374759D01*
X192814312Y-81374767D01*
X192799500Y-81487279D01*
X192799500Y-82312720D01*
X192814312Y-82425232D01*
X192814314Y-82425238D01*
X192856560Y-82527230D01*
X192872302Y-82565233D01*
X192964549Y-82685451D01*
X193084767Y-82777698D01*
X193224764Y-82835687D01*
X193337280Y-82850500D01*
X193337281Y-82850500D01*
X194600500Y-82850500D01*
X194615412Y-82855345D01*
X194631093Y-82855345D01*
X194643778Y-82864561D01*
X194658691Y-82869407D01*
X194667907Y-82882092D01*
X194680593Y-82891309D01*
X194685438Y-82906221D01*
X194694655Y-82918907D01*
X194699500Y-82949500D01*
X194699500Y-83034521D01*
X194680593Y-83092712D01*
X194670504Y-83104524D01*
X194554526Y-83220503D01*
X194500009Y-83248281D01*
X194484522Y-83249500D01*
X193337279Y-83249500D01*
X193224767Y-83264312D01*
X193224761Y-83264314D01*
X193084768Y-83322301D01*
X192964551Y-83414547D01*
X192964547Y-83414551D01*
X192872301Y-83534768D01*
X192814314Y-83674761D01*
X192814312Y-83674767D01*
X192799500Y-83787279D01*
X192799500Y-84612720D01*
X192811447Y-84703472D01*
X192814313Y-84725236D01*
X192842459Y-84793186D01*
X192857969Y-84830630D01*
X192862770Y-84891627D01*
X192836510Y-84938518D01*
X192697331Y-85077698D01*
X192557004Y-85218025D01*
X192502487Y-85245802D01*
X192442055Y-85236231D01*
X192398790Y-85192966D01*
X192388000Y-85148021D01*
X192388000Y-80557937D01*
X192387999Y-80557935D01*
X192367521Y-80481511D01*
X192367519Y-80481507D01*
X192327960Y-80412989D01*
X192272011Y-80357039D01*
X192272011Y-80357040D01*
X191549496Y-79634525D01*
X191521719Y-79580008D01*
X191520500Y-79564521D01*
X191520500Y-79335685D01*
X191520500Y-79335684D01*
X191514068Y-79286827D01*
X191464065Y-79179596D01*
X191380404Y-79095935D01*
X191367085Y-79089724D01*
X191322337Y-79047997D01*
X191310662Y-78987936D01*
X191336519Y-78932483D01*
X191345331Y-78924125D01*
X191355295Y-78915773D01*
X191380404Y-78904065D01*
X191438077Y-78846391D01*
X191441407Y-78843601D01*
X191465943Y-78833703D01*
X191489513Y-78821695D01*
X191493966Y-78822400D01*
X191498150Y-78820713D01*
X191523816Y-78827127D01*
X191549945Y-78831266D01*
X191554964Y-78834912D01*
X191557510Y-78835549D01*
X191560109Y-78838651D01*
X191575000Y-78849469D01*
X191619596Y-78894065D01*
X191619597Y-78894065D01*
X191619598Y-78894066D01*
X191726824Y-78944067D01*
X191726825Y-78944067D01*
X191726827Y-78944068D01*
X191775684Y-78950500D01*
X191775685Y-78950500D01*
X192224314Y-78950500D01*
X192224316Y-78950500D01*
X192273173Y-78944068D01*
X192380404Y-78894065D01*
X192464065Y-78810404D01*
X192464065Y-78810402D01*
X192470134Y-78804334D01*
X192485886Y-78796307D01*
X192498900Y-78784334D01*
X192512475Y-78782759D01*
X192524650Y-78776556D01*
X192542114Y-78779321D01*
G37*
%TD.AperFunction*%
%TA.AperFunction,Conductor*%
G36*
X200441942Y-72430413D02*
G01*
X200486874Y-72471943D01*
X200499500Y-72520322D01*
X200499500Y-73193646D01*
X200480593Y-73251837D01*
X200431093Y-73287801D01*
X200369907Y-73287801D01*
X200320407Y-73251837D01*
X200318187Y-73248652D01*
X200315979Y-73245348D01*
X200315977Y-73245345D01*
X200169655Y-73099023D01*
X199997598Y-72984059D01*
X199997599Y-72984059D01*
X199997597Y-72984058D01*
X199806418Y-72904869D01*
X199603467Y-72864500D01*
X199603465Y-72864500D01*
X199396535Y-72864500D01*
X199396532Y-72864500D01*
X199193581Y-72904869D01*
X199002402Y-72984058D01*
X198830348Y-73099020D01*
X198684020Y-73245348D01*
X198569058Y-73417402D01*
X198489869Y-73608581D01*
X198449500Y-73811532D01*
X198449500Y-74018467D01*
X198489869Y-74221418D01*
X198546196Y-74357401D01*
X198550997Y-74418398D01*
X198524736Y-74465291D01*
X195615489Y-77374540D01*
X195615488Y-77374539D01*
X195559539Y-77430489D01*
X195519980Y-77499007D01*
X195519978Y-77499011D01*
X195499500Y-77575435D01*
X195499500Y-82433075D01*
X195480593Y-82491266D01*
X195431093Y-82527230D01*
X195374878Y-82528702D01*
X195262839Y-82498682D01*
X195211524Y-82465358D01*
X195189597Y-82408237D01*
X195190307Y-82390137D01*
X195200500Y-82312720D01*
X195200500Y-81487280D01*
X195185687Y-81374764D01*
X195127698Y-81234767D01*
X195035451Y-81114549D01*
X194915233Y-81022302D01*
X194775236Y-80964313D01*
X194775234Y-80964312D01*
X194775232Y-80964312D01*
X194662720Y-80949500D01*
X193515479Y-80949500D01*
X193507881Y-80947031D01*
X193499992Y-80948281D01*
X193479336Y-80937756D01*
X193457288Y-80930593D01*
X193445475Y-80920504D01*
X193354496Y-80829525D01*
X193326719Y-80775008D01*
X193325500Y-80759521D01*
X193325500Y-80356640D01*
X193344407Y-80298449D01*
X193354490Y-80286642D01*
X193365711Y-80275422D01*
X193410146Y-80174786D01*
X193413000Y-80150185D01*
X193412999Y-79849816D01*
X193410146Y-79825214D01*
X193365711Y-79724578D01*
X193365709Y-79724576D01*
X193362005Y-79716186D01*
X193365299Y-79714731D01*
X193352786Y-79672276D01*
X193364871Y-79635079D01*
X193362005Y-79633814D01*
X193365709Y-79625423D01*
X193365711Y-79625422D01*
X193410146Y-79524786D01*
X193413000Y-79500185D01*
X193412999Y-79199816D01*
X193410146Y-79175214D01*
X193365711Y-79074578D01*
X193365709Y-79074576D01*
X193362005Y-79066186D01*
X193365299Y-79064731D01*
X193352786Y-79022276D01*
X193364871Y-78985079D01*
X193362005Y-78983814D01*
X193365709Y-78975423D01*
X193365711Y-78975422D01*
X193410146Y-78874786D01*
X193413000Y-78850185D01*
X193412999Y-78549816D01*
X193410146Y-78525214D01*
X193365711Y-78424578D01*
X193354494Y-78413361D01*
X193326718Y-78358843D01*
X193325500Y-78343359D01*
X193325500Y-77067383D01*
X193339003Y-77025519D01*
X193335595Y-77023853D01*
X193390572Y-76911395D01*
X193390571Y-76911395D01*
X193390573Y-76911393D01*
X193400500Y-76843260D01*
X193400500Y-75978953D01*
X193419407Y-75920762D01*
X193468907Y-75884798D01*
X193473852Y-75883333D01*
X193612135Y-75846281D01*
X193612137Y-75846279D01*
X193612139Y-75846279D01*
X193743360Y-75770518D01*
X193743360Y-75770517D01*
X193743365Y-75770515D01*
X193850515Y-75663365D01*
X193864346Y-75639410D01*
X193881613Y-75609502D01*
X193926281Y-75532135D01*
X193926282Y-75532129D01*
X193928763Y-75526143D01*
X193931456Y-75527258D01*
X193958181Y-75486086D01*
X194015297Y-75464147D01*
X194074401Y-75479970D01*
X194112917Y-75527512D01*
X194119500Y-75563010D01*
X194119500Y-76428993D01*
X194145244Y-76558418D01*
X194146420Y-76564327D01*
X194146420Y-76564329D01*
X194199222Y-76691806D01*
X194199228Y-76691817D01*
X194275885Y-76806541D01*
X194373458Y-76904114D01*
X194488182Y-76980771D01*
X194488193Y-76980777D01*
X194535283Y-77000282D01*
X194615672Y-77033580D01*
X194751007Y-77060500D01*
X194751008Y-77060500D01*
X194888992Y-77060500D01*
X194888993Y-77060500D01*
X195024328Y-77033580D01*
X195151811Y-76980775D01*
X195266542Y-76904114D01*
X195364114Y-76806542D01*
X195440775Y-76691811D01*
X195493580Y-76564328D01*
X195520500Y-76428993D01*
X195520500Y-75191007D01*
X195493580Y-75055672D01*
X195453542Y-74959011D01*
X195440777Y-74928193D01*
X195440770Y-74928180D01*
X195431631Y-74914503D01*
X195415021Y-74855615D01*
X195436197Y-74798211D01*
X195487070Y-74764217D01*
X195513945Y-74760500D01*
X196454563Y-74760500D01*
X196454563Y-74760499D01*
X196530989Y-74740021D01*
X196599511Y-74700460D01*
X196655460Y-74644511D01*
X198845475Y-72454496D01*
X198899992Y-72426719D01*
X198915479Y-72425500D01*
X200369746Y-72425500D01*
X200369748Y-72425500D01*
X200381183Y-72423225D01*
X200441942Y-72430413D01*
G37*
%TD.AperFunction*%
%TA.AperFunction,Conductor*%
G36*
X200478246Y-74575062D02*
G01*
X200499424Y-74632465D01*
X200499500Y-74636353D01*
X200499500Y-75734546D01*
X200480593Y-75792737D01*
X200431093Y-75828701D01*
X200369907Y-75828701D01*
X200320407Y-75792737D01*
X200318186Y-75789550D01*
X200315591Y-75785667D01*
X200313173Y-75783249D01*
X199917788Y-76178632D01*
X199900099Y-76147993D01*
X199807007Y-76054901D01*
X199776365Y-76037210D01*
X200171750Y-75641826D01*
X200169329Y-75639405D01*
X199997374Y-75524508D01*
X199997360Y-75524501D01*
X199806272Y-75445349D01*
X199603418Y-75405000D01*
X199396581Y-75405000D01*
X199193727Y-75445349D01*
X199002639Y-75524501D01*
X199002630Y-75524505D01*
X198830665Y-75639410D01*
X198828248Y-75641825D01*
X199223633Y-76037210D01*
X199192993Y-76054901D01*
X199099901Y-76147993D01*
X199082210Y-76178633D01*
X198686825Y-75783248D01*
X198684410Y-75785665D01*
X198569505Y-75957630D01*
X198569501Y-75957639D01*
X198490349Y-76148727D01*
X198450000Y-76351581D01*
X198450000Y-76558418D01*
X198490349Y-76761272D01*
X198569501Y-76952360D01*
X198569508Y-76952374D01*
X198684405Y-77124329D01*
X198686826Y-77126750D01*
X199082210Y-76731365D01*
X199099901Y-76762007D01*
X199192993Y-76855099D01*
X199223632Y-76872788D01*
X198828249Y-77268173D01*
X198830670Y-77270594D01*
X199002625Y-77385491D01*
X199002639Y-77385498D01*
X199193727Y-77464650D01*
X199396581Y-77504999D01*
X199396586Y-77505000D01*
X199603414Y-77505000D01*
X199603418Y-77504999D01*
X199806272Y-77464650D01*
X199997360Y-77385498D01*
X199997366Y-77385495D01*
X200169333Y-77270591D01*
X200171750Y-77268173D01*
X199776366Y-76872789D01*
X199807007Y-76855099D01*
X199900099Y-76762007D01*
X199917789Y-76731366D01*
X200313173Y-77126750D01*
X200315589Y-77124335D01*
X200318181Y-77120456D01*
X200366229Y-77082574D01*
X200427367Y-77080168D01*
X200478243Y-77114158D01*
X200499423Y-77171561D01*
X200499500Y-77175453D01*
X200499500Y-78273646D01*
X200480593Y-78331837D01*
X200431093Y-78367801D01*
X200369907Y-78367801D01*
X200320407Y-78331837D01*
X200318187Y-78328652D01*
X200315979Y-78325348D01*
X200315977Y-78325345D01*
X200169655Y-78179023D01*
X200169651Y-78179020D01*
X199997597Y-78064058D01*
X199806418Y-77984869D01*
X199603467Y-77944500D01*
X199603465Y-77944500D01*
X199396535Y-77944500D01*
X199396532Y-77944500D01*
X199193581Y-77984869D01*
X199002402Y-78064058D01*
X198830348Y-78179020D01*
X198684020Y-78325348D01*
X198569058Y-78497402D01*
X198489869Y-78688581D01*
X198449500Y-78891532D01*
X198449500Y-79098467D01*
X198489869Y-79301418D01*
X198546196Y-79437401D01*
X198550997Y-79498398D01*
X198524736Y-79545291D01*
X196269504Y-81800524D01*
X196214987Y-81828301D01*
X196154555Y-81818730D01*
X196111290Y-81775465D01*
X196100500Y-81730520D01*
X196100500Y-77780478D01*
X196119407Y-77722287D01*
X196129490Y-77710480D01*
X198949708Y-74890261D01*
X199004223Y-74862486D01*
X199057595Y-74868802D01*
X199193580Y-74925130D01*
X199396535Y-74965500D01*
X199396536Y-74965500D01*
X199603464Y-74965500D01*
X199603465Y-74965500D01*
X199806420Y-74925130D01*
X199997598Y-74845941D01*
X200169655Y-74730977D01*
X200315977Y-74584655D01*
X200318184Y-74581352D01*
X200366233Y-74543472D01*
X200427372Y-74541070D01*
X200478246Y-74575062D01*
G37*
%TD.AperFunction*%
%TA.AperFunction,Conductor*%
G36*
X180679593Y-74578162D02*
G01*
X180681816Y-74581352D01*
X180684023Y-74584655D01*
X180830345Y-74730977D01*
X181002402Y-74845941D01*
X181193580Y-74925130D01*
X181396535Y-74965500D01*
X181396536Y-74965500D01*
X181603464Y-74965500D01*
X181603465Y-74965500D01*
X181806420Y-74925130D01*
X181942405Y-74868802D01*
X182003399Y-74864002D01*
X182050292Y-74890263D01*
X184470504Y-77310475D01*
X184498281Y-77364992D01*
X184499500Y-77380479D01*
X184499500Y-81330521D01*
X184480593Y-81388712D01*
X184431093Y-81424676D01*
X184369907Y-81424676D01*
X184330496Y-81400525D01*
X182475263Y-79545292D01*
X182447486Y-79490775D01*
X182453802Y-79437405D01*
X182510130Y-79301420D01*
X182550500Y-79098465D01*
X182550500Y-78891535D01*
X182510130Y-78688580D01*
X182430941Y-78497402D01*
X182315977Y-78325345D01*
X182169655Y-78179023D01*
X182169651Y-78179020D01*
X181997597Y-78064058D01*
X181806418Y-77984869D01*
X181603467Y-77944500D01*
X181603465Y-77944500D01*
X181396535Y-77944500D01*
X181396532Y-77944500D01*
X181193581Y-77984869D01*
X181002402Y-78064058D01*
X180830348Y-78179020D01*
X180684020Y-78325348D01*
X180681813Y-78328652D01*
X180633761Y-78366529D01*
X180572622Y-78368928D01*
X180521750Y-78334932D01*
X180500576Y-78277528D01*
X180500500Y-78273646D01*
X180500500Y-77175453D01*
X180519407Y-77117262D01*
X180568907Y-77081298D01*
X180630093Y-77081298D01*
X180679593Y-77117262D01*
X180681817Y-77120454D01*
X180684408Y-77124332D01*
X180686826Y-77126750D01*
X181082210Y-76731365D01*
X181099901Y-76762007D01*
X181192993Y-76855099D01*
X181223632Y-76872788D01*
X180828249Y-77268173D01*
X180830670Y-77270594D01*
X181002625Y-77385491D01*
X181002639Y-77385498D01*
X181193727Y-77464650D01*
X181396581Y-77504999D01*
X181396586Y-77505000D01*
X181603414Y-77505000D01*
X181603418Y-77504999D01*
X181806272Y-77464650D01*
X181997360Y-77385498D01*
X181997366Y-77385495D01*
X182169333Y-77270591D01*
X182171750Y-77268173D01*
X181776366Y-76872789D01*
X181807007Y-76855099D01*
X181900099Y-76762007D01*
X181917789Y-76731366D01*
X182313173Y-77126750D01*
X182315591Y-77124333D01*
X182430495Y-76952366D01*
X182430498Y-76952360D01*
X182509650Y-76761272D01*
X182549999Y-76558418D01*
X182550000Y-76558413D01*
X182550000Y-76351586D01*
X182549999Y-76351581D01*
X182509650Y-76148727D01*
X182430498Y-75957639D01*
X182430491Y-75957625D01*
X182315594Y-75785670D01*
X182313173Y-75783249D01*
X181917788Y-76178632D01*
X181900099Y-76147993D01*
X181807007Y-76054901D01*
X181776365Y-76037210D01*
X182171750Y-75641826D01*
X182169329Y-75639405D01*
X181997374Y-75524508D01*
X181997360Y-75524501D01*
X181806272Y-75445349D01*
X181603418Y-75405000D01*
X181396581Y-75405000D01*
X181193727Y-75445349D01*
X181002639Y-75524501D01*
X181002630Y-75524505D01*
X180830665Y-75639410D01*
X180828248Y-75641825D01*
X181223633Y-76037210D01*
X181192993Y-76054901D01*
X181099901Y-76147993D01*
X181082210Y-76178633D01*
X180686825Y-75783248D01*
X180684410Y-75785664D01*
X180681814Y-75789551D01*
X180680220Y-75790807D01*
X180679593Y-75792738D01*
X180656331Y-75809638D01*
X180633763Y-75827429D01*
X180631735Y-75827508D01*
X180630093Y-75828702D01*
X180601334Y-75828702D01*
X180572624Y-75829829D01*
X180570937Y-75828702D01*
X180568907Y-75828702D01*
X180545642Y-75811798D01*
X180521752Y-75795835D01*
X180521049Y-75793931D01*
X180519407Y-75792738D01*
X180510523Y-75765396D01*
X180500576Y-75738431D01*
X180500500Y-75734547D01*
X180500500Y-74636353D01*
X180519407Y-74578162D01*
X180568907Y-74542198D01*
X180630093Y-74542198D01*
X180679593Y-74578162D01*
G37*
%TD.AperFunction*%
%TA.AperFunction,Conductor*%
G36*
X185742740Y-70519407D02*
G01*
X185778704Y-70568907D01*
X185778704Y-70630093D01*
X185742740Y-70679593D01*
X185739552Y-70681814D01*
X185733461Y-70685883D01*
X185733454Y-70685889D01*
X185635885Y-70783458D01*
X185559228Y-70898182D01*
X185559222Y-70898193D01*
X185506420Y-71025670D01*
X185506420Y-71025672D01*
X185479500Y-71161004D01*
X185479500Y-72098995D01*
X185506420Y-72234327D01*
X185506420Y-72234329D01*
X185559222Y-72361806D01*
X185559228Y-72361817D01*
X185635885Y-72476541D01*
X185733458Y-72574114D01*
X185848182Y-72650771D01*
X185848193Y-72650777D01*
X185895283Y-72670282D01*
X185975672Y-72703580D01*
X186111007Y-72730500D01*
X186111008Y-72730500D01*
X186248992Y-72730500D01*
X186248993Y-72730500D01*
X186384328Y-72703580D01*
X186511811Y-72650775D01*
X186626542Y-72574114D01*
X186724114Y-72476542D01*
X186800775Y-72361811D01*
X186853580Y-72234328D01*
X186880500Y-72098993D01*
X186880500Y-71161007D01*
X186853580Y-71025672D01*
X186800775Y-70898189D01*
X186800774Y-70898187D01*
X186800771Y-70898182D01*
X186724114Y-70783458D01*
X186626545Y-70685889D01*
X186626542Y-70685886D01*
X186620448Y-70681814D01*
X186582569Y-70633763D01*
X186580169Y-70572625D01*
X186614163Y-70521752D01*
X186671567Y-70500576D01*
X186675451Y-70500500D01*
X194324549Y-70500500D01*
X194382740Y-70519407D01*
X194418704Y-70568907D01*
X194418704Y-70630093D01*
X194382740Y-70679593D01*
X194379552Y-70681814D01*
X194373461Y-70685883D01*
X194373454Y-70685889D01*
X194275885Y-70783458D01*
X194199228Y-70898182D01*
X194199222Y-70898193D01*
X194146420Y-71025670D01*
X194146420Y-71025672D01*
X194119500Y-71161004D01*
X194119500Y-72098995D01*
X194146420Y-72234327D01*
X194146420Y-72234329D01*
X194199222Y-72361806D01*
X194199228Y-72361817D01*
X194275885Y-72476541D01*
X194373458Y-72574114D01*
X194488182Y-72650771D01*
X194488193Y-72650777D01*
X194535283Y-72670282D01*
X194615672Y-72703580D01*
X194751007Y-72730500D01*
X194751008Y-72730500D01*
X194888992Y-72730500D01*
X194888993Y-72730500D01*
X195024328Y-72703580D01*
X195151811Y-72650775D01*
X195266542Y-72574114D01*
X195364114Y-72476542D01*
X195440775Y-72361811D01*
X195493580Y-72234328D01*
X195520500Y-72098993D01*
X195520500Y-71161007D01*
X195493580Y-71025672D01*
X195440775Y-70898189D01*
X195440774Y-70898187D01*
X195440771Y-70898182D01*
X195364114Y-70783458D01*
X195266545Y-70685889D01*
X195266542Y-70685886D01*
X195260448Y-70681814D01*
X195222569Y-70633763D01*
X195220169Y-70572625D01*
X195254163Y-70521752D01*
X195311567Y-70500576D01*
X195315451Y-70500500D01*
X198350500Y-70500500D01*
X198408691Y-70519407D01*
X198444655Y-70568907D01*
X198449500Y-70599500D01*
X198449500Y-71959521D01*
X198430593Y-72017712D01*
X198420504Y-72029525D01*
X196319525Y-74130504D01*
X196265008Y-74158281D01*
X196249521Y-74159500D01*
X192692845Y-74159500D01*
X192616421Y-74179978D01*
X192616417Y-74179980D01*
X192547901Y-74219538D01*
X191986935Y-74780504D01*
X191932418Y-74808281D01*
X191916931Y-74809500D01*
X188760436Y-74809500D01*
X188684012Y-74829978D01*
X188684008Y-74829980D01*
X188615490Y-74869539D01*
X188320547Y-75164481D01*
X188266031Y-75192258D01*
X188205599Y-75182686D01*
X188162334Y-75139422D01*
X188154919Y-75120104D01*
X188146281Y-75087865D01*
X188146280Y-75087863D01*
X188146280Y-75087862D01*
X188146279Y-75087861D01*
X188070518Y-74956639D01*
X188070516Y-74956637D01*
X188070515Y-74956635D01*
X187963365Y-74849485D01*
X187963362Y-74849483D01*
X187963360Y-74849481D01*
X187832138Y-74773720D01*
X187832140Y-74773720D01*
X187775347Y-74758503D01*
X187685766Y-74734500D01*
X187534234Y-74734500D01*
X187444652Y-74758503D01*
X187387860Y-74773720D01*
X187256639Y-74849481D01*
X187149481Y-74956639D01*
X187073720Y-75087861D01*
X187073718Y-75087865D01*
X187060939Y-75135558D01*
X187027615Y-75186872D01*
X186970493Y-75208798D01*
X186911393Y-75192962D01*
X186872888Y-75145412D01*
X186868215Y-75129248D01*
X186866395Y-75120098D01*
X186853580Y-75055672D01*
X186813542Y-74959011D01*
X186800777Y-74928193D01*
X186800771Y-74928182D01*
X186724114Y-74813458D01*
X186626541Y-74715885D01*
X186511817Y-74639228D01*
X186511806Y-74639222D01*
X186384328Y-74586420D01*
X186248995Y-74559500D01*
X186248993Y-74559500D01*
X186111007Y-74559500D01*
X186111004Y-74559500D01*
X185975672Y-74586420D01*
X185975670Y-74586420D01*
X185848193Y-74639222D01*
X185848182Y-74639228D01*
X185733458Y-74715885D01*
X185635889Y-74813454D01*
X185635883Y-74813461D01*
X185593772Y-74876483D01*
X185545721Y-74914362D01*
X185484583Y-74916762D01*
X185441454Y-74891483D01*
X185384511Y-74834539D01*
X185384511Y-74834540D01*
X182579496Y-72029525D01*
X182551719Y-71975008D01*
X182550500Y-71959521D01*
X182550500Y-70599500D01*
X182569407Y-70541309D01*
X182618907Y-70505345D01*
X182649500Y-70500500D01*
X185684549Y-70500500D01*
X185742740Y-70519407D01*
G37*
%TD.AperFunction*%
%TD*%
M02*
