%TF.GenerationSoftware,KiCad,Pcbnew,10.0.1*%
%TF.CreationDate,2026-04-24T14:58:23-04:00*%
%TF.ProjectId,CTR-0,4354522d-302e-46b6-9963-61645f706362,rev?*%
%TF.SameCoordinates,Original*%
%TF.FileFunction,Copper,L2,Bot*%
%TF.FilePolarity,Positive*%
%FSLAX46Y46*%
G04 Gerber Fmt 4.6, Leading zero omitted, Abs format (unit mm)*
G04 Created by KiCad (PCBNEW 10.0.1) date 2026-04-24 14:58:23*
%MOMM*%
%LPD*%
G01*
G04 APERTURE LIST*
G04 Aperture macros list*
%AMRoundRect*
0 Rectangle with rounded corners*
0 $1 Rounding radius*
0 $2 $3 $4 $5 $6 $7 $8 $9 X,Y pos of 4 corners*
0 Add a 4 corners polygon primitive as box body*
4,1,4,$2,$3,$4,$5,$6,$7,$8,$9,$2,$3,0*
0 Add four circle primitives for the rounded corners*
1,1,$1+$1,$2,$3*
1,1,$1+$1,$4,$5*
1,1,$1+$1,$6,$7*
1,1,$1+$1,$8,$9*
0 Add four rect primitives between the rounded corners*
20,1,$1+$1,$2,$3,$4,$5,0*
20,1,$1+$1,$4,$5,$6,$7,0*
20,1,$1+$1,$6,$7,$8,$9,0*
20,1,$1+$1,$8,$9,$2,$3,0*%
G04 Aperture macros list end*
%TA.AperFunction,ComponentPad*%
%ADD10O,1.000000X2.100000*%
%TD*%
%TA.AperFunction,ComponentPad*%
%ADD11O,1.000000X1.800000*%
%TD*%
%TA.AperFunction,ComponentPad*%
%ADD12R,1.700000X1.700000*%
%TD*%
%TA.AperFunction,ComponentPad*%
%ADD13C,1.700000*%
%TD*%
%TA.AperFunction,SMDPad,CuDef*%
%ADD14RoundRect,0.140000X-0.170000X0.140000X-0.170000X-0.140000X0.170000X-0.140000X0.170000X0.140000X0*%
%TD*%
%TA.AperFunction,SMDPad,CuDef*%
%ADD15RoundRect,0.140000X-0.140000X-0.170000X0.140000X-0.170000X0.140000X0.170000X-0.140000X0.170000X0*%
%TD*%
%TA.AperFunction,SMDPad,CuDef*%
%ADD16RoundRect,0.140000X0.170000X-0.140000X0.170000X0.140000X-0.170000X0.140000X-0.170000X-0.140000X0*%
%TD*%
%TA.AperFunction,SMDPad,CuDef*%
%ADD17RoundRect,0.225000X-0.250000X0.225000X-0.250000X-0.225000X0.250000X-0.225000X0.250000X0.225000X0*%
%TD*%
%TA.AperFunction,SMDPad,CuDef*%
%ADD18RoundRect,0.162500X-0.650000X-0.162500X0.650000X-0.162500X0.650000X0.162500X-0.650000X0.162500X0*%
%TD*%
%TA.AperFunction,SMDPad,CuDef*%
%ADD19RoundRect,0.140000X-0.219203X-0.021213X-0.021213X-0.219203X0.219203X0.021213X0.021213X0.219203X0*%
%TD*%
%TA.AperFunction,SMDPad,CuDef*%
%ADD20RoundRect,0.140000X0.140000X0.170000X-0.140000X0.170000X-0.140000X-0.170000X0.140000X-0.170000X0*%
%TD*%
%TA.AperFunction,SMDPad,CuDef*%
%ADD21RoundRect,0.135000X-0.135000X-0.185000X0.135000X-0.185000X0.135000X0.185000X-0.135000X0.185000X0*%
%TD*%
%TA.AperFunction,ViaPad*%
%ADD22C,0.600000*%
%TD*%
%TA.AperFunction,Conductor*%
%ADD23C,0.200000*%
%TD*%
G04 APERTURE END LIST*
D10*
%TO.P,J1,SH*%
%TO.N,N/C*%
X194820000Y-75810000D03*
D11*
X194820000Y-71630000D03*
D10*
X186180000Y-75810000D03*
D11*
X186180000Y-71630000D03*
%TD*%
D12*
%TO.P,J4,1,Pin_1_1*%
%TO.N,/SWCLK*%
X187960000Y-119635000D03*
D13*
%TO.P,J4,2,Pin_2_2*%
%TO.N,GND*%
X190500000Y-119635000D03*
%TO.P,J4,3,Pin_3_3*%
%TO.N,/SWD*%
X193040000Y-119635000D03*
%TD*%
D14*
%TO.P,C9,1*%
%TO.N,+3V3*%
X196400000Y-82520000D03*
%TO.P,C9,2*%
%TO.N,GND*%
X196400000Y-83480000D03*
%TD*%
D15*
%TO.P,C7,1*%
%TO.N,+3V3*%
X193800000Y-90400000D03*
%TO.P,C7,2*%
%TO.N,GND*%
X194760000Y-90400000D03*
%TD*%
%TO.P,C6,1*%
%TO.N,+3V3*%
X193800000Y-92400000D03*
%TO.P,C6,2*%
%TO.N,GND*%
X194760000Y-92400000D03*
%TD*%
D16*
%TO.P,C15,1*%
%TO.N,+1V1*%
X191900000Y-98460000D03*
%TO.P,C15,2*%
%TO.N,GND*%
X191900000Y-97500000D03*
%TD*%
D17*
%TO.P,C1,1*%
%TO.N,+5V*%
X184800000Y-78250000D03*
%TO.P,C1,2*%
%TO.N,GND*%
X184800000Y-79800000D03*
%TD*%
D14*
%TO.P,C8,1*%
%TO.N,+3V3*%
X188000000Y-91640000D03*
%TO.P,C8,2*%
%TO.N,GND*%
X188000000Y-92600000D03*
%TD*%
D15*
%TO.P,C12,1*%
%TO.N,+3V3*%
X193840000Y-94460000D03*
%TO.P,C12,2*%
%TO.N,GND*%
X194800000Y-94460000D03*
%TD*%
D12*
%TO.P,J2,1,Pin_1_1*%
%TO.N,/GPIO0*%
X181500000Y-71375000D03*
D13*
%TO.P,J2,2,Pin_2_2*%
%TO.N,/GPIO1*%
X181500000Y-73915000D03*
%TO.P,J2,3,Pin_3_3*%
%TO.N,GND*%
X181500000Y-76455000D03*
%TO.P,J2,4,Pin_4_4*%
%TO.N,/GPIO2*%
X181500000Y-78995000D03*
%TO.P,J2,5,Pin_5_5*%
%TO.N,/GPIO3*%
X181500000Y-81535000D03*
%TO.P,J2,6,Pin_6_6*%
%TO.N,/GPIO4*%
X181500000Y-84075000D03*
%TO.P,J2,7,Pin_7_7*%
%TO.N,/GPIO5*%
X181500000Y-86615000D03*
%TO.P,J2,8,Pin_8_8*%
%TO.N,GND*%
X181500000Y-89155000D03*
%TO.P,J2,9,Pin_9_9*%
%TO.N,/GPIO6*%
X181500000Y-91695000D03*
%TO.P,J2,10,Pin_10_10*%
%TO.N,/GPIO7*%
X181500000Y-94235000D03*
%TO.P,J2,11,Pin_11_11*%
%TO.N,/GPIO8*%
X181500000Y-96775000D03*
%TO.P,J2,12,Pin_12_12*%
%TO.N,/GPIO9*%
X181500000Y-99315000D03*
%TO.P,J2,13,Pin_13_13*%
%TO.N,GND*%
X181500000Y-101855000D03*
%TO.P,J2,14,Pin_14_14*%
%TO.N,/GPIO10*%
X181500000Y-104395000D03*
%TO.P,J2,15,Pin_15_15*%
%TO.N,/GPIO11*%
X181500000Y-106935000D03*
%TO.P,J2,16,Pin_16_16*%
%TO.N,/GPIO12*%
X181500000Y-109475000D03*
%TO.P,J2,17,Pin_17_17*%
%TO.N,/GPIO13*%
X181500000Y-112015000D03*
%TO.P,J2,18,Pin_18_18*%
%TO.N,GND*%
X181500000Y-114555000D03*
%TO.P,J2,19,Pin_19_19*%
%TO.N,/GPIO14*%
X181500000Y-117095000D03*
%TO.P,J2,20,Pin_20_20*%
%TO.N,/GPIO15*%
X181500000Y-119635000D03*
%TD*%
D15*
%TO.P,C10,1*%
%TO.N,+3V3*%
X193840000Y-98400000D03*
%TO.P,C10,2*%
%TO.N,GND*%
X194800000Y-98400000D03*
%TD*%
D16*
%TO.P,C16,1*%
%TO.N,+1V1*%
X189930000Y-98460000D03*
%TO.P,C16,2*%
%TO.N,GND*%
X189930000Y-97500000D03*
%TD*%
D15*
%TO.P,C11,1*%
%TO.N,+3V3*%
X193840000Y-96430000D03*
%TO.P,C11,2*%
%TO.N,GND*%
X194800000Y-96430000D03*
%TD*%
D18*
%TO.P,U3,1,~{CS}_1*%
%TO.N,/QSPI_SS*%
X187075000Y-81560000D03*
%TO.P,U3,2,DO/IO_{1}_2*%
%TO.N,/QSPI_SD1*%
X187075000Y-80290000D03*
%TO.P,U3,3,~{WP}/IO_{2}_3*%
%TO.N,/QSPI_SD2*%
X187075000Y-79020000D03*
%TO.P,U3,4,GND_4*%
%TO.N,GND*%
X187075000Y-77750000D03*
%TO.P,U3,5,DI/IO_{0}_5*%
%TO.N,/QSPI_SD0*%
X194250000Y-77750000D03*
%TO.P,U3,6,CLK_6*%
%TO.N,/QSPI_SCLK*%
X194250000Y-79020000D03*
%TO.P,U3,7,~{HOLD}/~{RESET}/IO_{3}_7*%
%TO.N,/QSPI_SD3*%
X194250000Y-80290000D03*
%TO.P,U3,8,VCC_8*%
%TO.N,+3V3*%
X194250000Y-81560000D03*
%TD*%
D19*
%TO.P,C18,1*%
%TO.N,GND*%
X194400000Y-87000000D03*
%TO.P,C18,2*%
%TO.N,+3V3*%
X195078822Y-87678822D03*
%TD*%
D12*
%TO.P,J3,1,Pin_1_1*%
%TO.N,+5V*%
X199500000Y-71375000D03*
D13*
%TO.P,J3,2,Pin_2_2*%
%TO.N,/GPIO29_ADC3*%
X199500000Y-73915000D03*
%TO.P,J3,3,Pin_3_3*%
%TO.N,GND*%
X199500000Y-76455000D03*
%TO.P,J3,4,Pin_4_4*%
%TO.N,/GPIO28_ADC2*%
X199500000Y-78995000D03*
%TO.P,J3,5,Pin_5_5*%
%TO.N,+3V3*%
X199500000Y-81535000D03*
%TO.P,J3,6,Pin_6_6*%
%TO.N,/GPIO27_ADC1*%
X199500000Y-84075000D03*
%TO.P,J3,7,Pin_7_7*%
%TO.N,/GPIO26_ADC0*%
X199500000Y-86615000D03*
%TO.P,J3,8,Pin_8_8*%
%TO.N,GND*%
X199500000Y-89155000D03*
%TO.P,J3,9,Pin_9_9*%
%TO.N,/GPIO25*%
X199500000Y-91695000D03*
%TO.P,J3,10,Pin_10_10*%
%TO.N,/GPIO24*%
X199500000Y-94235000D03*
%TO.P,J3,11,Pin_11_11*%
%TO.N,/GPIO23*%
X199500000Y-96775000D03*
%TO.P,J3,12,Pin_12_12*%
%TO.N,/GPIO22*%
X199500000Y-99315000D03*
%TO.P,J3,13,Pin_13_13*%
%TO.N,GND*%
X199500000Y-101855000D03*
%TO.P,J3,14,Pin_14_14*%
%TO.N,/GPIO21*%
X199500000Y-104395000D03*
%TO.P,J3,15,Pin_15_15*%
%TO.N,/GPIO20*%
X199500000Y-106935000D03*
%TO.P,J3,16,Pin_16_16*%
%TO.N,/GPIO19*%
X199500000Y-109475000D03*
%TO.P,J3,17,Pin_17_17*%
%TO.N,/GPIO18*%
X199500000Y-112015000D03*
%TO.P,J3,18,Pin_18_18*%
%TO.N,GND*%
X199500000Y-114555000D03*
%TO.P,J3,19,Pin_19_19*%
%TO.N,/GPIO17*%
X199500000Y-117095000D03*
%TO.P,J3,20,Pin_20_20*%
%TO.N,/GPIO16*%
X199500000Y-119635000D03*
%TD*%
D16*
%TO.P,C17,1*%
%TO.N,+1V1*%
X187960000Y-98460000D03*
%TO.P,C17,2*%
%TO.N,GND*%
X187960000Y-97500000D03*
%TD*%
D20*
%TO.P,C14,1*%
%TO.N,+3V3*%
X185960000Y-85700000D03*
%TO.P,C14,2*%
%TO.N,GND*%
X185000000Y-85700000D03*
%TD*%
D14*
%TO.P,C13,1*%
%TO.N,+3V3*%
X189000000Y-91640000D03*
%TO.P,C13,2*%
%TO.N,GND*%
X189000000Y-92600000D03*
%TD*%
D21*
%TO.P,R6,1*%
%TO.N,+3V3*%
X186000000Y-87000000D03*
%TO.P,R6,2*%
%TO.N,/QSPI_SS*%
X187020000Y-87000000D03*
%TD*%
D22*
%TO.N,GND*%
X184000000Y-100500000D03*
X186000000Y-83000000D03*
X194400000Y-113010000D03*
X185750000Y-106250000D03*
X190540689Y-73150000D03*
X195000000Y-89250000D03*
X190687500Y-95500000D03*
X196400000Y-75400000D03*
X192800000Y-83000000D03*
%TO.N,+3V3*%
X191003123Y-91307615D03*
X186000000Y-84600000D03*
X187200000Y-91600000D03*
X195200000Y-83000000D03*
X193800000Y-105600000D03*
%TO.N,/QSPI_SS*%
X187250000Y-90500000D03*
X187825306Y-104825306D03*
%TO.N,/SWCLK*%
X191673001Y-103129470D03*
%TO.N,/SWD*%
X192472053Y-103956978D03*
%TO.N,+1V1*%
X192800000Y-97724671D03*
%TO.N,/QSPI_SD3*%
X190287500Y-90950000D03*
%TO.N,/QSPI_SCLK*%
X189964568Y-90163731D03*
%TO.N,/QSPI_SD0*%
X190000000Y-89250000D03*
%TO.N,/QSPI_SD2*%
X189500000Y-88500000D03*
%TO.N,/QSPI_SD1*%
X188500000Y-88750000D03*
%TD*%
%TO.N,+5V*%
D23*
X194488629Y-72830000D02*
X198045000Y-72830000D01*
X194158629Y-72500000D02*
X194488629Y-72830000D01*
X184800000Y-75508629D02*
X187808629Y-72500000D01*
X198045000Y-72830000D02*
X199500000Y-71375000D01*
X187808629Y-72500000D02*
X194158629Y-72500000D01*
X184800000Y-78250000D02*
X184800000Y-75508629D01*
%TO.N,+3V3*%
X186000000Y-87000000D02*
X186000000Y-84600000D01*
X195200000Y-82510000D02*
X194250000Y-81560000D01*
X195200000Y-82510000D02*
X198525000Y-82510000D01*
X193800000Y-89000000D02*
X198349000Y-84451000D01*
X198349000Y-84451000D02*
X198349000Y-82686000D01*
X198349000Y-82686000D02*
X199500000Y-81535000D01*
X193800000Y-105600000D02*
X193800000Y-89000000D01*
X195200000Y-83000000D02*
X195200000Y-82510000D01*
X191200000Y-91600000D02*
X193800000Y-89000000D01*
X187200000Y-91600000D02*
X191200000Y-91600000D01*
X198525000Y-82510000D02*
X199500000Y-81535000D01*
%TO.N,/QSPI_SS*%
X187075000Y-90325000D02*
X187075000Y-87600000D01*
X186600000Y-103600000D02*
X187825306Y-104825306D01*
X186600000Y-86275000D02*
X186600000Y-103600000D01*
X187075000Y-87600000D02*
X187075000Y-81560000D01*
X187250000Y-90500000D02*
X187075000Y-90325000D01*
X187075000Y-85800000D02*
X186600000Y-86275000D01*
%TO.N,/SWCLK*%
X187960000Y-119230000D02*
X187960000Y-106842471D01*
X187960000Y-106842471D02*
X191673001Y-103129470D01*
%TO.N,/SWD*%
X193040000Y-104524926D02*
X192472053Y-103956978D01*
X193040000Y-119230000D02*
X193040000Y-104524926D01*
%TO.N,+1V1*%
X192064671Y-98460000D02*
X187960000Y-98460000D01*
X192800000Y-97724671D02*
X192064671Y-98460000D01*
%TO.N,/QSPI_SD3*%
X191500000Y-89932729D02*
X190482729Y-90950000D01*
X194250000Y-80290000D02*
X193437501Y-80290000D01*
X191500000Y-82227501D02*
X191500000Y-89932729D01*
X193437501Y-80290000D02*
X191500000Y-82227501D01*
X190482729Y-90950000D02*
X190287500Y-90950000D01*
%TO.N,/QSPI_SCLK*%
X191100000Y-81084315D02*
X191100000Y-89150000D01*
X191100000Y-89150000D02*
X190086269Y-90163731D01*
X190086269Y-90163731D02*
X189964568Y-90163731D01*
X193164315Y-79020000D02*
X191100000Y-81084315D01*
X194250000Y-79020000D02*
X193164315Y-79020000D01*
%TO.N,/QSPI_SD0*%
X190500000Y-80687501D02*
X193437501Y-77750000D01*
X190000000Y-89250000D02*
X190500000Y-88750000D01*
X190500000Y-88750000D02*
X190500000Y-80687501D01*
X193437501Y-77750000D02*
X194250000Y-77750000D01*
%TO.N,/QSPI_SD2*%
X189500000Y-81242510D02*
X187277490Y-79020000D01*
X189500000Y-88500000D02*
X189500000Y-81242510D01*
X187277490Y-79020000D02*
X187075000Y-79020000D01*
%TO.N,/QSPI_SD1*%
X188500000Y-88750000D02*
X188500000Y-81512510D01*
X187277490Y-80290000D02*
X187075000Y-80290000D01*
X188500000Y-81512510D02*
X187277490Y-80290000D01*
%TD*%
%TA.AperFunction,Conductor*%
%TO.N,GND*%
G36*
X185742740Y-70519407D02*
G01*
X185778704Y-70568907D01*
X185778704Y-70630093D01*
X185742740Y-70679593D01*
X185739552Y-70681814D01*
X185733461Y-70685883D01*
X185733454Y-70685889D01*
X185635885Y-70783458D01*
X185559228Y-70898182D01*
X185559222Y-70898193D01*
X185506420Y-71025670D01*
X185506420Y-71025672D01*
X185479500Y-71161004D01*
X185479500Y-72098995D01*
X185491375Y-72158691D01*
X185498528Y-72194655D01*
X185506420Y-72234327D01*
X185506420Y-72234329D01*
X185559222Y-72361806D01*
X185559228Y-72361817D01*
X185635885Y-72476541D01*
X185733458Y-72574114D01*
X185848182Y-72650771D01*
X185848193Y-72650777D01*
X185895283Y-72670282D01*
X185975672Y-72703580D01*
X186111007Y-72730500D01*
X186111008Y-72730500D01*
X186248992Y-72730500D01*
X186248993Y-72730500D01*
X186384328Y-72703580D01*
X186511811Y-72650775D01*
X186626542Y-72574114D01*
X186724114Y-72476542D01*
X186800775Y-72361811D01*
X186853580Y-72234328D01*
X186880500Y-72098993D01*
X186880500Y-71161007D01*
X186853580Y-71025672D01*
X186800775Y-70898189D01*
X186800774Y-70898187D01*
X186800771Y-70898182D01*
X186724114Y-70783458D01*
X186626545Y-70685889D01*
X186626542Y-70685886D01*
X186620448Y-70681814D01*
X186582569Y-70633763D01*
X186580169Y-70572625D01*
X186614163Y-70521752D01*
X186671567Y-70500576D01*
X186675451Y-70500500D01*
X194324549Y-70500500D01*
X194382740Y-70519407D01*
X194418704Y-70568907D01*
X194418704Y-70630093D01*
X194382740Y-70679593D01*
X194379552Y-70681814D01*
X194373461Y-70685883D01*
X194373454Y-70685889D01*
X194275885Y-70783458D01*
X194199228Y-70898182D01*
X194199222Y-70898193D01*
X194146420Y-71025670D01*
X194146420Y-71025672D01*
X194119500Y-71161004D01*
X194119500Y-72100500D01*
X194100593Y-72158691D01*
X194051093Y-72194655D01*
X194020500Y-72199500D01*
X187769064Y-72199500D01*
X187692640Y-72219978D01*
X187667785Y-72234329D01*
X187649739Y-72244748D01*
X187624118Y-72259540D01*
X184615489Y-75268169D01*
X184615488Y-75268168D01*
X184559539Y-75324118D01*
X184519980Y-75392636D01*
X184519978Y-75392640D01*
X184499500Y-75469064D01*
X184499500Y-77517640D01*
X184480593Y-77575831D01*
X184431093Y-77611795D01*
X184417721Y-77615005D01*
X184416870Y-77615282D01*
X184296782Y-77676470D01*
X184201470Y-77771782D01*
X184140283Y-77891867D01*
X184140281Y-77891874D01*
X184124500Y-77991510D01*
X184124500Y-78508489D01*
X184132340Y-78557986D01*
X184137395Y-78589907D01*
X184140281Y-78608125D01*
X184140283Y-78608132D01*
X184201470Y-78728217D01*
X184201472Y-78728220D01*
X184296780Y-78823528D01*
X184296782Y-78823529D01*
X184416867Y-78884716D01*
X184416869Y-78884716D01*
X184416874Y-78884719D01*
X184492541Y-78896703D01*
X184516510Y-78900500D01*
X184516512Y-78900500D01*
X185083490Y-78900500D01*
X185104885Y-78897111D01*
X185183126Y-78884719D01*
X185303220Y-78823528D01*
X185398528Y-78728220D01*
X185459719Y-78608126D01*
X185475500Y-78508488D01*
X185475500Y-77991512D01*
X185459719Y-77891874D01*
X185459716Y-77891869D01*
X185459716Y-77891867D01*
X185398529Y-77771782D01*
X185398528Y-77771780D01*
X185303220Y-77676472D01*
X185303217Y-77676470D01*
X185183129Y-77615282D01*
X185175718Y-77612874D01*
X185176185Y-77611434D01*
X185129491Y-77587638D01*
X185101718Y-77533119D01*
X185100500Y-77517640D01*
X185100500Y-75674108D01*
X185119407Y-75615917D01*
X185129496Y-75604104D01*
X185310496Y-75423104D01*
X185365013Y-75395327D01*
X185425445Y-75404898D01*
X185468710Y-75448163D01*
X185479500Y-75493108D01*
X185479500Y-76428993D01*
X185505244Y-76558418D01*
X185506420Y-76564327D01*
X185506420Y-76564329D01*
X185559222Y-76691806D01*
X185559228Y-76691817D01*
X185635885Y-76806541D01*
X185733458Y-76904114D01*
X185848182Y-76980771D01*
X185848193Y-76980777D01*
X185895283Y-77000282D01*
X185975672Y-77033580D01*
X186111007Y-77060500D01*
X186111008Y-77060500D01*
X186248992Y-77060500D01*
X186248993Y-77060500D01*
X186384328Y-77033580D01*
X186511811Y-76980775D01*
X186626542Y-76904114D01*
X186724114Y-76806542D01*
X186800775Y-76691811D01*
X186853580Y-76564328D01*
X186880500Y-76428993D01*
X186880500Y-75563010D01*
X186899407Y-75504819D01*
X186948907Y-75468855D01*
X187010093Y-75468855D01*
X187059593Y-75504819D01*
X187070004Y-75526653D01*
X187071237Y-75526143D01*
X187073720Y-75532138D01*
X187149481Y-75663360D01*
X187149483Y-75663362D01*
X187149485Y-75663365D01*
X187256635Y-75770515D01*
X187256637Y-75770516D01*
X187256639Y-75770518D01*
X187387861Y-75846279D01*
X187387859Y-75846279D01*
X187387863Y-75846280D01*
X187387865Y-75846281D01*
X187534234Y-75885500D01*
X187534236Y-75885500D01*
X187685764Y-75885500D01*
X187685766Y-75885500D01*
X187832135Y-75846281D01*
X187832137Y-75846279D01*
X187832139Y-75846279D01*
X187963360Y-75770518D01*
X187963360Y-75770517D01*
X187963365Y-75770515D01*
X188070515Y-75663365D01*
X188082951Y-75641825D01*
X188146279Y-75532139D01*
X188146279Y-75532137D01*
X188146281Y-75532135D01*
X188185500Y-75385766D01*
X188185500Y-75234234D01*
X188146281Y-75087865D01*
X188146279Y-75087861D01*
X188146279Y-75087860D01*
X188070518Y-74956639D01*
X188070516Y-74956637D01*
X188070515Y-74956635D01*
X187963365Y-74849485D01*
X187963362Y-74849483D01*
X187963360Y-74849481D01*
X187832138Y-74773720D01*
X187832140Y-74773720D01*
X187775347Y-74758503D01*
X187685766Y-74734500D01*
X187534234Y-74734500D01*
X187444652Y-74758503D01*
X187387860Y-74773720D01*
X187256639Y-74849481D01*
X187149481Y-74956639D01*
X187073720Y-75087861D01*
X187073718Y-75087865D01*
X187060939Y-75135558D01*
X187027615Y-75186872D01*
X186970493Y-75208798D01*
X186911393Y-75192962D01*
X186872888Y-75145412D01*
X186868215Y-75129248D01*
X186853580Y-75055672D01*
X186816229Y-74965499D01*
X186800777Y-74928193D01*
X186800771Y-74928182D01*
X186724114Y-74813458D01*
X186626541Y-74715885D01*
X186511817Y-74639228D01*
X186511806Y-74639222D01*
X186384329Y-74586420D01*
X186384322Y-74586418D01*
X186368180Y-74583207D01*
X186314797Y-74553309D01*
X186289183Y-74497743D01*
X186301122Y-74437734D01*
X186317489Y-74416110D01*
X187904104Y-72829496D01*
X187958621Y-72801719D01*
X187974108Y-72800500D01*
X193993150Y-72800500D01*
X194051341Y-72819407D01*
X194063154Y-72829496D01*
X194248169Y-73014511D01*
X194248168Y-73014511D01*
X194304118Y-73070460D01*
X194372636Y-73110019D01*
X194372640Y-73110021D01*
X194449064Y-73130499D01*
X194449066Y-73130500D01*
X194449067Y-73130500D01*
X198084563Y-73130500D01*
X198084563Y-73130499D01*
X198160989Y-73110021D01*
X198229511Y-73070460D01*
X198285460Y-73014511D01*
X198845475Y-72454496D01*
X198899992Y-72426719D01*
X198915479Y-72425500D01*
X200369746Y-72425500D01*
X200369748Y-72425500D01*
X200381183Y-72423225D01*
X200441942Y-72430413D01*
X200486874Y-72471943D01*
X200499500Y-72520322D01*
X200499500Y-73193646D01*
X200480593Y-73251837D01*
X200431093Y-73287801D01*
X200369907Y-73287801D01*
X200320407Y-73251837D01*
X200318187Y-73248652D01*
X200315979Y-73245348D01*
X200315977Y-73245345D01*
X200169655Y-73099023D01*
X200169651Y-73099020D01*
X199997597Y-72984058D01*
X199806418Y-72904869D01*
X199603467Y-72864500D01*
X199603465Y-72864500D01*
X199396535Y-72864500D01*
X199396532Y-72864500D01*
X199193581Y-72904869D01*
X199002402Y-72984058D01*
X198830348Y-73099020D01*
X198684020Y-73245348D01*
X198569058Y-73417402D01*
X198489869Y-73608581D01*
X198449500Y-73811532D01*
X198449500Y-74018467D01*
X198489869Y-74221418D01*
X198569058Y-74412597D01*
X198681816Y-74581352D01*
X198684023Y-74584655D01*
X198830345Y-74730977D01*
X199002402Y-74845941D01*
X199193580Y-74925130D01*
X199396535Y-74965500D01*
X199396536Y-74965500D01*
X199603464Y-74965500D01*
X199603465Y-74965500D01*
X199806420Y-74925130D01*
X199997598Y-74845941D01*
X200169655Y-74730977D01*
X200315977Y-74584655D01*
X200318184Y-74581352D01*
X200366233Y-74543472D01*
X200427372Y-74541070D01*
X200478246Y-74575062D01*
X200499424Y-74632465D01*
X200499500Y-74636353D01*
X200499500Y-75734546D01*
X200480593Y-75792737D01*
X200431093Y-75828701D01*
X200369907Y-75828701D01*
X200320407Y-75792737D01*
X200318186Y-75789550D01*
X200315591Y-75785667D01*
X200313173Y-75783249D01*
X199917788Y-76178632D01*
X199900099Y-76147993D01*
X199807007Y-76054901D01*
X199776365Y-76037210D01*
X200171750Y-75641826D01*
X200169329Y-75639405D01*
X199997374Y-75524508D01*
X199997360Y-75524501D01*
X199806272Y-75445349D01*
X199603418Y-75405000D01*
X199396581Y-75405000D01*
X199193727Y-75445349D01*
X199002639Y-75524501D01*
X199002630Y-75524505D01*
X198830665Y-75639410D01*
X198828248Y-75641825D01*
X199223633Y-76037210D01*
X199192993Y-76054901D01*
X199099901Y-76147993D01*
X199082210Y-76178633D01*
X198686825Y-75783248D01*
X198684410Y-75785665D01*
X198569505Y-75957630D01*
X198569501Y-75957639D01*
X198490349Y-76148727D01*
X198450000Y-76351581D01*
X198450000Y-76558418D01*
X198490349Y-76761272D01*
X198569501Y-76952360D01*
X198569508Y-76952374D01*
X198684405Y-77124329D01*
X198686826Y-77126750D01*
X199082210Y-76731365D01*
X199099901Y-76762007D01*
X199192993Y-76855099D01*
X199223632Y-76872788D01*
X198828249Y-77268173D01*
X198830670Y-77270594D01*
X199002625Y-77385491D01*
X199002639Y-77385498D01*
X199193727Y-77464650D01*
X199396581Y-77504999D01*
X199396586Y-77505000D01*
X199603414Y-77505000D01*
X199603418Y-77504999D01*
X199806272Y-77464650D01*
X199997360Y-77385498D01*
X199997366Y-77385495D01*
X200169333Y-77270591D01*
X200171750Y-77268173D01*
X199776366Y-76872789D01*
X199807007Y-76855099D01*
X199900099Y-76762007D01*
X199917789Y-76731366D01*
X200313173Y-77126750D01*
X200315589Y-77124335D01*
X200318181Y-77120456D01*
X200366229Y-77082574D01*
X200427367Y-77080168D01*
X200478243Y-77114158D01*
X200499423Y-77171561D01*
X200499500Y-77175453D01*
X200499500Y-78273646D01*
X200480593Y-78331837D01*
X200431093Y-78367801D01*
X200369907Y-78367801D01*
X200320407Y-78331837D01*
X200318187Y-78328652D01*
X200315979Y-78325348D01*
X200315977Y-78325345D01*
X200169655Y-78179023D01*
X200169651Y-78179020D01*
X199997597Y-78064058D01*
X199806418Y-77984869D01*
X199603467Y-77944500D01*
X199603465Y-77944500D01*
X199396535Y-77944500D01*
X199396532Y-77944500D01*
X199193581Y-77984869D01*
X199002402Y-78064058D01*
X198830348Y-78179020D01*
X198684020Y-78325348D01*
X198569058Y-78497402D01*
X198489869Y-78688581D01*
X198449500Y-78891532D01*
X198449500Y-79098467D01*
X198489869Y-79301418D01*
X198569058Y-79492597D01*
X198681816Y-79661352D01*
X198684023Y-79664655D01*
X198830345Y-79810977D01*
X199002402Y-79925941D01*
X199193580Y-80005130D01*
X199396535Y-80045500D01*
X199396536Y-80045500D01*
X199603464Y-80045500D01*
X199603465Y-80045500D01*
X199806420Y-80005130D01*
X199997598Y-79925941D01*
X200169655Y-79810977D01*
X200315977Y-79664655D01*
X200318184Y-79661352D01*
X200366233Y-79623472D01*
X200427372Y-79621070D01*
X200478246Y-79655062D01*
X200499424Y-79712465D01*
X200499500Y-79716353D01*
X200499500Y-80813646D01*
X200480593Y-80871837D01*
X200431093Y-80907801D01*
X200369907Y-80907801D01*
X200320407Y-80871837D01*
X200318187Y-80868652D01*
X200315979Y-80865348D01*
X200315977Y-80865345D01*
X200169655Y-80719023D01*
X200169651Y-80719020D01*
X199997597Y-80604058D01*
X199806418Y-80524869D01*
X199603467Y-80484500D01*
X199603465Y-80484500D01*
X199396535Y-80484500D01*
X199396532Y-80484500D01*
X199193581Y-80524869D01*
X199002402Y-80604058D01*
X198830348Y-80719020D01*
X198684020Y-80865348D01*
X198569058Y-81037402D01*
X198489869Y-81228581D01*
X198449500Y-81431532D01*
X198449500Y-81638467D01*
X198489869Y-81841418D01*
X198514976Y-81902030D01*
X198531282Y-81941398D01*
X198546196Y-81977402D01*
X198548306Y-82004217D01*
X198552513Y-82030774D01*
X198550680Y-82034371D01*
X198550997Y-82038399D01*
X198524736Y-82085291D01*
X198429526Y-82180503D01*
X198375010Y-82208281D01*
X198359522Y-82209500D01*
X196922047Y-82209500D01*
X196863856Y-82190593D01*
X196852049Y-82180509D01*
X196768316Y-82096776D01*
X196768314Y-82096775D01*
X196768313Y-82096774D01*
X196659489Y-82046029D01*
X196659488Y-82046028D01*
X196642958Y-82043852D01*
X196609901Y-82039500D01*
X196609899Y-82039500D01*
X196190103Y-82039500D01*
X196190092Y-82039501D01*
X196140513Y-82046027D01*
X196140511Y-82046027D01*
X196031686Y-82096774D01*
X196031684Y-82096775D01*
X196031684Y-82096776D01*
X195947954Y-82180505D01*
X195893440Y-82208281D01*
X195877953Y-82209500D01*
X195365479Y-82209500D01*
X195357881Y-82207031D01*
X195349992Y-82208281D01*
X195329336Y-82197756D01*
X195307288Y-82190593D01*
X195295475Y-82180504D01*
X195195418Y-82080447D01*
X195167641Y-82025930D01*
X195177212Y-81965498D01*
X195195419Y-81940439D01*
X195199512Y-81936347D01*
X195252720Y-81827509D01*
X195263000Y-81756949D01*
X195262999Y-81363052D01*
X195252720Y-81292491D01*
X195252719Y-81292489D01*
X195252718Y-81292485D01*
X195199514Y-81183656D01*
X195199512Y-81183654D01*
X195199512Y-81183653D01*
X195113847Y-81097988D01*
X195005009Y-81044780D01*
X194934449Y-81034500D01*
X194934445Y-81034500D01*
X193565556Y-81034500D01*
X193565548Y-81034501D01*
X193494995Y-81044778D01*
X193494985Y-81044781D01*
X193386156Y-81097985D01*
X193300487Y-81183654D01*
X193257273Y-81272050D01*
X193247280Y-81292491D01*
X193237001Y-81363048D01*
X193237000Y-81363054D01*
X193237000Y-81756943D01*
X193237001Y-81756951D01*
X193247278Y-81827504D01*
X193247281Y-81827514D01*
X193300485Y-81936343D01*
X193300487Y-81936345D01*
X193300488Y-81936347D01*
X193386153Y-82022012D01*
X193494991Y-82075220D01*
X193565551Y-82085500D01*
X194309520Y-82085499D01*
X194367711Y-82104406D01*
X194379524Y-82114495D01*
X194808603Y-82543574D01*
X194836380Y-82598091D01*
X194826809Y-82658523D01*
X194808608Y-82683576D01*
X194799500Y-82692684D01*
X194733609Y-82806809D01*
X194727554Y-82829407D01*
X194699500Y-82934108D01*
X194699500Y-83065892D01*
X194720444Y-83144058D01*
X194733609Y-83193190D01*
X194799496Y-83307309D01*
X194799498Y-83307311D01*
X194799500Y-83307314D01*
X194892686Y-83400500D01*
X194892688Y-83400501D01*
X194892690Y-83400503D01*
X195006810Y-83466390D01*
X195006808Y-83466390D01*
X195006812Y-83466391D01*
X195006814Y-83466392D01*
X195134108Y-83500500D01*
X195134110Y-83500500D01*
X195265890Y-83500500D01*
X195265892Y-83500500D01*
X195393186Y-83466392D01*
X195393188Y-83466390D01*
X195393190Y-83466390D01*
X195507309Y-83400503D01*
X195507309Y-83400502D01*
X195507314Y-83400500D01*
X195600500Y-83307314D01*
X195605507Y-83298642D01*
X195666390Y-83193190D01*
X195666390Y-83193188D01*
X195666392Y-83193186D01*
X195700500Y-83065892D01*
X195700500Y-82934108D01*
X195700499Y-82934107D01*
X195699653Y-82927676D01*
X195701171Y-82927476D01*
X195702244Y-82907039D01*
X195702244Y-82878907D01*
X195703836Y-82876715D01*
X195703978Y-82874013D01*
X195721671Y-82852167D01*
X195738208Y-82829407D01*
X195740783Y-82828570D01*
X195742488Y-82826466D01*
X195796399Y-82810500D01*
X195861759Y-82810500D01*
X195919950Y-82829407D01*
X195942855Y-82852717D01*
X195946771Y-82858310D01*
X195946775Y-82858314D01*
X195946776Y-82858316D01*
X196031684Y-82943224D01*
X196140513Y-82993972D01*
X196190099Y-83000500D01*
X196609900Y-83000499D01*
X196659487Y-82993972D01*
X196659488Y-82993972D01*
X196718137Y-82966622D01*
X196768316Y-82943224D01*
X196853224Y-82858316D01*
X196853225Y-82858312D01*
X196853228Y-82858310D01*
X196857145Y-82852717D01*
X196906009Y-82815894D01*
X196938241Y-82810500D01*
X197949500Y-82810500D01*
X198007691Y-82829407D01*
X198043655Y-82878907D01*
X198048500Y-82909500D01*
X198048500Y-84285520D01*
X198029593Y-84343711D01*
X198019504Y-84355524D01*
X195274932Y-87100095D01*
X195220415Y-87127872D01*
X195171067Y-87123120D01*
X195160075Y-87119119D01*
X195160074Y-87119119D01*
X195039996Y-87119119D01*
X194969734Y-87144692D01*
X194927158Y-87160188D01*
X194887478Y-87190636D01*
X194590635Y-87487480D01*
X194560188Y-87527157D01*
X194519119Y-87639996D01*
X194519119Y-87760074D01*
X194523120Y-87771067D01*
X194525256Y-87832215D01*
X194500095Y-87874931D01*
X193615489Y-88759539D01*
X193615489Y-88759540D01*
X191459178Y-90915849D01*
X191404661Y-90943626D01*
X191344229Y-90934055D01*
X191336437Y-90929629D01*
X191327029Y-90923707D01*
X191310437Y-90907115D01*
X191196309Y-90841223D01*
X191195746Y-90841072D01*
X191190797Y-90837957D01*
X191172366Y-90815845D01*
X191153093Y-90794440D01*
X191152886Y-90792474D01*
X191151622Y-90790958D01*
X191149708Y-90762239D01*
X191146697Y-90733590D01*
X191147678Y-90731781D01*
X191147554Y-90729908D01*
X191155866Y-90716701D01*
X191173528Y-90684171D01*
X191740460Y-90117240D01*
X191759339Y-90084540D01*
X191780021Y-90048718D01*
X191800500Y-89972291D01*
X191800500Y-82392979D01*
X191819407Y-82334788D01*
X191829490Y-82322981D01*
X193345782Y-80806688D01*
X193400297Y-80778913D01*
X193459263Y-80787753D01*
X193494991Y-80805220D01*
X193565551Y-80815500D01*
X194934448Y-80815499D01*
X194982042Y-80808565D01*
X195005004Y-80805221D01*
X195005005Y-80805220D01*
X195005009Y-80805220D01*
X195005011Y-80805218D01*
X195005014Y-80805218D01*
X195113843Y-80752014D01*
X195113843Y-80752013D01*
X195113847Y-80752012D01*
X195199512Y-80666347D01*
X195252720Y-80557509D01*
X195263000Y-80486949D01*
X195262999Y-80093052D01*
X195256072Y-80045499D01*
X195252721Y-80022495D01*
X195252718Y-80022485D01*
X195199514Y-79913656D01*
X195199512Y-79913654D01*
X195199512Y-79913653D01*
X195113847Y-79827988D01*
X195005009Y-79774780D01*
X194934449Y-79764500D01*
X194934445Y-79764500D01*
X193565556Y-79764500D01*
X193565548Y-79764501D01*
X193494995Y-79774778D01*
X193494985Y-79774781D01*
X193386156Y-79827985D01*
X193300487Y-79913654D01*
X193247279Y-80022493D01*
X193246428Y-80028335D01*
X193219326Y-80083191D01*
X193218467Y-80084061D01*
X191569504Y-81733025D01*
X191514987Y-81760802D01*
X191454555Y-81751231D01*
X191411290Y-81707966D01*
X191400500Y-81663021D01*
X191400500Y-81249793D01*
X191419407Y-81191602D01*
X191429490Y-81179795D01*
X193186711Y-79422573D01*
X193241226Y-79394798D01*
X193301658Y-79404369D01*
X193326713Y-79422572D01*
X193386153Y-79482012D01*
X193494991Y-79535220D01*
X193565551Y-79545500D01*
X194934448Y-79545499D01*
X194982042Y-79538565D01*
X195005004Y-79535221D01*
X195005005Y-79535220D01*
X195005009Y-79535220D01*
X195005011Y-79535218D01*
X195005014Y-79535218D01*
X195113843Y-79482014D01*
X195113843Y-79482013D01*
X195113847Y-79482012D01*
X195199512Y-79396347D01*
X195252720Y-79287509D01*
X195263000Y-79216949D01*
X195262999Y-78823052D01*
X195252720Y-78752491D01*
X195252719Y-78752489D01*
X195252718Y-78752485D01*
X195199514Y-78643656D01*
X195199512Y-78643654D01*
X195199512Y-78643653D01*
X195113847Y-78557988D01*
X195005009Y-78504780D01*
X194934449Y-78494500D01*
X194934445Y-78494500D01*
X193565556Y-78494500D01*
X193565548Y-78494501D01*
X193494995Y-78504778D01*
X193494985Y-78504781D01*
X193386156Y-78557985D01*
X193386155Y-78557986D01*
X193386153Y-78557987D01*
X193386153Y-78557988D01*
X193300488Y-78643653D01*
X193300487Y-78643654D01*
X193300486Y-78643656D01*
X193300484Y-78643658D01*
X193290549Y-78663981D01*
X193248006Y-78707955D01*
X193201609Y-78719500D01*
X193131979Y-78719500D01*
X193073788Y-78700593D01*
X193037824Y-78651093D01*
X193037824Y-78589907D01*
X193061975Y-78550497D01*
X193345780Y-78266691D01*
X193400297Y-78238913D01*
X193459263Y-78247753D01*
X193494991Y-78265220D01*
X193565551Y-78275500D01*
X194934448Y-78275499D01*
X194982042Y-78268565D01*
X195005004Y-78265221D01*
X195005005Y-78265220D01*
X195005009Y-78265220D01*
X195005011Y-78265218D01*
X195005014Y-78265218D01*
X195113843Y-78212014D01*
X195113843Y-78212013D01*
X195113847Y-78212012D01*
X195199512Y-78126347D01*
X195252720Y-78017509D01*
X195263000Y-77946949D01*
X195262999Y-77553052D01*
X195255999Y-77504999D01*
X195252721Y-77482495D01*
X195252718Y-77482485D01*
X195199514Y-77373656D01*
X195199512Y-77373654D01*
X195199512Y-77373653D01*
X195113847Y-77287988D01*
X195005009Y-77234780D01*
X194985020Y-77231867D01*
X194970409Y-77224385D01*
X194959836Y-77213768D01*
X194946401Y-77207131D01*
X194938787Y-77192634D01*
X194927233Y-77181032D01*
X194924919Y-77166225D01*
X194917953Y-77152961D01*
X194920314Y-77136759D01*
X194917786Y-77120581D01*
X194924615Y-77107243D01*
X194926777Y-77092416D01*
X194938211Y-77080695D01*
X194945675Y-77066121D01*
X194959040Y-77059345D01*
X194969504Y-77048620D01*
X194996219Y-77039171D01*
X195024328Y-77033580D01*
X195151811Y-76980775D01*
X195266542Y-76904114D01*
X195364114Y-76806542D01*
X195440775Y-76691811D01*
X195493580Y-76564328D01*
X195520500Y-76428993D01*
X195520500Y-75191007D01*
X195493580Y-75055672D01*
X195456229Y-74965499D01*
X195440777Y-74928193D01*
X195440771Y-74928182D01*
X195364114Y-74813458D01*
X195266541Y-74715885D01*
X195151817Y-74639228D01*
X195151806Y-74639222D01*
X195024328Y-74586420D01*
X194888995Y-74559500D01*
X194888993Y-74559500D01*
X194751007Y-74559500D01*
X194751004Y-74559500D01*
X194615672Y-74586420D01*
X194615670Y-74586420D01*
X194488193Y-74639222D01*
X194488182Y-74639228D01*
X194373458Y-74715885D01*
X194275885Y-74813458D01*
X194199228Y-74928182D01*
X194199222Y-74928193D01*
X194146420Y-75055670D01*
X194131784Y-75129249D01*
X194101886Y-75182633D01*
X194046321Y-75208248D01*
X193986311Y-75196311D01*
X193944779Y-75151380D01*
X193939060Y-75135558D01*
X193926281Y-75087865D01*
X193926278Y-75087860D01*
X193850518Y-74956639D01*
X193850516Y-74956637D01*
X193850515Y-74956635D01*
X193743365Y-74849485D01*
X193743362Y-74849483D01*
X193743360Y-74849481D01*
X193612138Y-74773720D01*
X193612140Y-74773720D01*
X193555347Y-74758503D01*
X193465766Y-74734500D01*
X193314234Y-74734500D01*
X193224652Y-74758503D01*
X193167860Y-74773720D01*
X193036639Y-74849481D01*
X192929481Y-74956639D01*
X192853720Y-75087860D01*
X192836700Y-75151380D01*
X192814500Y-75234234D01*
X192814500Y-75385766D01*
X192836820Y-75469067D01*
X192853720Y-75532139D01*
X192929481Y-75663360D01*
X192929483Y-75663362D01*
X192929485Y-75663365D01*
X193036635Y-75770515D01*
X193036637Y-75770516D01*
X193036639Y-75770518D01*
X193167861Y-75846279D01*
X193167859Y-75846279D01*
X193167863Y-75846280D01*
X193167865Y-75846281D01*
X193314234Y-75885500D01*
X193314236Y-75885500D01*
X193465764Y-75885500D01*
X193465766Y-75885500D01*
X193612135Y-75846281D01*
X193612137Y-75846279D01*
X193612139Y-75846279D01*
X193743360Y-75770518D01*
X193743360Y-75770517D01*
X193743365Y-75770515D01*
X193850515Y-75663365D01*
X193864346Y-75639410D01*
X193877909Y-75615917D01*
X193926281Y-75532135D01*
X193926282Y-75532129D01*
X193928763Y-75526143D01*
X193931456Y-75527258D01*
X193958181Y-75486086D01*
X194015297Y-75464147D01*
X194074401Y-75479970D01*
X194112917Y-75527512D01*
X194119500Y-75563010D01*
X194119500Y-76428993D01*
X194145244Y-76558418D01*
X194146420Y-76564327D01*
X194146420Y-76564329D01*
X194199222Y-76691806D01*
X194199228Y-76691817D01*
X194275885Y-76806541D01*
X194373458Y-76904114D01*
X194488182Y-76980771D01*
X194488193Y-76980777D01*
X194616773Y-77034036D01*
X194663299Y-77073772D01*
X194677583Y-77133267D01*
X194654168Y-77189795D01*
X194602000Y-77221765D01*
X194578888Y-77224500D01*
X193565556Y-77224500D01*
X193565548Y-77224501D01*
X193494995Y-77234778D01*
X193494985Y-77234781D01*
X193386156Y-77287985D01*
X193300487Y-77373654D01*
X193247279Y-77482493D01*
X193246428Y-77488335D01*
X193219326Y-77543191D01*
X193218467Y-77544061D01*
X190315489Y-80447041D01*
X190315488Y-80447040D01*
X190259539Y-80502990D01*
X190219980Y-80571508D01*
X190219978Y-80571512D01*
X190199500Y-80647936D01*
X190199500Y-88584521D01*
X190180593Y-88642712D01*
X190170504Y-88654525D01*
X190167089Y-88657940D01*
X190112572Y-88685717D01*
X190052140Y-88676146D01*
X190008875Y-88632881D01*
X189999304Y-88572449D01*
X190000177Y-88568343D01*
X190000500Y-88565891D01*
X190000500Y-88434109D01*
X189997744Y-88423824D01*
X189966392Y-88306814D01*
X189966390Y-88306810D01*
X189966390Y-88306809D01*
X189900503Y-88192690D01*
X189900501Y-88192688D01*
X189900500Y-88192686D01*
X189829494Y-88121680D01*
X189801719Y-88067166D01*
X189800500Y-88051679D01*
X189800500Y-81202949D01*
X189800499Y-81202945D01*
X189800491Y-81202917D01*
X189795331Y-81183656D01*
X189795330Y-81183652D01*
X189795330Y-81183653D01*
X189780022Y-81126522D01*
X189780020Y-81126519D01*
X189780020Y-81126517D01*
X189740463Y-81058003D01*
X189740462Y-81058002D01*
X189740461Y-81058001D01*
X189740460Y-81057999D01*
X188092321Y-79409860D01*
X188064544Y-79355343D01*
X188073385Y-79296374D01*
X188077720Y-79287509D01*
X188088000Y-79216949D01*
X188087999Y-78823052D01*
X188077720Y-78752491D01*
X188077719Y-78752489D01*
X188077718Y-78752485D01*
X188024514Y-78643656D01*
X188024512Y-78643654D01*
X188024512Y-78643653D01*
X187938847Y-78557988D01*
X187830009Y-78504780D01*
X187759449Y-78494500D01*
X187759445Y-78494500D01*
X186390556Y-78494500D01*
X186390548Y-78494501D01*
X186319995Y-78504778D01*
X186319985Y-78504781D01*
X186211156Y-78557985D01*
X186125487Y-78643654D01*
X186094052Y-78707955D01*
X186072280Y-78752491D01*
X186062001Y-78823048D01*
X186062000Y-78823054D01*
X186062000Y-79216943D01*
X186062001Y-79216951D01*
X186072278Y-79287504D01*
X186072281Y-79287514D01*
X186125485Y-79396343D01*
X186125487Y-79396345D01*
X186125488Y-79396347D01*
X186211153Y-79482012D01*
X186319991Y-79535220D01*
X186390551Y-79545500D01*
X187337010Y-79545499D01*
X187344607Y-79547967D01*
X187352497Y-79546718D01*
X187373152Y-79557242D01*
X187395201Y-79564406D01*
X187407014Y-79574495D01*
X187428015Y-79595496D01*
X187455792Y-79650013D01*
X187446221Y-79710445D01*
X187402956Y-79753710D01*
X187358011Y-79764500D01*
X186390556Y-79764500D01*
X186390548Y-79764501D01*
X186319995Y-79774778D01*
X186319985Y-79774781D01*
X186211156Y-79827985D01*
X186125487Y-79913654D01*
X186080767Y-80005130D01*
X186072280Y-80022491D01*
X186062001Y-80093048D01*
X186062000Y-80093054D01*
X186062000Y-80486943D01*
X186062001Y-80486951D01*
X186072278Y-80557504D01*
X186072281Y-80557514D01*
X186125485Y-80666343D01*
X186125487Y-80666345D01*
X186125488Y-80666347D01*
X186211153Y-80752012D01*
X186319991Y-80805220D01*
X186390551Y-80815500D01*
X187337010Y-80815499D01*
X187344607Y-80817967D01*
X187352497Y-80816718D01*
X187373152Y-80827242D01*
X187395201Y-80834406D01*
X187407014Y-80844495D01*
X187428015Y-80865496D01*
X187455792Y-80920013D01*
X187446221Y-80980445D01*
X187402956Y-81023710D01*
X187358011Y-81034500D01*
X186390556Y-81034500D01*
X186390548Y-81034501D01*
X186319995Y-81044778D01*
X186319985Y-81044781D01*
X186211156Y-81097985D01*
X186125487Y-81183654D01*
X186082273Y-81272050D01*
X186072280Y-81292491D01*
X186062001Y-81363048D01*
X186062000Y-81363054D01*
X186062000Y-81756943D01*
X186062001Y-81756951D01*
X186072278Y-81827504D01*
X186072281Y-81827514D01*
X186125485Y-81936343D01*
X186125487Y-81936345D01*
X186125488Y-81936347D01*
X186211153Y-82022012D01*
X186319991Y-82075220D01*
X186390551Y-82085500D01*
X186675500Y-82085499D01*
X186733690Y-82104406D01*
X186769654Y-82153906D01*
X186774500Y-82184499D01*
X186774500Y-85634521D01*
X186755593Y-85692712D01*
X186745503Y-85704525D01*
X186609502Y-85840525D01*
X186554986Y-85868302D01*
X186494554Y-85858730D01*
X186451289Y-85815466D01*
X186440499Y-85770523D01*
X186440499Y-85490100D01*
X186433972Y-85440513D01*
X186433972Y-85440511D01*
X186383225Y-85331686D01*
X186383223Y-85331683D01*
X186329496Y-85277955D01*
X186325870Y-85270838D01*
X186319407Y-85266143D01*
X186312242Y-85244091D01*
X186301719Y-85223438D01*
X186300500Y-85207952D01*
X186300500Y-85048321D01*
X186319407Y-84990130D01*
X186329490Y-84978323D01*
X186400500Y-84907314D01*
X186466392Y-84793186D01*
X186500500Y-84665892D01*
X186500500Y-84534108D01*
X186466392Y-84406814D01*
X186466390Y-84406811D01*
X186466390Y-84406809D01*
X186400503Y-84292690D01*
X186400501Y-84292688D01*
X186400500Y-84292686D01*
X186307314Y-84199500D01*
X186307311Y-84199498D01*
X186307309Y-84199496D01*
X186193189Y-84133609D01*
X186193191Y-84133609D01*
X186143799Y-84120375D01*
X186065892Y-84099500D01*
X185934108Y-84099500D01*
X185856200Y-84120375D01*
X185806809Y-84133609D01*
X185692690Y-84199496D01*
X185599496Y-84292690D01*
X185533609Y-84406809D01*
X185533608Y-84406814D01*
X185499500Y-84534108D01*
X185499500Y-84665892D01*
X185510740Y-84707840D01*
X185533609Y-84793190D01*
X185599496Y-84907309D01*
X185599498Y-84907311D01*
X185599500Y-84907314D01*
X185670505Y-84978319D01*
X185674130Y-84985434D01*
X185680593Y-84990130D01*
X185687756Y-85012178D01*
X185698281Y-85032834D01*
X185699500Y-85048321D01*
X185699500Y-85147419D01*
X185680593Y-85205610D01*
X185642340Y-85237143D01*
X185621687Y-85246773D01*
X185536774Y-85331686D01*
X185486029Y-85440510D01*
X185486028Y-85440511D01*
X185479500Y-85490100D01*
X185479500Y-85909896D01*
X185479501Y-85909907D01*
X185486027Y-85959486D01*
X185486027Y-85959488D01*
X185536774Y-86068313D01*
X185536775Y-86068314D01*
X185536776Y-86068316D01*
X185621684Y-86153224D01*
X185642340Y-86162856D01*
X185687087Y-86204584D01*
X185699500Y-86252580D01*
X185699500Y-86465024D01*
X185680593Y-86523215D01*
X185670504Y-86535028D01*
X185669597Y-86535934D01*
X185669596Y-86535935D01*
X185615505Y-86590026D01*
X185585933Y-86619598D01*
X185535932Y-86726824D01*
X185535932Y-86726825D01*
X185529500Y-86775685D01*
X185529500Y-87224314D01*
X185535932Y-87273174D01*
X185535932Y-87273175D01*
X185585933Y-87380401D01*
X185585934Y-87380402D01*
X185585935Y-87380404D01*
X185669596Y-87464065D01*
X185669597Y-87464065D01*
X185669598Y-87464066D01*
X185776824Y-87514067D01*
X185776825Y-87514067D01*
X185776827Y-87514068D01*
X185825684Y-87520500D01*
X185825685Y-87520500D01*
X186174315Y-87520500D01*
X186174316Y-87520500D01*
X186187574Y-87518754D01*
X186247733Y-87529900D01*
X186289853Y-87574280D01*
X186299500Y-87616906D01*
X186299500Y-103639564D01*
X186319978Y-103715988D01*
X186319980Y-103715992D01*
X186350543Y-103768928D01*
X186359540Y-103784511D01*
X187295811Y-104720782D01*
X187323587Y-104775297D01*
X187324806Y-104790784D01*
X187324806Y-104891198D01*
X187354885Y-105003457D01*
X187358915Y-105018496D01*
X187424802Y-105132615D01*
X187424804Y-105132617D01*
X187424806Y-105132620D01*
X187517992Y-105225806D01*
X187517994Y-105225807D01*
X187517996Y-105225809D01*
X187632116Y-105291696D01*
X187632114Y-105291696D01*
X187632118Y-105291697D01*
X187632120Y-105291698D01*
X187759414Y-105325806D01*
X187759416Y-105325806D01*
X187891196Y-105325806D01*
X187891198Y-105325806D01*
X188018492Y-105291698D01*
X188018494Y-105291696D01*
X188018496Y-105291696D01*
X188132615Y-105225809D01*
X188132615Y-105225808D01*
X188132620Y-105225806D01*
X188225806Y-105132620D01*
X188266953Y-105061352D01*
X188291696Y-105018496D01*
X188291696Y-105018494D01*
X188291698Y-105018492D01*
X188325806Y-104891198D01*
X188325806Y-104759414D01*
X188291698Y-104632120D01*
X188291696Y-104632117D01*
X188291696Y-104632115D01*
X188225809Y-104517996D01*
X188225807Y-104517994D01*
X188225806Y-104517992D01*
X188132620Y-104424806D01*
X188132617Y-104424804D01*
X188132615Y-104424802D01*
X188018495Y-104358915D01*
X188018497Y-104358915D01*
X187949452Y-104340415D01*
X187891198Y-104324806D01*
X187790785Y-104324806D01*
X187732594Y-104305899D01*
X187720781Y-104295810D01*
X186929496Y-103504525D01*
X186901719Y-103450008D01*
X186900500Y-103434521D01*
X186900500Y-98280100D01*
X187449500Y-98280100D01*
X187449500Y-98639895D01*
X187449501Y-98639907D01*
X187456027Y-98689486D01*
X187456027Y-98689488D01*
X187506774Y-98798313D01*
X187506775Y-98798314D01*
X187506776Y-98798316D01*
X187591684Y-98883224D01*
X187700513Y-98933972D01*
X187750099Y-98940500D01*
X188169900Y-98940499D01*
X188219487Y-98933972D01*
X188219488Y-98933972D01*
X188278137Y-98906622D01*
X188328316Y-98883224D01*
X188413224Y-98798316D01*
X188413224Y-98798314D01*
X188419348Y-98792191D01*
X188421394Y-98794237D01*
X188459006Y-98765894D01*
X188491239Y-98760500D01*
X189398761Y-98760500D01*
X189456952Y-98779407D01*
X189470078Y-98792764D01*
X189470652Y-98792191D01*
X189476775Y-98798314D01*
X189476776Y-98798316D01*
X189561684Y-98883224D01*
X189670513Y-98933972D01*
X189720099Y-98940500D01*
X190139900Y-98940499D01*
X190189487Y-98933972D01*
X190189488Y-98933972D01*
X190248137Y-98906622D01*
X190298316Y-98883224D01*
X190383224Y-98798316D01*
X190383224Y-98798314D01*
X190389348Y-98792191D01*
X190391394Y-98794237D01*
X190429006Y-98765894D01*
X190461239Y-98760500D01*
X191368761Y-98760500D01*
X191426952Y-98779407D01*
X191440078Y-98792764D01*
X191440652Y-98792191D01*
X191446775Y-98798314D01*
X191446776Y-98798316D01*
X191531684Y-98883224D01*
X191640513Y-98933972D01*
X191690099Y-98940500D01*
X192109900Y-98940499D01*
X192159487Y-98933972D01*
X192159488Y-98933972D01*
X192218137Y-98906622D01*
X192268316Y-98883224D01*
X192353224Y-98798316D01*
X192403972Y-98689487D01*
X192410500Y-98639901D01*
X192410499Y-98580149D01*
X192429405Y-98521960D01*
X192439496Y-98510145D01*
X192695475Y-98254167D01*
X192749991Y-98226390D01*
X192765478Y-98225171D01*
X192865890Y-98225171D01*
X192865892Y-98225171D01*
X192993186Y-98191063D01*
X192993188Y-98191061D01*
X192993190Y-98191061D01*
X193107309Y-98125174D01*
X193107309Y-98125173D01*
X193107314Y-98125171D01*
X193200500Y-98031985D01*
X193266392Y-97917857D01*
X193300500Y-97790563D01*
X193300500Y-97658779D01*
X193266392Y-97531485D01*
X193266390Y-97531482D01*
X193266390Y-97531480D01*
X193200503Y-97417361D01*
X193200501Y-97417359D01*
X193200500Y-97417357D01*
X193107314Y-97324171D01*
X193107311Y-97324169D01*
X193107309Y-97324167D01*
X192993189Y-97258280D01*
X192993191Y-97258280D01*
X192943799Y-97245046D01*
X192865892Y-97224171D01*
X192734108Y-97224171D01*
X192656200Y-97245046D01*
X192606809Y-97258280D01*
X192492690Y-97324167D01*
X192399496Y-97417361D01*
X192333609Y-97531480D01*
X192299500Y-97658780D01*
X192299500Y-97759191D01*
X192297031Y-97766788D01*
X192298281Y-97774678D01*
X192287757Y-97795331D01*
X192280593Y-97817382D01*
X192270503Y-97829195D01*
X192149193Y-97950504D01*
X192094677Y-97978281D01*
X192079190Y-97979500D01*
X191690103Y-97979500D01*
X191690092Y-97979501D01*
X191640513Y-97986027D01*
X191640511Y-97986027D01*
X191531686Y-98036774D01*
X191531684Y-98036775D01*
X191531684Y-98036776D01*
X191446776Y-98121684D01*
X191446775Y-98121685D01*
X191440652Y-98127809D01*
X191438605Y-98125762D01*
X191400994Y-98154106D01*
X191368761Y-98159500D01*
X190461239Y-98159500D01*
X190403048Y-98140593D01*
X190389921Y-98127235D01*
X190389348Y-98127809D01*
X190383224Y-98121685D01*
X190383224Y-98121684D01*
X190298316Y-98036776D01*
X190298314Y-98036775D01*
X190298313Y-98036774D01*
X190189489Y-97986029D01*
X190189488Y-97986028D01*
X190172958Y-97983852D01*
X190139901Y-97979500D01*
X190139899Y-97979500D01*
X189720103Y-97979500D01*
X189720092Y-97979501D01*
X189670513Y-97986027D01*
X189670511Y-97986027D01*
X189561686Y-98036774D01*
X189561684Y-98036775D01*
X189561684Y-98036776D01*
X189476776Y-98121684D01*
X189476775Y-98121685D01*
X189470652Y-98127809D01*
X189468605Y-98125762D01*
X189430994Y-98154106D01*
X189398761Y-98159500D01*
X188491239Y-98159500D01*
X188433048Y-98140593D01*
X188419921Y-98127235D01*
X188419348Y-98127809D01*
X188413224Y-98121685D01*
X188413224Y-98121684D01*
X188328316Y-98036776D01*
X188328314Y-98036775D01*
X188328313Y-98036774D01*
X188219489Y-97986029D01*
X188219488Y-97986028D01*
X188202958Y-97983852D01*
X188169901Y-97979500D01*
X188169899Y-97979500D01*
X187750103Y-97979500D01*
X187750092Y-97979501D01*
X187700513Y-97986027D01*
X187700511Y-97986027D01*
X187591686Y-98036774D01*
X187506774Y-98121686D01*
X187456029Y-98230510D01*
X187456028Y-98230511D01*
X187449500Y-98280100D01*
X186900500Y-98280100D01*
X186900500Y-92166924D01*
X186919407Y-92108733D01*
X186968907Y-92072769D01*
X187025120Y-92071297D01*
X187134108Y-92100500D01*
X187134110Y-92100500D01*
X187265890Y-92100500D01*
X187265892Y-92100500D01*
X187393186Y-92066392D01*
X187480607Y-92015918D01*
X187540456Y-92003197D01*
X187596351Y-92028083D01*
X187600092Y-92031632D01*
X187631684Y-92063224D01*
X187740513Y-92113972D01*
X187790099Y-92120500D01*
X188209900Y-92120499D01*
X188259487Y-92113972D01*
X188259488Y-92113972D01*
X188318137Y-92086622D01*
X188368316Y-92063224D01*
X188429998Y-92001541D01*
X188484513Y-91973766D01*
X188544945Y-91983337D01*
X188570000Y-92001540D01*
X188631684Y-92063224D01*
X188740513Y-92113972D01*
X188790099Y-92120500D01*
X189209900Y-92120499D01*
X189259487Y-92113972D01*
X189259488Y-92113972D01*
X189318137Y-92086622D01*
X189368316Y-92063224D01*
X189453224Y-91978316D01*
X189462856Y-91957659D01*
X189504584Y-91912913D01*
X189552580Y-91900500D01*
X191239563Y-91900500D01*
X191239563Y-91900499D01*
X191315989Y-91880021D01*
X191384511Y-91840460D01*
X191440460Y-91784511D01*
X193156431Y-90068539D01*
X193210946Y-90040764D01*
X193271378Y-90050335D01*
X193314643Y-90093600D01*
X193324586Y-90151467D01*
X193319500Y-90190098D01*
X193319500Y-90609896D01*
X193319501Y-90609907D01*
X193326027Y-90659486D01*
X193326027Y-90659488D01*
X193376774Y-90768313D01*
X193376775Y-90768314D01*
X193376776Y-90768316D01*
X193461684Y-90853224D01*
X193461685Y-90853224D01*
X193467809Y-90859348D01*
X193465762Y-90861394D01*
X193494106Y-90899006D01*
X193499500Y-90931239D01*
X193499500Y-91868760D01*
X193480593Y-91926951D01*
X193467236Y-91940079D01*
X193467809Y-91940652D01*
X193461685Y-91946775D01*
X193461684Y-91946776D01*
X193407960Y-92000500D01*
X193376774Y-92031686D01*
X193326029Y-92140510D01*
X193326028Y-92140511D01*
X193319500Y-92190100D01*
X193319500Y-92609896D01*
X193319501Y-92609907D01*
X193326027Y-92659486D01*
X193326027Y-92659488D01*
X193376774Y-92768313D01*
X193376775Y-92768314D01*
X193376776Y-92768316D01*
X193461684Y-92853224D01*
X193461685Y-92853224D01*
X193467809Y-92859348D01*
X193465762Y-92861394D01*
X193494106Y-92899006D01*
X193499500Y-92931239D01*
X193499500Y-93967952D01*
X193480593Y-94026143D01*
X193470504Y-94037955D01*
X193416776Y-94091683D01*
X193416774Y-94091686D01*
X193366029Y-94200510D01*
X193366028Y-94200511D01*
X193359500Y-94250100D01*
X193359500Y-94669896D01*
X193359501Y-94669907D01*
X193366027Y-94719486D01*
X193366027Y-94719488D01*
X193416774Y-94828313D01*
X193416775Y-94828314D01*
X193416776Y-94828316D01*
X193470505Y-94882045D01*
X193498281Y-94936560D01*
X193499500Y-94952047D01*
X193499500Y-95937952D01*
X193480593Y-95996143D01*
X193470504Y-96007955D01*
X193416776Y-96061683D01*
X193416774Y-96061686D01*
X193366029Y-96170510D01*
X193366028Y-96170511D01*
X193359500Y-96220100D01*
X193359500Y-96639896D01*
X193359501Y-96639907D01*
X193366027Y-96689486D01*
X193366027Y-96689488D01*
X193416774Y-96798313D01*
X193416775Y-96798314D01*
X193416776Y-96798316D01*
X193470505Y-96852045D01*
X193498281Y-96906560D01*
X193499500Y-96922047D01*
X193499500Y-97907952D01*
X193480593Y-97966143D01*
X193470504Y-97977956D01*
X193440497Y-98007962D01*
X193440495Y-98007964D01*
X193416776Y-98031684D01*
X193367800Y-98136712D01*
X193367792Y-98136727D01*
X193366029Y-98140508D01*
X193366028Y-98140511D01*
X193359500Y-98190100D01*
X193359500Y-98609896D01*
X193359501Y-98609907D01*
X193366027Y-98659486D01*
X193366027Y-98659488D01*
X193416774Y-98768313D01*
X193416775Y-98768314D01*
X193416776Y-98768316D01*
X193470505Y-98822045D01*
X193498281Y-98876560D01*
X193499500Y-98892047D01*
X193499500Y-104350330D01*
X193490541Y-104377902D01*
X193482533Y-104405752D01*
X193481139Y-104406839D01*
X193480593Y-104408521D01*
X193457126Y-104425570D01*
X193434289Y-104443385D01*
X193432524Y-104443445D01*
X193431093Y-104444485D01*
X193402090Y-104444485D01*
X193373140Y-104445474D01*
X193371875Y-104444485D01*
X193369907Y-104444485D01*
X193322441Y-104411221D01*
X193318203Y-104405788D01*
X193280460Y-104340415D01*
X193224511Y-104284466D01*
X193001549Y-104061503D01*
X192973772Y-104006987D01*
X192972553Y-103991500D01*
X192972553Y-103891087D01*
X192972553Y-103891086D01*
X192938445Y-103763792D01*
X192938443Y-103763789D01*
X192938443Y-103763787D01*
X192872556Y-103649668D01*
X192872554Y-103649666D01*
X192872553Y-103649664D01*
X192779367Y-103556478D01*
X192779364Y-103556476D01*
X192779362Y-103556474D01*
X192665242Y-103490587D01*
X192665244Y-103490587D01*
X192609045Y-103475529D01*
X192537945Y-103456478D01*
X192406161Y-103456478D01*
X192293901Y-103486557D01*
X192278863Y-103490587D01*
X192244196Y-103510602D01*
X192184347Y-103523323D01*
X192128452Y-103498435D01*
X192097860Y-103445447D01*
X192104257Y-103384597D01*
X192108953Y-103375377D01*
X192139393Y-103322656D01*
X192173501Y-103195362D01*
X192173501Y-103063578D01*
X192139393Y-102936284D01*
X192139391Y-102936281D01*
X192139391Y-102936279D01*
X192073504Y-102822160D01*
X192073502Y-102822158D01*
X192073501Y-102822156D01*
X191980315Y-102728970D01*
X191980312Y-102728968D01*
X191980310Y-102728966D01*
X191866190Y-102663079D01*
X191866192Y-102663079D01*
X191816800Y-102649845D01*
X191738893Y-102628970D01*
X191607109Y-102628970D01*
X191529201Y-102649845D01*
X191479810Y-102663079D01*
X191365691Y-102728966D01*
X191272497Y-102822160D01*
X191206610Y-102936279D01*
X191172501Y-103063579D01*
X191172501Y-103163990D01*
X191153594Y-103222181D01*
X191143505Y-103233994D01*
X187775489Y-106602011D01*
X187775488Y-106602010D01*
X187719539Y-106657960D01*
X187679980Y-106726478D01*
X187679978Y-106726482D01*
X187659500Y-106802906D01*
X187659500Y-118485500D01*
X187640593Y-118543691D01*
X187591093Y-118579655D01*
X187560500Y-118584500D01*
X187090252Y-118584500D01*
X187090251Y-118584500D01*
X187090241Y-118584501D01*
X187031772Y-118596132D01*
X187031766Y-118596134D01*
X186965451Y-118640445D01*
X186965445Y-118640451D01*
X186921134Y-118706766D01*
X186921132Y-118706772D01*
X186909501Y-118765241D01*
X186909500Y-118765253D01*
X186909500Y-120400500D01*
X186890593Y-120458691D01*
X186841093Y-120494655D01*
X186810500Y-120499500D01*
X182360139Y-120499500D01*
X182301948Y-120480593D01*
X182265984Y-120431093D01*
X182265984Y-120369907D01*
X182290133Y-120330498D01*
X182315977Y-120304655D01*
X182430941Y-120132598D01*
X182510130Y-119941420D01*
X182550500Y-119738465D01*
X182550500Y-119531535D01*
X182510130Y-119328580D01*
X182430941Y-119137402D01*
X182315977Y-118965345D01*
X182169655Y-118819023D01*
X182089182Y-118765253D01*
X181997597Y-118704058D01*
X181806418Y-118624869D01*
X181603467Y-118584500D01*
X181603465Y-118584500D01*
X181396535Y-118584500D01*
X181396532Y-118584500D01*
X181193581Y-118624869D01*
X181002402Y-118704058D01*
X180830348Y-118819020D01*
X180684020Y-118965348D01*
X180681813Y-118968652D01*
X180633761Y-119006529D01*
X180572622Y-119008928D01*
X180521750Y-118974932D01*
X180500576Y-118917528D01*
X180500500Y-118913646D01*
X180500500Y-117816353D01*
X180519407Y-117758162D01*
X180568907Y-117722198D01*
X180630093Y-117722198D01*
X180679593Y-117758162D01*
X180681816Y-117761352D01*
X180684023Y-117764655D01*
X180830345Y-117910977D01*
X181002402Y-118025941D01*
X181193580Y-118105130D01*
X181396535Y-118145500D01*
X181396536Y-118145500D01*
X181603464Y-118145500D01*
X181603465Y-118145500D01*
X181806420Y-118105130D01*
X181997598Y-118025941D01*
X182169655Y-117910977D01*
X182315977Y-117764655D01*
X182430941Y-117592598D01*
X182510130Y-117401420D01*
X182550500Y-117198465D01*
X182550500Y-116991535D01*
X182510130Y-116788580D01*
X182430941Y-116597402D01*
X182315977Y-116425345D01*
X182169655Y-116279023D01*
X181997598Y-116164059D01*
X181997599Y-116164059D01*
X181997597Y-116164058D01*
X181806418Y-116084869D01*
X181603467Y-116044500D01*
X181603465Y-116044500D01*
X181396535Y-116044500D01*
X181396532Y-116044500D01*
X181193581Y-116084869D01*
X181002402Y-116164058D01*
X180830348Y-116279020D01*
X180684020Y-116425348D01*
X180681813Y-116428652D01*
X180633761Y-116466529D01*
X180572622Y-116468928D01*
X180521750Y-116434932D01*
X180500576Y-116377528D01*
X180500500Y-116373646D01*
X180500500Y-115275453D01*
X180519407Y-115217262D01*
X180568907Y-115181298D01*
X180630093Y-115181298D01*
X180679593Y-115217262D01*
X180681817Y-115220454D01*
X180684408Y-115224332D01*
X180686826Y-115226750D01*
X181082210Y-114831365D01*
X181099901Y-114862007D01*
X181192993Y-114955099D01*
X181223632Y-114972788D01*
X180828249Y-115368173D01*
X180830670Y-115370594D01*
X181002625Y-115485491D01*
X181002639Y-115485498D01*
X181193727Y-115564650D01*
X181396581Y-115604999D01*
X181396586Y-115605000D01*
X181603414Y-115605000D01*
X181603418Y-115604999D01*
X181806272Y-115564650D01*
X181997360Y-115485498D01*
X181997366Y-115485495D01*
X182169333Y-115370591D01*
X182171750Y-115368173D01*
X181776366Y-114972789D01*
X181807007Y-114955099D01*
X181900099Y-114862007D01*
X181917789Y-114831366D01*
X182313173Y-115226750D01*
X182315591Y-115224333D01*
X182430495Y-115052366D01*
X182430498Y-115052360D01*
X182509650Y-114861272D01*
X182549999Y-114658418D01*
X182550000Y-114658413D01*
X182550000Y-114451586D01*
X182549999Y-114451581D01*
X182509650Y-114248727D01*
X182430498Y-114057639D01*
X182430491Y-114057625D01*
X182315594Y-113885670D01*
X182313173Y-113883249D01*
X181917788Y-114278632D01*
X181900099Y-114247993D01*
X181807007Y-114154901D01*
X181776365Y-114137210D01*
X182171750Y-113741826D01*
X182169329Y-113739405D01*
X181997374Y-113624508D01*
X181997360Y-113624501D01*
X181806272Y-113545349D01*
X181603418Y-113505000D01*
X181396581Y-113505000D01*
X181193727Y-113545349D01*
X181002639Y-113624501D01*
X181002630Y-113624505D01*
X180830665Y-113739410D01*
X180828248Y-113741825D01*
X181223633Y-114137210D01*
X181192993Y-114154901D01*
X181099901Y-114247993D01*
X181082210Y-114278633D01*
X180686825Y-113883248D01*
X180684410Y-113885664D01*
X180681814Y-113889551D01*
X180680220Y-113890807D01*
X180679593Y-113892738D01*
X180656331Y-113909638D01*
X180633763Y-113927429D01*
X180631735Y-113927508D01*
X180630093Y-113928702D01*
X180601334Y-113928702D01*
X180572624Y-113929829D01*
X180570937Y-113928702D01*
X180568907Y-113928702D01*
X180545642Y-113911798D01*
X180521752Y-113895835D01*
X180521049Y-113893931D01*
X180519407Y-113892738D01*
X180510523Y-113865396D01*
X180500576Y-113838431D01*
X180500500Y-113834547D01*
X180500500Y-112736353D01*
X180519407Y-112678162D01*
X180568907Y-112642198D01*
X180630093Y-112642198D01*
X180679593Y-112678162D01*
X180681816Y-112681352D01*
X180684023Y-112684655D01*
X180830345Y-112830977D01*
X181002402Y-112945941D01*
X181193580Y-113025130D01*
X181396535Y-113065500D01*
X181396536Y-113065500D01*
X181603464Y-113065500D01*
X181603465Y-113065500D01*
X181806420Y-113025130D01*
X181997598Y-112945941D01*
X182169655Y-112830977D01*
X182315977Y-112684655D01*
X182430941Y-112512598D01*
X182510130Y-112321420D01*
X182550500Y-112118465D01*
X182550500Y-111911535D01*
X182510130Y-111708580D01*
X182430941Y-111517402D01*
X182315977Y-111345345D01*
X182169655Y-111199023D01*
X181997598Y-111084059D01*
X181997599Y-111084059D01*
X181997597Y-111084058D01*
X181806418Y-111004869D01*
X181603467Y-110964500D01*
X181603465Y-110964500D01*
X181396535Y-110964500D01*
X181396532Y-110964500D01*
X181193581Y-111004869D01*
X181002402Y-111084058D01*
X180830348Y-111199020D01*
X180684020Y-111345348D01*
X180681813Y-111348652D01*
X180633761Y-111386529D01*
X180572622Y-111388928D01*
X180521750Y-111354932D01*
X180500576Y-111297528D01*
X180500500Y-111293646D01*
X180500500Y-110196353D01*
X180519407Y-110138162D01*
X180568907Y-110102198D01*
X180630093Y-110102198D01*
X180679593Y-110138162D01*
X180681816Y-110141352D01*
X180684023Y-110144655D01*
X180830345Y-110290977D01*
X181002402Y-110405941D01*
X181193580Y-110485130D01*
X181396535Y-110525500D01*
X181396536Y-110525500D01*
X181603464Y-110525500D01*
X181603465Y-110525500D01*
X181806420Y-110485130D01*
X181997598Y-110405941D01*
X182169655Y-110290977D01*
X182315977Y-110144655D01*
X182430941Y-109972598D01*
X182510130Y-109781420D01*
X182550500Y-109578465D01*
X182550500Y-109371535D01*
X182510130Y-109168580D01*
X182430941Y-108977402D01*
X182315977Y-108805345D01*
X182169655Y-108659023D01*
X181997598Y-108544059D01*
X181997599Y-108544059D01*
X181997597Y-108544058D01*
X181806418Y-108464869D01*
X181603467Y-108424500D01*
X181603465Y-108424500D01*
X181396535Y-108424500D01*
X181396532Y-108424500D01*
X181193581Y-108464869D01*
X181002402Y-108544058D01*
X180830348Y-108659020D01*
X180684020Y-108805348D01*
X180681813Y-108808652D01*
X180633761Y-108846529D01*
X180572622Y-108848928D01*
X180521750Y-108814932D01*
X180500576Y-108757528D01*
X180500500Y-108753646D01*
X180500500Y-107656353D01*
X180519407Y-107598162D01*
X180568907Y-107562198D01*
X180630093Y-107562198D01*
X180679593Y-107598162D01*
X180681816Y-107601352D01*
X180684023Y-107604655D01*
X180830345Y-107750977D01*
X181002402Y-107865941D01*
X181193580Y-107945130D01*
X181396535Y-107985500D01*
X181396536Y-107985500D01*
X181603464Y-107985500D01*
X181603465Y-107985500D01*
X181806420Y-107945130D01*
X181997598Y-107865941D01*
X182169655Y-107750977D01*
X182315977Y-107604655D01*
X182430941Y-107432598D01*
X182510130Y-107241420D01*
X182550500Y-107038465D01*
X182550500Y-106831535D01*
X182510130Y-106628580D01*
X182430941Y-106437402D01*
X182315977Y-106265345D01*
X182169655Y-106119023D01*
X182169651Y-106119020D01*
X181997597Y-106004058D01*
X181806418Y-105924869D01*
X181603467Y-105884500D01*
X181603465Y-105884500D01*
X181396535Y-105884500D01*
X181396532Y-105884500D01*
X181193581Y-105924869D01*
X181002402Y-106004058D01*
X180830348Y-106119020D01*
X180684020Y-106265348D01*
X180681813Y-106268652D01*
X180633761Y-106306529D01*
X180572622Y-106308928D01*
X180521750Y-106274932D01*
X180500576Y-106217528D01*
X180500500Y-106213646D01*
X180500500Y-105116353D01*
X180519407Y-105058162D01*
X180568907Y-105022198D01*
X180630093Y-105022198D01*
X180679593Y-105058162D01*
X180681816Y-105061352D01*
X180684023Y-105064655D01*
X180830345Y-105210977D01*
X181002402Y-105325941D01*
X181193580Y-105405130D01*
X181396535Y-105445500D01*
X181396536Y-105445500D01*
X181603464Y-105445500D01*
X181603465Y-105445500D01*
X181806420Y-105405130D01*
X181997598Y-105325941D01*
X182169655Y-105210977D01*
X182315977Y-105064655D01*
X182430941Y-104892598D01*
X182510130Y-104701420D01*
X182550500Y-104498465D01*
X182550500Y-104291535D01*
X182510130Y-104088580D01*
X182430941Y-103897402D01*
X182315977Y-103725345D01*
X182169655Y-103579023D01*
X182169651Y-103579020D01*
X181997597Y-103464058D01*
X181806418Y-103384869D01*
X181603467Y-103344500D01*
X181603465Y-103344500D01*
X181396535Y-103344500D01*
X181396532Y-103344500D01*
X181193581Y-103384869D01*
X181002402Y-103464058D01*
X180830348Y-103579020D01*
X180684020Y-103725348D01*
X180681813Y-103728652D01*
X180633761Y-103766529D01*
X180572622Y-103768928D01*
X180521750Y-103734932D01*
X180500576Y-103677528D01*
X180500500Y-103673646D01*
X180500500Y-102575453D01*
X180519407Y-102517262D01*
X180568907Y-102481298D01*
X180630093Y-102481298D01*
X180679593Y-102517262D01*
X180681817Y-102520454D01*
X180684408Y-102524332D01*
X180686826Y-102526750D01*
X181082210Y-102131365D01*
X181099901Y-102162007D01*
X181192993Y-102255099D01*
X181223632Y-102272788D01*
X180828249Y-102668173D01*
X180830670Y-102670594D01*
X181002625Y-102785491D01*
X181002639Y-102785498D01*
X181193727Y-102864650D01*
X181396581Y-102904999D01*
X181396586Y-102905000D01*
X181603414Y-102905000D01*
X181603418Y-102904999D01*
X181806272Y-102864650D01*
X181997360Y-102785498D01*
X181997366Y-102785495D01*
X182169333Y-102670591D01*
X182171750Y-102668173D01*
X181776366Y-102272789D01*
X181807007Y-102255099D01*
X181900099Y-102162007D01*
X181917789Y-102131366D01*
X182313173Y-102526750D01*
X182315591Y-102524333D01*
X182430495Y-102352366D01*
X182430498Y-102352360D01*
X182509650Y-102161272D01*
X182549999Y-101958418D01*
X182550000Y-101958413D01*
X182550000Y-101751586D01*
X182549999Y-101751581D01*
X182509650Y-101548727D01*
X182430498Y-101357639D01*
X182430491Y-101357625D01*
X182315594Y-101185670D01*
X182313173Y-101183249D01*
X181917788Y-101578632D01*
X181900099Y-101547993D01*
X181807007Y-101454901D01*
X181776365Y-101437210D01*
X182171750Y-101041826D01*
X182169329Y-101039405D01*
X181997374Y-100924508D01*
X181997360Y-100924501D01*
X181806272Y-100845349D01*
X181603418Y-100805000D01*
X181396581Y-100805000D01*
X181193727Y-100845349D01*
X181002639Y-100924501D01*
X181002630Y-100924505D01*
X180830665Y-101039410D01*
X180828248Y-101041825D01*
X181223633Y-101437210D01*
X181192993Y-101454901D01*
X181099901Y-101547993D01*
X181082210Y-101578633D01*
X180686825Y-101183248D01*
X180684410Y-101185664D01*
X180681814Y-101189551D01*
X180680220Y-101190807D01*
X180679593Y-101192738D01*
X180656331Y-101209638D01*
X180633763Y-101227429D01*
X180631735Y-101227508D01*
X180630093Y-101228702D01*
X180601334Y-101228702D01*
X180572624Y-101229829D01*
X180570937Y-101228702D01*
X180568907Y-101228702D01*
X180545642Y-101211798D01*
X180521752Y-101195835D01*
X180521049Y-101193931D01*
X180519407Y-101192738D01*
X180510523Y-101165396D01*
X180500576Y-101138431D01*
X180500500Y-101134547D01*
X180500500Y-100036353D01*
X180519407Y-99978162D01*
X180568907Y-99942198D01*
X180630093Y-99942198D01*
X180679593Y-99978162D01*
X180681816Y-99981352D01*
X180684023Y-99984655D01*
X180830345Y-100130977D01*
X181002402Y-100245941D01*
X181193580Y-100325130D01*
X181396535Y-100365500D01*
X181396536Y-100365500D01*
X181603464Y-100365500D01*
X181603465Y-100365500D01*
X181806420Y-100325130D01*
X181997598Y-100245941D01*
X182169655Y-100130977D01*
X182315977Y-99984655D01*
X182430941Y-99812598D01*
X182510130Y-99621420D01*
X182550500Y-99418465D01*
X182550500Y-99211535D01*
X182510130Y-99008580D01*
X182430941Y-98817402D01*
X182315977Y-98645345D01*
X182169655Y-98499023D01*
X181997598Y-98384059D01*
X181997599Y-98384059D01*
X181997597Y-98384058D01*
X181806418Y-98304869D01*
X181603467Y-98264500D01*
X181603465Y-98264500D01*
X181396535Y-98264500D01*
X181396532Y-98264500D01*
X181193581Y-98304869D01*
X181002402Y-98384058D01*
X180830348Y-98499020D01*
X180684020Y-98645348D01*
X180681813Y-98648652D01*
X180633761Y-98686529D01*
X180572622Y-98688928D01*
X180521750Y-98654932D01*
X180500576Y-98597528D01*
X180500500Y-98593646D01*
X180500500Y-97496353D01*
X180519407Y-97438162D01*
X180568907Y-97402198D01*
X180630093Y-97402198D01*
X180679593Y-97438162D01*
X180681816Y-97441352D01*
X180684023Y-97444655D01*
X180830345Y-97590977D01*
X181002402Y-97705941D01*
X181193580Y-97785130D01*
X181396535Y-97825500D01*
X181396536Y-97825500D01*
X181603464Y-97825500D01*
X181603465Y-97825500D01*
X181806420Y-97785130D01*
X181997598Y-97705941D01*
X182169655Y-97590977D01*
X182315977Y-97444655D01*
X182430941Y-97272598D01*
X182510130Y-97081420D01*
X182550500Y-96878465D01*
X182550500Y-96671535D01*
X182510130Y-96468580D01*
X182430941Y-96277402D01*
X182315977Y-96105345D01*
X182169655Y-95959023D01*
X182138120Y-95937952D01*
X181997597Y-95844058D01*
X181806418Y-95764869D01*
X181603467Y-95724500D01*
X181603465Y-95724500D01*
X181396535Y-95724500D01*
X181396532Y-95724500D01*
X181193581Y-95764869D01*
X181002402Y-95844058D01*
X180830348Y-95959020D01*
X180684020Y-96105348D01*
X180681813Y-96108652D01*
X180633761Y-96146529D01*
X180572622Y-96148928D01*
X180521750Y-96114932D01*
X180500576Y-96057528D01*
X180500500Y-96053646D01*
X180500500Y-94956353D01*
X180519407Y-94898162D01*
X180568907Y-94862198D01*
X180630093Y-94862198D01*
X180679593Y-94898162D01*
X180681816Y-94901352D01*
X180684023Y-94904655D01*
X180830345Y-95050977D01*
X181002402Y-95165941D01*
X181193580Y-95245130D01*
X181396535Y-95285500D01*
X181396536Y-95285500D01*
X181603464Y-95285500D01*
X181603465Y-95285500D01*
X181806420Y-95245130D01*
X181997598Y-95165941D01*
X182169655Y-95050977D01*
X182315977Y-94904655D01*
X182430941Y-94732598D01*
X182510130Y-94541420D01*
X182550500Y-94338465D01*
X182550500Y-94131535D01*
X182510130Y-93928580D01*
X182430941Y-93737402D01*
X182315977Y-93565345D01*
X182169655Y-93419023D01*
X181997598Y-93304059D01*
X181997599Y-93304059D01*
X181997597Y-93304058D01*
X181806418Y-93224869D01*
X181603467Y-93184500D01*
X181603465Y-93184500D01*
X181396535Y-93184500D01*
X181396532Y-93184500D01*
X181193581Y-93224869D01*
X181002402Y-93304058D01*
X180830348Y-93419020D01*
X180684020Y-93565348D01*
X180681813Y-93568652D01*
X180633761Y-93606529D01*
X180572622Y-93608928D01*
X180521750Y-93574932D01*
X180500576Y-93517528D01*
X180500500Y-93513646D01*
X180500500Y-92416353D01*
X180519407Y-92358162D01*
X180568907Y-92322198D01*
X180630093Y-92322198D01*
X180679593Y-92358162D01*
X180681816Y-92361352D01*
X180684023Y-92364655D01*
X180830345Y-92510977D01*
X181002402Y-92625941D01*
X181193580Y-92705130D01*
X181396535Y-92745500D01*
X181396536Y-92745500D01*
X181603464Y-92745500D01*
X181603465Y-92745500D01*
X181806420Y-92705130D01*
X181997598Y-92625941D01*
X182169655Y-92510977D01*
X182315977Y-92364655D01*
X182430941Y-92192598D01*
X182510130Y-92001420D01*
X182550500Y-91798465D01*
X182550500Y-91591535D01*
X182510130Y-91388580D01*
X182430941Y-91197402D01*
X182315977Y-91025345D01*
X182169655Y-90879023D01*
X182157434Y-90870857D01*
X181997597Y-90764058D01*
X181806418Y-90684869D01*
X181603467Y-90644500D01*
X181603465Y-90644500D01*
X181396535Y-90644500D01*
X181396532Y-90644500D01*
X181193581Y-90684869D01*
X181002402Y-90764058D01*
X180830348Y-90879020D01*
X180684020Y-91025348D01*
X180681813Y-91028652D01*
X180633761Y-91066529D01*
X180572622Y-91068928D01*
X180521750Y-91034932D01*
X180500576Y-90977528D01*
X180500500Y-90973646D01*
X180500500Y-89875453D01*
X180519407Y-89817262D01*
X180568907Y-89781298D01*
X180630093Y-89781298D01*
X180679593Y-89817262D01*
X180681817Y-89820454D01*
X180684408Y-89824332D01*
X180686826Y-89826750D01*
X181082210Y-89431365D01*
X181099901Y-89462007D01*
X181192993Y-89555099D01*
X181223632Y-89572788D01*
X180828249Y-89968173D01*
X180830670Y-89970594D01*
X181002625Y-90085491D01*
X181002639Y-90085498D01*
X181193727Y-90164650D01*
X181396581Y-90204999D01*
X181396586Y-90205000D01*
X181603414Y-90205000D01*
X181603418Y-90204999D01*
X181806272Y-90164650D01*
X181997360Y-90085498D01*
X181997366Y-90085495D01*
X182169333Y-89970591D01*
X182171750Y-89968173D01*
X181776366Y-89572789D01*
X181807007Y-89555099D01*
X181900099Y-89462007D01*
X181917789Y-89431366D01*
X182313173Y-89826750D01*
X182315591Y-89824333D01*
X182430495Y-89652366D01*
X182430498Y-89652360D01*
X182509650Y-89461272D01*
X182549999Y-89258418D01*
X182550000Y-89258413D01*
X182550000Y-89051586D01*
X182549999Y-89051581D01*
X182509650Y-88848727D01*
X182430498Y-88657639D01*
X182430491Y-88657625D01*
X182315594Y-88485670D01*
X182313173Y-88483249D01*
X181917788Y-88878632D01*
X181900099Y-88847993D01*
X181807007Y-88754901D01*
X181776365Y-88737210D01*
X182171750Y-88341826D01*
X182169329Y-88339405D01*
X181997374Y-88224508D01*
X181997360Y-88224501D01*
X181806272Y-88145349D01*
X181603418Y-88105000D01*
X181396581Y-88105000D01*
X181193727Y-88145349D01*
X181002639Y-88224501D01*
X181002630Y-88224505D01*
X180830665Y-88339410D01*
X180828248Y-88341825D01*
X181223633Y-88737210D01*
X181192993Y-88754901D01*
X181099901Y-88847993D01*
X181082210Y-88878633D01*
X180686825Y-88483248D01*
X180684410Y-88485664D01*
X180681814Y-88489551D01*
X180680220Y-88490807D01*
X180679593Y-88492738D01*
X180656331Y-88509638D01*
X180633763Y-88527429D01*
X180631735Y-88527508D01*
X180630093Y-88528702D01*
X180601334Y-88528702D01*
X180572624Y-88529829D01*
X180570937Y-88528702D01*
X180568907Y-88528702D01*
X180545642Y-88511798D01*
X180521752Y-88495835D01*
X180521049Y-88493931D01*
X180519407Y-88492738D01*
X180510523Y-88465396D01*
X180500576Y-88438431D01*
X180500500Y-88434547D01*
X180500500Y-87336353D01*
X180519407Y-87278162D01*
X180568907Y-87242198D01*
X180630093Y-87242198D01*
X180679593Y-87278162D01*
X180681816Y-87281352D01*
X180684023Y-87284655D01*
X180830345Y-87430977D01*
X181002402Y-87545941D01*
X181193580Y-87625130D01*
X181396535Y-87665500D01*
X181396536Y-87665500D01*
X181603464Y-87665500D01*
X181603465Y-87665500D01*
X181806420Y-87625130D01*
X181997598Y-87545941D01*
X182169655Y-87430977D01*
X182315977Y-87284655D01*
X182430941Y-87112598D01*
X182510130Y-86921420D01*
X182550500Y-86718465D01*
X182550500Y-86511535D01*
X182510130Y-86308580D01*
X182430941Y-86117402D01*
X182315977Y-85945345D01*
X182169655Y-85799023D01*
X182169651Y-85799020D01*
X181997597Y-85684058D01*
X181806418Y-85604869D01*
X181603467Y-85564500D01*
X181603465Y-85564500D01*
X181396535Y-85564500D01*
X181396532Y-85564500D01*
X181193581Y-85604869D01*
X181002402Y-85684058D01*
X180830348Y-85799020D01*
X180684020Y-85945348D01*
X180681813Y-85948652D01*
X180633761Y-85986529D01*
X180572622Y-85988928D01*
X180521750Y-85954932D01*
X180500576Y-85897528D01*
X180500500Y-85893646D01*
X180500500Y-84796353D01*
X180519407Y-84738162D01*
X180568907Y-84702198D01*
X180630093Y-84702198D01*
X180679593Y-84738162D01*
X180681816Y-84741352D01*
X180684023Y-84744655D01*
X180830345Y-84890977D01*
X181002402Y-85005941D01*
X181193580Y-85085130D01*
X181396535Y-85125500D01*
X181396536Y-85125500D01*
X181603464Y-85125500D01*
X181603465Y-85125500D01*
X181806420Y-85085130D01*
X181997598Y-85005941D01*
X182169655Y-84890977D01*
X182315977Y-84744655D01*
X182430941Y-84572598D01*
X182510130Y-84381420D01*
X182550500Y-84178465D01*
X182550500Y-83971535D01*
X182510130Y-83768580D01*
X182430941Y-83577402D01*
X182315977Y-83405345D01*
X182169655Y-83259023D01*
X182169651Y-83259020D01*
X181997597Y-83144058D01*
X181806418Y-83064869D01*
X181603467Y-83024500D01*
X181603465Y-83024500D01*
X181396535Y-83024500D01*
X181396532Y-83024500D01*
X181193581Y-83064869D01*
X181002402Y-83144058D01*
X180830348Y-83259020D01*
X180684020Y-83405348D01*
X180681813Y-83408652D01*
X180633761Y-83446529D01*
X180572622Y-83448928D01*
X180521750Y-83414932D01*
X180500576Y-83357528D01*
X180500500Y-83353646D01*
X180500500Y-82256353D01*
X180519407Y-82198162D01*
X180568907Y-82162198D01*
X180630093Y-82162198D01*
X180679593Y-82198162D01*
X180681816Y-82201352D01*
X180684023Y-82204655D01*
X180830345Y-82350977D01*
X181002402Y-82465941D01*
X181193580Y-82545130D01*
X181396535Y-82585500D01*
X181396536Y-82585500D01*
X181603464Y-82585500D01*
X181603465Y-82585500D01*
X181806420Y-82545130D01*
X181997598Y-82465941D01*
X182169655Y-82350977D01*
X182315977Y-82204655D01*
X182430941Y-82032598D01*
X182510130Y-81841420D01*
X182550500Y-81638465D01*
X182550500Y-81431535D01*
X182510130Y-81228580D01*
X182430941Y-81037402D01*
X182315977Y-80865345D01*
X182169655Y-80719023D01*
X182169651Y-80719020D01*
X181997597Y-80604058D01*
X181806418Y-80524869D01*
X181603467Y-80484500D01*
X181603465Y-80484500D01*
X181396535Y-80484500D01*
X181396532Y-80484500D01*
X181193581Y-80524869D01*
X181002402Y-80604058D01*
X180830348Y-80719020D01*
X180684020Y-80865348D01*
X180681813Y-80868652D01*
X180633761Y-80906529D01*
X180572622Y-80908928D01*
X180521750Y-80874932D01*
X180500576Y-80817528D01*
X180500500Y-80813646D01*
X180500500Y-79716353D01*
X180519407Y-79658162D01*
X180568907Y-79622198D01*
X180630093Y-79622198D01*
X180679593Y-79658162D01*
X180681816Y-79661352D01*
X180684023Y-79664655D01*
X180830345Y-79810977D01*
X181002402Y-79925941D01*
X181193580Y-80005130D01*
X181396535Y-80045500D01*
X181396536Y-80045500D01*
X181603464Y-80045500D01*
X181603465Y-80045500D01*
X181806420Y-80005130D01*
X181997598Y-79925941D01*
X182169655Y-79810977D01*
X182315977Y-79664655D01*
X182430941Y-79492598D01*
X182510130Y-79301420D01*
X182550500Y-79098465D01*
X182550500Y-78891535D01*
X182510130Y-78688580D01*
X182430941Y-78497402D01*
X182315977Y-78325345D01*
X182169655Y-78179023D01*
X182169651Y-78179020D01*
X181997597Y-78064058D01*
X181806418Y-77984869D01*
X181603467Y-77944500D01*
X181603465Y-77944500D01*
X181396535Y-77944500D01*
X181396532Y-77944500D01*
X181193581Y-77984869D01*
X181002402Y-78064058D01*
X180830348Y-78179020D01*
X180684020Y-78325348D01*
X180681813Y-78328652D01*
X180633761Y-78366529D01*
X180572622Y-78368928D01*
X180521750Y-78334932D01*
X180500576Y-78277528D01*
X180500500Y-78273646D01*
X180500500Y-77175453D01*
X180519407Y-77117262D01*
X180568907Y-77081298D01*
X180630093Y-77081298D01*
X180679593Y-77117262D01*
X180681817Y-77120454D01*
X180684408Y-77124332D01*
X180686826Y-77126750D01*
X181082210Y-76731365D01*
X181099901Y-76762007D01*
X181192993Y-76855099D01*
X181223632Y-76872788D01*
X180828249Y-77268173D01*
X180830670Y-77270594D01*
X181002625Y-77385491D01*
X181002639Y-77385498D01*
X181193727Y-77464650D01*
X181396581Y-77504999D01*
X181396586Y-77505000D01*
X181603414Y-77505000D01*
X181603418Y-77504999D01*
X181806272Y-77464650D01*
X181997360Y-77385498D01*
X181997366Y-77385495D01*
X182169333Y-77270591D01*
X182171750Y-77268173D01*
X181776366Y-76872789D01*
X181807007Y-76855099D01*
X181900099Y-76762007D01*
X181917789Y-76731366D01*
X182313173Y-77126750D01*
X182315591Y-77124333D01*
X182430495Y-76952366D01*
X182430498Y-76952360D01*
X182509650Y-76761272D01*
X182549999Y-76558418D01*
X182550000Y-76558413D01*
X182550000Y-76351586D01*
X182549999Y-76351581D01*
X182509650Y-76148727D01*
X182430498Y-75957639D01*
X182430491Y-75957625D01*
X182315594Y-75785670D01*
X182313173Y-75783249D01*
X181917788Y-76178632D01*
X181900099Y-76147993D01*
X181807007Y-76054901D01*
X181776365Y-76037210D01*
X182171750Y-75641826D01*
X182169329Y-75639405D01*
X181997374Y-75524508D01*
X181997360Y-75524501D01*
X181806272Y-75445349D01*
X181603418Y-75405000D01*
X181396581Y-75405000D01*
X181193727Y-75445349D01*
X181002639Y-75524501D01*
X181002630Y-75524505D01*
X180830665Y-75639410D01*
X180828248Y-75641825D01*
X181223633Y-76037210D01*
X181192993Y-76054901D01*
X181099901Y-76147993D01*
X181082210Y-76178633D01*
X180686825Y-75783248D01*
X180684410Y-75785664D01*
X180681814Y-75789551D01*
X180680220Y-75790807D01*
X180679593Y-75792738D01*
X180656331Y-75809638D01*
X180633763Y-75827429D01*
X180631735Y-75827508D01*
X180630093Y-75828702D01*
X180601334Y-75828702D01*
X180572624Y-75829829D01*
X180570937Y-75828702D01*
X180568907Y-75828702D01*
X180545642Y-75811798D01*
X180521752Y-75795835D01*
X180521049Y-75793931D01*
X180519407Y-75792738D01*
X180510523Y-75765396D01*
X180500576Y-75738431D01*
X180500500Y-75734547D01*
X180500500Y-74636353D01*
X180519407Y-74578162D01*
X180568907Y-74542198D01*
X180630093Y-74542198D01*
X180679593Y-74578162D01*
X180681816Y-74581352D01*
X180684023Y-74584655D01*
X180830345Y-74730977D01*
X181002402Y-74845941D01*
X181193580Y-74925130D01*
X181396535Y-74965500D01*
X181396536Y-74965500D01*
X181603464Y-74965500D01*
X181603465Y-74965500D01*
X181806420Y-74925130D01*
X181997598Y-74845941D01*
X182169655Y-74730977D01*
X182315977Y-74584655D01*
X182430941Y-74412598D01*
X182510130Y-74221420D01*
X182550500Y-74018465D01*
X182550500Y-73811535D01*
X182510130Y-73608580D01*
X182430941Y-73417402D01*
X182315977Y-73245345D01*
X182169655Y-73099023D01*
X182169651Y-73099020D01*
X181997597Y-72984058D01*
X181806418Y-72904869D01*
X181603467Y-72864500D01*
X181603465Y-72864500D01*
X181396535Y-72864500D01*
X181396532Y-72864500D01*
X181193581Y-72904869D01*
X181002402Y-72984058D01*
X180830348Y-73099020D01*
X180684020Y-73245348D01*
X180681813Y-73248652D01*
X180633761Y-73286529D01*
X180572622Y-73288928D01*
X180521750Y-73254932D01*
X180500576Y-73197528D01*
X180500500Y-73193646D01*
X180500500Y-72520322D01*
X180519407Y-72462131D01*
X180568907Y-72426167D01*
X180618815Y-72423225D01*
X180630252Y-72425500D01*
X180630254Y-72425500D01*
X182369747Y-72425500D01*
X182369748Y-72425500D01*
X182428231Y-72413867D01*
X182494552Y-72369552D01*
X182538867Y-72303231D01*
X182550500Y-72244748D01*
X182550500Y-70599500D01*
X182569407Y-70541309D01*
X182618907Y-70505345D01*
X182649500Y-70500500D01*
X185684549Y-70500500D01*
X185742740Y-70519407D01*
G37*
%TD.AperFunction*%
%TA.AperFunction,Conductor*%
G36*
X192016599Y-103588010D02*
G01*
X192047192Y-103640997D01*
X192040798Y-103701848D01*
X192036093Y-103711082D01*
X192005661Y-103763790D01*
X192000110Y-103784508D01*
X191971553Y-103891086D01*
X191971553Y-104022870D01*
X191989160Y-104088580D01*
X192005662Y-104150168D01*
X192071549Y-104264287D01*
X192071551Y-104264289D01*
X192071553Y-104264292D01*
X192164739Y-104357478D01*
X192164741Y-104357479D01*
X192164743Y-104357481D01*
X192278863Y-104423368D01*
X192278861Y-104423368D01*
X192278865Y-104423369D01*
X192278867Y-104423370D01*
X192406161Y-104457478D01*
X192406163Y-104457478D01*
X192506574Y-104457478D01*
X192514171Y-104459946D01*
X192522061Y-104458697D01*
X192542716Y-104469221D01*
X192564765Y-104476385D01*
X192576578Y-104486474D01*
X192710504Y-104620400D01*
X192738281Y-104674917D01*
X192739500Y-104690404D01*
X192739500Y-118556267D01*
X192720593Y-118614458D01*
X192678387Y-118647731D01*
X192542401Y-118704059D01*
X192370348Y-118819020D01*
X192224020Y-118965348D01*
X192109058Y-119137402D01*
X192029869Y-119328581D01*
X191989500Y-119531532D01*
X191989500Y-119738467D01*
X192029869Y-119941418D01*
X192109058Y-120132597D01*
X192109059Y-120132598D01*
X192224023Y-120304655D01*
X192249866Y-120330498D01*
X192277642Y-120385013D01*
X192268071Y-120445445D01*
X192224806Y-120488710D01*
X192179861Y-120499500D01*
X191264085Y-120499500D01*
X191205894Y-120480593D01*
X191194081Y-120470504D01*
X190776366Y-120052789D01*
X190807007Y-120035099D01*
X190900099Y-119942007D01*
X190917789Y-119911366D01*
X191307923Y-120301500D01*
X191317484Y-120301500D01*
X191430495Y-120132366D01*
X191430498Y-120132360D01*
X191509650Y-119941272D01*
X191549999Y-119738418D01*
X191550000Y-119738413D01*
X191550000Y-119531586D01*
X191549999Y-119531581D01*
X191509650Y-119328727D01*
X191430498Y-119137639D01*
X191430491Y-119137625D01*
X191315594Y-118965670D01*
X191313173Y-118963249D01*
X190917788Y-119358632D01*
X190900099Y-119327993D01*
X190807007Y-119234901D01*
X190776365Y-119217210D01*
X191171750Y-118821826D01*
X191169329Y-118819405D01*
X190997374Y-118704508D01*
X190997360Y-118704501D01*
X190806272Y-118625349D01*
X190603418Y-118585000D01*
X190396581Y-118585000D01*
X190193727Y-118625349D01*
X190002639Y-118704501D01*
X190002630Y-118704505D01*
X189830665Y-118819410D01*
X189828248Y-118821825D01*
X190223633Y-119217210D01*
X190192993Y-119234901D01*
X190099901Y-119327993D01*
X190082210Y-119358633D01*
X189686825Y-118963248D01*
X189684410Y-118965665D01*
X189569505Y-119137630D01*
X189569501Y-119137639D01*
X189490349Y-119328727D01*
X189450000Y-119531581D01*
X189450000Y-119738418D01*
X189490349Y-119941272D01*
X189569501Y-120132360D01*
X189569508Y-120132374D01*
X189684405Y-120304329D01*
X189686826Y-120306750D01*
X190082210Y-119911365D01*
X190099901Y-119942007D01*
X190192993Y-120035099D01*
X190223632Y-120052788D01*
X189805918Y-120470504D01*
X189798800Y-120474130D01*
X189794105Y-120480593D01*
X189772056Y-120487756D01*
X189751401Y-120498281D01*
X189735914Y-120499500D01*
X189733084Y-120499500D01*
X189689035Y-120485187D01*
X189685513Y-120488710D01*
X189640568Y-120499500D01*
X189109500Y-120499500D01*
X189051309Y-120480593D01*
X189015345Y-120431093D01*
X189010500Y-120400500D01*
X189010500Y-118765253D01*
X189010498Y-118765241D01*
X189007711Y-118751231D01*
X188998867Y-118706769D01*
X188954552Y-118640448D01*
X188954548Y-118640445D01*
X188888233Y-118596134D01*
X188888231Y-118596133D01*
X188888228Y-118596132D01*
X188888227Y-118596132D01*
X188829758Y-118584501D01*
X188829748Y-118584500D01*
X188829747Y-118584500D01*
X188359500Y-118584500D01*
X188301309Y-118565593D01*
X188265345Y-118516093D01*
X188260500Y-118485500D01*
X188260500Y-107007949D01*
X188279407Y-106949758D01*
X188289490Y-106937951D01*
X191568475Y-103658965D01*
X191622992Y-103631189D01*
X191638479Y-103629970D01*
X191738891Y-103629970D01*
X191738893Y-103629970D01*
X191866187Y-103595862D01*
X191900856Y-103575845D01*
X191960703Y-103563124D01*
X192016599Y-103588010D01*
G37*
%TD.AperFunction*%
%TA.AperFunction,Conductor*%
G36*
X198596377Y-84683979D02*
G01*
X198621400Y-84684963D01*
X198626130Y-84688691D01*
X198632078Y-84689634D01*
X198669449Y-84722843D01*
X198679684Y-84738162D01*
X198684023Y-84744655D01*
X198830345Y-84890977D01*
X199002402Y-85005941D01*
X199193580Y-85085130D01*
X199396535Y-85125500D01*
X199396536Y-85125500D01*
X199603464Y-85125500D01*
X199603465Y-85125500D01*
X199806420Y-85085130D01*
X199997598Y-85005941D01*
X200169655Y-84890977D01*
X200315977Y-84744655D01*
X200318184Y-84741352D01*
X200366233Y-84703472D01*
X200427372Y-84701070D01*
X200478246Y-84735062D01*
X200499424Y-84792465D01*
X200499500Y-84796353D01*
X200499500Y-85893646D01*
X200480593Y-85951837D01*
X200431093Y-85987801D01*
X200369907Y-85987801D01*
X200320407Y-85951837D01*
X200318187Y-85948652D01*
X200315979Y-85945348D01*
X200315977Y-85945345D01*
X200169655Y-85799023D01*
X200169651Y-85799020D01*
X199997597Y-85684058D01*
X199806418Y-85604869D01*
X199603467Y-85564500D01*
X199603465Y-85564500D01*
X199396535Y-85564500D01*
X199396532Y-85564500D01*
X199193581Y-85604869D01*
X199002402Y-85684058D01*
X198830348Y-85799020D01*
X198684020Y-85945348D01*
X198569058Y-86117402D01*
X198489869Y-86308581D01*
X198449500Y-86511532D01*
X198449500Y-86718467D01*
X198489869Y-86921418D01*
X198569058Y-87112597D01*
X198681816Y-87281352D01*
X198684023Y-87284655D01*
X198830345Y-87430977D01*
X199002402Y-87545941D01*
X199193580Y-87625130D01*
X199396535Y-87665500D01*
X199396536Y-87665500D01*
X199603464Y-87665500D01*
X199603465Y-87665500D01*
X199806420Y-87625130D01*
X199997598Y-87545941D01*
X200169655Y-87430977D01*
X200315977Y-87284655D01*
X200318184Y-87281352D01*
X200366233Y-87243472D01*
X200427372Y-87241070D01*
X200478246Y-87275062D01*
X200499424Y-87332465D01*
X200499500Y-87336353D01*
X200499500Y-88434546D01*
X200480593Y-88492737D01*
X200431093Y-88528701D01*
X200369907Y-88528701D01*
X200320407Y-88492737D01*
X200318186Y-88489550D01*
X200315591Y-88485667D01*
X200313173Y-88483249D01*
X199917788Y-88878632D01*
X199900099Y-88847993D01*
X199807007Y-88754901D01*
X199776365Y-88737210D01*
X200171750Y-88341826D01*
X200169329Y-88339405D01*
X199997374Y-88224508D01*
X199997360Y-88224501D01*
X199806272Y-88145349D01*
X199603418Y-88105000D01*
X199396581Y-88105000D01*
X199193727Y-88145349D01*
X199002639Y-88224501D01*
X199002630Y-88224505D01*
X198830665Y-88339410D01*
X198828248Y-88341825D01*
X199223633Y-88737210D01*
X199192993Y-88754901D01*
X199099901Y-88847993D01*
X199082210Y-88878633D01*
X198686825Y-88483248D01*
X198684410Y-88485665D01*
X198569505Y-88657630D01*
X198569501Y-88657639D01*
X198490349Y-88848727D01*
X198450000Y-89051581D01*
X198450000Y-89258418D01*
X198490349Y-89461272D01*
X198569501Y-89652360D01*
X198569508Y-89652374D01*
X198684405Y-89824329D01*
X198686826Y-89826750D01*
X199082210Y-89431365D01*
X199099901Y-89462007D01*
X199192993Y-89555099D01*
X199223632Y-89572788D01*
X198828249Y-89968173D01*
X198830670Y-89970594D01*
X199002625Y-90085491D01*
X199002639Y-90085498D01*
X199193727Y-90164650D01*
X199396581Y-90204999D01*
X199396586Y-90205000D01*
X199603414Y-90205000D01*
X199603418Y-90204999D01*
X199806272Y-90164650D01*
X199997360Y-90085498D01*
X199997366Y-90085495D01*
X200169333Y-89970591D01*
X200171750Y-89968173D01*
X199776366Y-89572789D01*
X199807007Y-89555099D01*
X199900099Y-89462007D01*
X199917789Y-89431366D01*
X200313173Y-89826750D01*
X200315589Y-89824335D01*
X200318181Y-89820456D01*
X200366229Y-89782574D01*
X200427367Y-89780168D01*
X200478243Y-89814158D01*
X200499423Y-89871561D01*
X200499500Y-89875453D01*
X200499500Y-90973646D01*
X200480593Y-91031837D01*
X200431093Y-91067801D01*
X200369907Y-91067801D01*
X200320407Y-91031837D01*
X200318187Y-91028652D01*
X200315979Y-91025348D01*
X200315977Y-91025345D01*
X200169655Y-90879023D01*
X200157434Y-90870857D01*
X199997597Y-90764058D01*
X199806418Y-90684869D01*
X199603467Y-90644500D01*
X199603465Y-90644500D01*
X199396535Y-90644500D01*
X199396532Y-90644500D01*
X199193581Y-90684869D01*
X199002402Y-90764058D01*
X198830348Y-90879020D01*
X198684020Y-91025348D01*
X198569058Y-91197402D01*
X198489869Y-91388581D01*
X198449500Y-91591532D01*
X198449500Y-91798467D01*
X198489869Y-92001418D01*
X198569058Y-92192597D01*
X198681816Y-92361352D01*
X198684023Y-92364655D01*
X198830345Y-92510977D01*
X199002402Y-92625941D01*
X199193580Y-92705130D01*
X199396535Y-92745500D01*
X199396536Y-92745500D01*
X199603464Y-92745500D01*
X199603465Y-92745500D01*
X199806420Y-92705130D01*
X199997598Y-92625941D01*
X200169655Y-92510977D01*
X200315977Y-92364655D01*
X200318184Y-92361352D01*
X200366233Y-92323472D01*
X200427372Y-92321070D01*
X200478246Y-92355062D01*
X200499424Y-92412465D01*
X200499500Y-92416353D01*
X200499500Y-93513646D01*
X200480593Y-93571837D01*
X200431093Y-93607801D01*
X200369907Y-93607801D01*
X200320407Y-93571837D01*
X200318187Y-93568652D01*
X200315979Y-93565348D01*
X200315977Y-93565345D01*
X200169655Y-93419023D01*
X199997598Y-93304059D01*
X199997599Y-93304059D01*
X199997597Y-93304058D01*
X199806418Y-93224869D01*
X199603467Y-93184500D01*
X199603465Y-93184500D01*
X199396535Y-93184500D01*
X199396532Y-93184500D01*
X199193581Y-93224869D01*
X199002402Y-93304058D01*
X198830348Y-93419020D01*
X198684020Y-93565348D01*
X198569058Y-93737402D01*
X198489869Y-93928581D01*
X198449500Y-94131532D01*
X198449500Y-94338467D01*
X198489869Y-94541418D01*
X198569058Y-94732597D01*
X198681816Y-94901352D01*
X198684023Y-94904655D01*
X198830345Y-95050977D01*
X199002402Y-95165941D01*
X199193580Y-95245130D01*
X199396535Y-95285500D01*
X199396536Y-95285500D01*
X199603464Y-95285500D01*
X199603465Y-95285500D01*
X199806420Y-95245130D01*
X199997598Y-95165941D01*
X200169655Y-95050977D01*
X200315977Y-94904655D01*
X200318184Y-94901352D01*
X200366233Y-94863472D01*
X200427372Y-94861070D01*
X200478246Y-94895062D01*
X200499424Y-94952465D01*
X200499500Y-94956353D01*
X200499500Y-96053646D01*
X200480593Y-96111837D01*
X200431093Y-96147801D01*
X200369907Y-96147801D01*
X200320407Y-96111837D01*
X200318187Y-96108652D01*
X200315979Y-96105348D01*
X200315977Y-96105345D01*
X200169655Y-95959023D01*
X200138120Y-95937952D01*
X199997597Y-95844058D01*
X199806418Y-95764869D01*
X199603467Y-95724500D01*
X199603465Y-95724500D01*
X199396535Y-95724500D01*
X199396532Y-95724500D01*
X199193581Y-95764869D01*
X199002402Y-95844058D01*
X198830348Y-95959020D01*
X198684020Y-96105348D01*
X198569058Y-96277402D01*
X198489869Y-96468581D01*
X198449500Y-96671532D01*
X198449500Y-96878467D01*
X198489869Y-97081418D01*
X198569058Y-97272597D01*
X198681816Y-97441352D01*
X198684023Y-97444655D01*
X198830345Y-97590977D01*
X199002402Y-97705941D01*
X199193580Y-97785130D01*
X199396535Y-97825500D01*
X199396536Y-97825500D01*
X199603464Y-97825500D01*
X199603465Y-97825500D01*
X199806420Y-97785130D01*
X199997598Y-97705941D01*
X200169655Y-97590977D01*
X200315977Y-97444655D01*
X200318184Y-97441352D01*
X200366233Y-97403472D01*
X200427372Y-97401070D01*
X200478246Y-97435062D01*
X200499424Y-97492465D01*
X200499500Y-97496353D01*
X200499500Y-98593646D01*
X200480593Y-98651837D01*
X200431093Y-98687801D01*
X200369907Y-98687801D01*
X200320407Y-98651837D01*
X200318187Y-98648652D01*
X200315979Y-98645348D01*
X200315977Y-98645345D01*
X200169655Y-98499023D01*
X199997598Y-98384059D01*
X199997599Y-98384059D01*
X199997597Y-98384058D01*
X199806418Y-98304869D01*
X199603467Y-98264500D01*
X199603465Y-98264500D01*
X199396535Y-98264500D01*
X199396532Y-98264500D01*
X199193581Y-98304869D01*
X199002402Y-98384058D01*
X198830348Y-98499020D01*
X198684020Y-98645348D01*
X198569058Y-98817402D01*
X198489869Y-99008581D01*
X198449500Y-99211532D01*
X198449500Y-99418467D01*
X198489869Y-99621418D01*
X198569058Y-99812597D01*
X198681816Y-99981352D01*
X198684023Y-99984655D01*
X198830345Y-100130977D01*
X199002402Y-100245941D01*
X199193580Y-100325130D01*
X199396535Y-100365500D01*
X199396536Y-100365500D01*
X199603464Y-100365500D01*
X199603465Y-100365500D01*
X199806420Y-100325130D01*
X199997598Y-100245941D01*
X200169655Y-100130977D01*
X200315977Y-99984655D01*
X200318184Y-99981352D01*
X200366233Y-99943472D01*
X200427372Y-99941070D01*
X200478246Y-99975062D01*
X200499424Y-100032465D01*
X200499500Y-100036353D01*
X200499500Y-101134546D01*
X200480593Y-101192737D01*
X200431093Y-101228701D01*
X200369907Y-101228701D01*
X200320407Y-101192737D01*
X200318186Y-101189550D01*
X200315591Y-101185667D01*
X200313173Y-101183249D01*
X199917788Y-101578632D01*
X199900099Y-101547993D01*
X199807007Y-101454901D01*
X199776365Y-101437210D01*
X200171750Y-101041826D01*
X200169329Y-101039405D01*
X199997374Y-100924508D01*
X199997360Y-100924501D01*
X199806272Y-100845349D01*
X199603418Y-100805000D01*
X199396581Y-100805000D01*
X199193727Y-100845349D01*
X199002639Y-100924501D01*
X199002630Y-100924505D01*
X198830665Y-101039410D01*
X198828248Y-101041825D01*
X199223633Y-101437210D01*
X199192993Y-101454901D01*
X199099901Y-101547993D01*
X199082210Y-101578633D01*
X198686825Y-101183248D01*
X198684410Y-101185665D01*
X198569505Y-101357630D01*
X198569501Y-101357639D01*
X198490349Y-101548727D01*
X198450000Y-101751581D01*
X198450000Y-101958418D01*
X198490349Y-102161272D01*
X198569501Y-102352360D01*
X198569508Y-102352374D01*
X198684405Y-102524329D01*
X198686826Y-102526750D01*
X199082210Y-102131365D01*
X199099901Y-102162007D01*
X199192993Y-102255099D01*
X199223632Y-102272788D01*
X198828249Y-102668173D01*
X198830670Y-102670594D01*
X199002625Y-102785491D01*
X199002639Y-102785498D01*
X199193727Y-102864650D01*
X199396581Y-102904999D01*
X199396586Y-102905000D01*
X199603414Y-102905000D01*
X199603418Y-102904999D01*
X199806272Y-102864650D01*
X199997360Y-102785498D01*
X199997366Y-102785495D01*
X200169333Y-102670591D01*
X200171750Y-102668173D01*
X199776366Y-102272789D01*
X199807007Y-102255099D01*
X199900099Y-102162007D01*
X199917789Y-102131366D01*
X200313173Y-102526750D01*
X200315589Y-102524335D01*
X200318181Y-102520456D01*
X200366229Y-102482574D01*
X200427367Y-102480168D01*
X200478243Y-102514158D01*
X200499423Y-102571561D01*
X200499500Y-102575453D01*
X200499500Y-103673646D01*
X200480593Y-103731837D01*
X200431093Y-103767801D01*
X200369907Y-103767801D01*
X200320407Y-103731837D01*
X200318187Y-103728652D01*
X200315979Y-103725348D01*
X200315977Y-103725345D01*
X200169655Y-103579023D01*
X200169651Y-103579020D01*
X199997597Y-103464058D01*
X199806418Y-103384869D01*
X199603467Y-103344500D01*
X199603465Y-103344500D01*
X199396535Y-103344500D01*
X199396532Y-103344500D01*
X199193581Y-103384869D01*
X199002402Y-103464058D01*
X198830348Y-103579020D01*
X198684020Y-103725348D01*
X198569058Y-103897402D01*
X198489869Y-104088581D01*
X198449500Y-104291532D01*
X198449500Y-104498467D01*
X198489869Y-104701418D01*
X198569058Y-104892597D01*
X198681816Y-105061352D01*
X198684023Y-105064655D01*
X198830345Y-105210977D01*
X199002402Y-105325941D01*
X199193580Y-105405130D01*
X199396535Y-105445500D01*
X199396536Y-105445500D01*
X199603464Y-105445500D01*
X199603465Y-105445500D01*
X199806420Y-105405130D01*
X199997598Y-105325941D01*
X200169655Y-105210977D01*
X200315977Y-105064655D01*
X200318184Y-105061352D01*
X200366233Y-105023472D01*
X200427372Y-105021070D01*
X200478246Y-105055062D01*
X200499424Y-105112465D01*
X200499500Y-105116353D01*
X200499500Y-106213646D01*
X200480593Y-106271837D01*
X200431093Y-106307801D01*
X200369907Y-106307801D01*
X200320407Y-106271837D01*
X200318187Y-106268652D01*
X200315979Y-106265348D01*
X200315977Y-106265345D01*
X200169655Y-106119023D01*
X200169651Y-106119020D01*
X199997597Y-106004058D01*
X199806418Y-105924869D01*
X199603467Y-105884500D01*
X199603465Y-105884500D01*
X199396535Y-105884500D01*
X199396532Y-105884500D01*
X199193581Y-105924869D01*
X199002402Y-106004058D01*
X198830348Y-106119020D01*
X198684020Y-106265348D01*
X198569058Y-106437402D01*
X198489869Y-106628581D01*
X198449500Y-106831532D01*
X198449500Y-107038467D01*
X198489869Y-107241418D01*
X198569058Y-107432597D01*
X198681816Y-107601352D01*
X198684023Y-107604655D01*
X198830345Y-107750977D01*
X199002402Y-107865941D01*
X199193580Y-107945130D01*
X199396535Y-107985500D01*
X199396536Y-107985500D01*
X199603464Y-107985500D01*
X199603465Y-107985500D01*
X199806420Y-107945130D01*
X199997598Y-107865941D01*
X200169655Y-107750977D01*
X200315977Y-107604655D01*
X200318184Y-107601352D01*
X200366233Y-107563472D01*
X200427372Y-107561070D01*
X200478246Y-107595062D01*
X200499424Y-107652465D01*
X200499500Y-107656353D01*
X200499500Y-108753646D01*
X200480593Y-108811837D01*
X200431093Y-108847801D01*
X200369907Y-108847801D01*
X200320407Y-108811837D01*
X200318187Y-108808652D01*
X200315979Y-108805348D01*
X200315977Y-108805345D01*
X200169655Y-108659023D01*
X199997598Y-108544059D01*
X199997599Y-108544059D01*
X199997597Y-108544058D01*
X199806418Y-108464869D01*
X199603467Y-108424500D01*
X199603465Y-108424500D01*
X199396535Y-108424500D01*
X199396532Y-108424500D01*
X199193581Y-108464869D01*
X199002402Y-108544058D01*
X198830348Y-108659020D01*
X198684020Y-108805348D01*
X198569058Y-108977402D01*
X198489869Y-109168581D01*
X198449500Y-109371532D01*
X198449500Y-109578467D01*
X198489869Y-109781418D01*
X198569058Y-109972597D01*
X198681816Y-110141352D01*
X198684023Y-110144655D01*
X198830345Y-110290977D01*
X199002402Y-110405941D01*
X199193580Y-110485130D01*
X199396535Y-110525500D01*
X199396536Y-110525500D01*
X199603464Y-110525500D01*
X199603465Y-110525500D01*
X199806420Y-110485130D01*
X199997598Y-110405941D01*
X200169655Y-110290977D01*
X200315977Y-110144655D01*
X200318184Y-110141352D01*
X200366233Y-110103472D01*
X200427372Y-110101070D01*
X200478246Y-110135062D01*
X200499424Y-110192465D01*
X200499500Y-110196353D01*
X200499500Y-111293646D01*
X200480593Y-111351837D01*
X200431093Y-111387801D01*
X200369907Y-111387801D01*
X200320407Y-111351837D01*
X200318187Y-111348652D01*
X200315979Y-111345348D01*
X200315977Y-111345345D01*
X200169655Y-111199023D01*
X199997598Y-111084059D01*
X199997599Y-111084059D01*
X199997597Y-111084058D01*
X199806418Y-111004869D01*
X199603467Y-110964500D01*
X199603465Y-110964500D01*
X199396535Y-110964500D01*
X199396532Y-110964500D01*
X199193581Y-111004869D01*
X199002402Y-111084058D01*
X198830348Y-111199020D01*
X198684020Y-111345348D01*
X198569058Y-111517402D01*
X198489869Y-111708581D01*
X198449500Y-111911532D01*
X198449500Y-112118467D01*
X198489869Y-112321418D01*
X198569058Y-112512597D01*
X198681816Y-112681352D01*
X198684023Y-112684655D01*
X198830345Y-112830977D01*
X199002402Y-112945941D01*
X199193580Y-113025130D01*
X199396535Y-113065500D01*
X199396536Y-113065500D01*
X199603464Y-113065500D01*
X199603465Y-113065500D01*
X199806420Y-113025130D01*
X199997598Y-112945941D01*
X200169655Y-112830977D01*
X200315977Y-112684655D01*
X200318184Y-112681352D01*
X200366233Y-112643472D01*
X200427372Y-112641070D01*
X200478246Y-112675062D01*
X200499424Y-112732465D01*
X200499500Y-112736353D01*
X200499500Y-113834546D01*
X200480593Y-113892737D01*
X200431093Y-113928701D01*
X200369907Y-113928701D01*
X200320407Y-113892737D01*
X200318186Y-113889550D01*
X200315591Y-113885667D01*
X200313173Y-113883249D01*
X199917788Y-114278632D01*
X199900099Y-114247993D01*
X199807007Y-114154901D01*
X199776365Y-114137210D01*
X200171750Y-113741826D01*
X200169329Y-113739405D01*
X199997374Y-113624508D01*
X199997360Y-113624501D01*
X199806272Y-113545349D01*
X199603418Y-113505000D01*
X199396581Y-113505000D01*
X199193727Y-113545349D01*
X199002639Y-113624501D01*
X199002630Y-113624505D01*
X198830665Y-113739410D01*
X198828248Y-113741825D01*
X199223633Y-114137210D01*
X199192993Y-114154901D01*
X199099901Y-114247993D01*
X199082210Y-114278633D01*
X198686825Y-113883248D01*
X198684410Y-113885665D01*
X198569505Y-114057630D01*
X198569501Y-114057639D01*
X198490349Y-114248727D01*
X198450000Y-114451581D01*
X198450000Y-114658418D01*
X198490349Y-114861272D01*
X198569501Y-115052360D01*
X198569508Y-115052374D01*
X198684405Y-115224329D01*
X198686826Y-115226750D01*
X199082210Y-114831365D01*
X199099901Y-114862007D01*
X199192993Y-114955099D01*
X199223632Y-114972788D01*
X198828249Y-115368173D01*
X198830670Y-115370594D01*
X199002625Y-115485491D01*
X199002639Y-115485498D01*
X199193727Y-115564650D01*
X199396581Y-115604999D01*
X199396586Y-115605000D01*
X199603414Y-115605000D01*
X199603418Y-115604999D01*
X199806272Y-115564650D01*
X199997360Y-115485498D01*
X199997366Y-115485495D01*
X200169333Y-115370591D01*
X200171750Y-115368173D01*
X199776366Y-114972789D01*
X199807007Y-114955099D01*
X199900099Y-114862007D01*
X199917789Y-114831366D01*
X200313173Y-115226750D01*
X200315589Y-115224335D01*
X200318181Y-115220456D01*
X200366229Y-115182574D01*
X200427367Y-115180168D01*
X200478243Y-115214158D01*
X200499423Y-115271561D01*
X200499500Y-115275453D01*
X200499500Y-116373646D01*
X200480593Y-116431837D01*
X200431093Y-116467801D01*
X200369907Y-116467801D01*
X200320407Y-116431837D01*
X200318187Y-116428652D01*
X200315979Y-116425348D01*
X200315977Y-116425345D01*
X200169655Y-116279023D01*
X199997598Y-116164059D01*
X199997599Y-116164059D01*
X199997597Y-116164058D01*
X199806418Y-116084869D01*
X199603467Y-116044500D01*
X199603465Y-116044500D01*
X199396535Y-116044500D01*
X199396532Y-116044500D01*
X199193581Y-116084869D01*
X199002402Y-116164058D01*
X198830348Y-116279020D01*
X198684020Y-116425348D01*
X198569058Y-116597402D01*
X198489869Y-116788581D01*
X198449500Y-116991532D01*
X198449500Y-117198467D01*
X198489869Y-117401418D01*
X198569058Y-117592597D01*
X198681816Y-117761352D01*
X198684023Y-117764655D01*
X198830345Y-117910977D01*
X199002402Y-118025941D01*
X199193580Y-118105130D01*
X199396535Y-118145500D01*
X199396536Y-118145500D01*
X199603464Y-118145500D01*
X199603465Y-118145500D01*
X199806420Y-118105130D01*
X199997598Y-118025941D01*
X200169655Y-117910977D01*
X200315977Y-117764655D01*
X200318184Y-117761352D01*
X200366233Y-117723472D01*
X200427372Y-117721070D01*
X200478246Y-117755062D01*
X200499424Y-117812465D01*
X200499500Y-117816353D01*
X200499500Y-118913646D01*
X200480593Y-118971837D01*
X200431093Y-119007801D01*
X200369907Y-119007801D01*
X200320407Y-118971837D01*
X200318187Y-118968652D01*
X200315979Y-118965348D01*
X200315977Y-118965345D01*
X200169655Y-118819023D01*
X200089182Y-118765253D01*
X199997597Y-118704058D01*
X199806418Y-118624869D01*
X199603467Y-118584500D01*
X199603465Y-118584500D01*
X199396535Y-118584500D01*
X199396532Y-118584500D01*
X199193581Y-118624869D01*
X199002402Y-118704058D01*
X198830348Y-118819020D01*
X198684020Y-118965348D01*
X198569058Y-119137402D01*
X198489869Y-119328581D01*
X198449500Y-119531532D01*
X198449500Y-119738467D01*
X198489869Y-119941418D01*
X198569058Y-120132597D01*
X198569059Y-120132598D01*
X198684023Y-120304655D01*
X198709866Y-120330498D01*
X198737642Y-120385013D01*
X198728071Y-120445445D01*
X198684806Y-120488710D01*
X198639861Y-120499500D01*
X193900139Y-120499500D01*
X193841948Y-120480593D01*
X193805984Y-120431093D01*
X193805984Y-120369907D01*
X193830133Y-120330498D01*
X193855977Y-120304655D01*
X193970941Y-120132598D01*
X194050130Y-119941420D01*
X194090500Y-119738465D01*
X194090500Y-119531535D01*
X194050130Y-119328580D01*
X193970941Y-119137402D01*
X193855977Y-118965345D01*
X193709655Y-118819023D01*
X193629180Y-118765252D01*
X193537598Y-118704059D01*
X193401613Y-118647731D01*
X193355088Y-118607994D01*
X193340500Y-118556267D01*
X193340500Y-106084108D01*
X193359407Y-106025917D01*
X193408907Y-105989953D01*
X193470093Y-105989953D01*
X193489000Y-105998372D01*
X193606810Y-106066390D01*
X193606808Y-106066390D01*
X193606812Y-106066391D01*
X193606814Y-106066392D01*
X193734108Y-106100500D01*
X193734110Y-106100500D01*
X193865890Y-106100500D01*
X193865892Y-106100500D01*
X193993186Y-106066392D01*
X193993188Y-106066390D01*
X193993190Y-106066390D01*
X194107309Y-106000503D01*
X194107309Y-106000502D01*
X194107314Y-106000500D01*
X194200500Y-105907314D01*
X194266392Y-105793186D01*
X194300500Y-105665892D01*
X194300500Y-105534108D01*
X194266392Y-105406814D01*
X194266390Y-105406811D01*
X194266390Y-105406809D01*
X194200503Y-105292690D01*
X194200501Y-105292688D01*
X194200500Y-105292686D01*
X194129494Y-105221680D01*
X194101719Y-105167166D01*
X194100500Y-105151679D01*
X194100500Y-98952580D01*
X194119407Y-98894389D01*
X194157659Y-98862856D01*
X194178316Y-98853224D01*
X194263224Y-98768316D01*
X194313972Y-98659487D01*
X194320500Y-98609901D01*
X194320499Y-98190100D01*
X194313972Y-98140513D01*
X194313972Y-98140511D01*
X194263225Y-98031686D01*
X194263224Y-98031685D01*
X194263224Y-98031684D01*
X194178316Y-97946776D01*
X194178314Y-97946775D01*
X194178312Y-97946773D01*
X194157660Y-97937143D01*
X194112912Y-97895414D01*
X194100500Y-97847419D01*
X194100500Y-96982580D01*
X194119407Y-96924389D01*
X194157659Y-96892856D01*
X194178316Y-96883224D01*
X194263224Y-96798316D01*
X194313972Y-96689487D01*
X194320500Y-96639901D01*
X194320499Y-96220100D01*
X194313972Y-96170513D01*
X194313972Y-96170511D01*
X194263225Y-96061686D01*
X194263224Y-96061685D01*
X194263224Y-96061684D01*
X194178316Y-95976776D01*
X194178314Y-95976775D01*
X194178312Y-95976773D01*
X194157660Y-95967143D01*
X194112912Y-95925414D01*
X194100500Y-95877419D01*
X194100500Y-95012580D01*
X194119407Y-94954389D01*
X194157659Y-94922856D01*
X194178316Y-94913224D01*
X194263224Y-94828316D01*
X194313972Y-94719487D01*
X194320500Y-94669901D01*
X194320499Y-94250100D01*
X194313972Y-94200513D01*
X194313972Y-94200511D01*
X194263225Y-94091686D01*
X194263224Y-94091685D01*
X194263224Y-94091684D01*
X194178316Y-94006776D01*
X194178314Y-94006775D01*
X194178312Y-94006773D01*
X194157660Y-93997143D01*
X194112912Y-93955414D01*
X194100500Y-93907419D01*
X194100500Y-92931239D01*
X194119407Y-92873048D01*
X194132764Y-92859921D01*
X194132191Y-92859348D01*
X194138314Y-92853224D01*
X194138316Y-92853224D01*
X194223224Y-92768316D01*
X194273972Y-92659487D01*
X194280500Y-92609901D01*
X194280499Y-92190100D01*
X194273972Y-92140513D01*
X194273972Y-92140511D01*
X194223225Y-92031686D01*
X194223224Y-92031685D01*
X194223224Y-92031684D01*
X194138316Y-91946776D01*
X194138314Y-91946775D01*
X194132191Y-91940652D01*
X194134235Y-91938607D01*
X194105886Y-91900969D01*
X194100500Y-91868760D01*
X194100500Y-90931239D01*
X194119407Y-90873048D01*
X194132764Y-90859921D01*
X194132191Y-90859348D01*
X194138314Y-90853224D01*
X194138316Y-90853224D01*
X194223224Y-90768316D01*
X194273972Y-90659487D01*
X194280500Y-90609901D01*
X194280499Y-90190100D01*
X194273972Y-90140513D01*
X194273972Y-90140511D01*
X194223225Y-90031686D01*
X194223224Y-90031685D01*
X194223224Y-90031684D01*
X194138316Y-89946776D01*
X194136988Y-89946156D01*
X194129978Y-89939242D01*
X194119536Y-89919093D01*
X194105886Y-89900969D01*
X194103857Y-89888835D01*
X194101827Y-89884918D01*
X194102480Y-89880602D01*
X194100500Y-89868760D01*
X194100500Y-89165478D01*
X194119407Y-89107287D01*
X194129490Y-89095480D01*
X194957449Y-88267520D01*
X195011966Y-88239744D01*
X195027453Y-88238525D01*
X195117647Y-88238525D01*
X195117648Y-88238525D01*
X195230486Y-88197456D01*
X195270164Y-88167009D01*
X195567008Y-87870164D01*
X195597456Y-87830486D01*
X195638525Y-87717648D01*
X195638525Y-87627453D01*
X195657432Y-87569262D01*
X195667521Y-87557449D01*
X197073930Y-86151040D01*
X198517133Y-84707837D01*
X198539442Y-84696470D01*
X198560261Y-84682561D01*
X198566279Y-84682797D01*
X198571646Y-84680063D01*
X198596377Y-84683979D01*
G37*
%TD.AperFunction*%
%TD*%
M02*
