%TF.GenerationSoftware,KiCad,Pcbnew,10.0.1*%
%TF.CreationDate,2026-04-24T14:58:23-04:00*%
%TF.ProjectId,CTR-0,4354522d-302e-46b6-9963-61645f706362,rev?*%
%TF.SameCoordinates,Original*%
%TF.FileFunction,Soldermask,Bot*%
%TF.FilePolarity,Negative*%
%FSLAX46Y46*%
G04 Gerber Fmt 4.6, Leading zero omitted, Abs format (unit mm)*
G04 Created by KiCad (PCBNEW 10.0.1) date 2026-04-24 14:58:23*
%MOMM*%
%LPD*%
G01*
G04 APERTURE LIST*
G04 Aperture macros list*
%AMRoundRect*
0 Rectangle with rounded corners*
0 $1 Rounding radius*
0 $2 $3 $4 $5 $6 $7 $8 $9 X,Y pos of 4 corners*
0 Add a 4 corners polygon primitive as box body*
4,1,4,$2,$3,$4,$5,$6,$7,$8,$9,$2,$3,0*
0 Add four circle primitives for the rounded corners*
1,1,$1+$1,$2,$3*
1,1,$1+$1,$4,$5*
1,1,$1+$1,$6,$7*
1,1,$1+$1,$8,$9*
0 Add four rect primitives between the rounded corners*
20,1,$1+$1,$2,$3,$4,$5,0*
20,1,$1+$1,$4,$5,$6,$7,0*
20,1,$1+$1,$6,$7,$8,$9,0*
20,1,$1+$1,$8,$9,$2,$3,0*%
G04 Aperture macros list end*
%ADD10C,0.650000*%
%ADD11O,1.000000X2.100000*%
%ADD12O,1.000000X1.800000*%
%ADD13R,1.700000X1.700000*%
%ADD14C,1.700000*%
%ADD15RoundRect,0.140000X-0.170000X0.140000X-0.170000X-0.140000X0.170000X-0.140000X0.170000X0.140000X0*%
%ADD16RoundRect,0.140000X-0.140000X-0.170000X0.140000X-0.170000X0.140000X0.170000X-0.140000X0.170000X0*%
%ADD17RoundRect,0.140000X0.170000X-0.140000X0.170000X0.140000X-0.170000X0.140000X-0.170000X-0.140000X0*%
%ADD18RoundRect,0.225000X-0.250000X0.225000X-0.250000X-0.225000X0.250000X-0.225000X0.250000X0.225000X0*%
%ADD19RoundRect,0.162500X-0.650000X-0.162500X0.650000X-0.162500X0.650000X0.162500X-0.650000X0.162500X0*%
%ADD20RoundRect,0.140000X-0.219203X-0.021213X-0.021213X-0.219203X0.219203X0.021213X0.021213X0.219203X0*%
%ADD21RoundRect,0.140000X0.140000X0.170000X-0.140000X0.170000X-0.140000X-0.170000X0.140000X-0.170000X0*%
%ADD22RoundRect,0.135000X-0.135000X-0.185000X0.135000X-0.185000X0.135000X0.185000X-0.135000X0.185000X0*%
G04 APERTURE END LIST*
D10*
%TO.C,J1*%
X193390000Y-75310000D03*
X187610000Y-75310000D03*
D11*
X194820000Y-75810000D03*
D12*
X194820000Y-71630000D03*
D11*
X186180000Y-75810000D03*
D12*
X186180000Y-71630000D03*
%TD*%
D13*
%TO.C,J4*%
X187960000Y-119635000D03*
D14*
X190500000Y-119635000D03*
X193040000Y-119635000D03*
%TD*%
D15*
%TO.C,C9*%
X196400000Y-82520000D03*
X196400000Y-83480000D03*
%TD*%
D16*
%TO.C,C7*%
X193800000Y-90400000D03*
X194760000Y-90400000D03*
%TD*%
%TO.C,C6*%
X193800000Y-92400000D03*
X194760000Y-92400000D03*
%TD*%
D17*
%TO.C,C15*%
X191900000Y-98460000D03*
X191900000Y-97500000D03*
%TD*%
D18*
%TO.C,C1*%
X184800000Y-78250000D03*
X184800000Y-79800000D03*
%TD*%
D15*
%TO.C,C8*%
X188000000Y-91640000D03*
X188000000Y-92600000D03*
%TD*%
D16*
%TO.C,C12*%
X193840000Y-94460000D03*
X194800000Y-94460000D03*
%TD*%
D13*
%TO.C,J2*%
X181500000Y-71375000D03*
D14*
X181500000Y-73915000D03*
X181500000Y-76455000D03*
X181500000Y-78995000D03*
X181500000Y-81535000D03*
X181500000Y-84075000D03*
X181500000Y-86615000D03*
X181500000Y-89155000D03*
X181500000Y-91695000D03*
X181500000Y-94235000D03*
X181500000Y-96775000D03*
X181500000Y-99315000D03*
X181500000Y-101855000D03*
X181500000Y-104395000D03*
X181500000Y-106935000D03*
X181500000Y-109475000D03*
X181500000Y-112015000D03*
X181500000Y-114555000D03*
X181500000Y-117095000D03*
X181500000Y-119635000D03*
%TD*%
D16*
%TO.C,C10*%
X193840000Y-98400000D03*
X194800000Y-98400000D03*
%TD*%
D17*
%TO.C,C16*%
X189930000Y-98460000D03*
X189930000Y-97500000D03*
%TD*%
D16*
%TO.C,C11*%
X193840000Y-96430000D03*
X194800000Y-96430000D03*
%TD*%
D19*
%TO.C,U3*%
X187075000Y-81560000D03*
X187075000Y-80290000D03*
X187075000Y-79020000D03*
X187075000Y-77750000D03*
X194250000Y-77750000D03*
X194250000Y-79020000D03*
X194250000Y-80290000D03*
X194250000Y-81560000D03*
%TD*%
D20*
%TO.C,C18*%
X194400000Y-87000000D03*
X195078822Y-87678822D03*
%TD*%
D13*
%TO.C,J3*%
X199500000Y-71375000D03*
D14*
X199500000Y-73915000D03*
X199500000Y-76455000D03*
X199500000Y-78995000D03*
X199500000Y-81535000D03*
X199500000Y-84075000D03*
X199500000Y-86615000D03*
X199500000Y-89155000D03*
X199500000Y-91695000D03*
X199500000Y-94235000D03*
X199500000Y-96775000D03*
X199500000Y-99315000D03*
X199500000Y-101855000D03*
X199500000Y-104395000D03*
X199500000Y-106935000D03*
X199500000Y-109475000D03*
X199500000Y-112015000D03*
X199500000Y-114555000D03*
X199500000Y-117095000D03*
X199500000Y-119635000D03*
%TD*%
D17*
%TO.C,C17*%
X187960000Y-98460000D03*
X187960000Y-97500000D03*
%TD*%
D21*
%TO.C,C14*%
X185960000Y-85700000D03*
X185000000Y-85700000D03*
%TD*%
D15*
%TO.C,C13*%
X189000000Y-91640000D03*
X189000000Y-92600000D03*
%TD*%
D22*
%TO.C,R6*%
X186000000Y-87000000D03*
X187020000Y-87000000D03*
%TD*%
M02*
